<?xml version="1.0" encoding="UTF-8" standalone="no"?>
<!DOCTYPE svg PUBLIC "-//W3C//DTD SVG 1.1//EN" "http://www.w3.org/Graphics/SVG/1.1/DTD/svg11.dtd">
<svg width="100%" height="100%" viewBox="0 0 580 580" version="1.1" xmlns="http://www.w3.org/2000/svg" xmlns:xlink="http://www.w3.org/1999/xlink" xml:space="preserve" xmlns:serif="http://www.serif.com/" style="fill-rule:evenodd;clip-rule:evenodd;stroke-linejoin:round;stroke-miterlimit:2;">
    <rect id="rect4858" x="0" y="0" width="580" height="580" style="fill:rgb(242,242,242);fill-opacity:0.37;"/>
    <rect id="path4304" x="553.49" y="0" width="26.51" height="34.503" style="fill:rgb(164,164,164);fill-opacity:0.75;"/>
    <path id="path4315" d="M560.483,52.486L561.482,90.451L536.505,91.45L524.516,76.464L537.505,55.484L560.483,52.486Z" style="fill:rgb(164,164,164);fill-opacity:0.75;"/>
    <path id="path4322" d="M487.551,26.51L488.55,54.484L503.536,62.477L524.516,50.488L523.517,26.51L487.551,26.51Z" style="fill:rgb(164,164,164);fill-opacity:0.75;"/>
    <path id="path4329" d="M415.617,0L414.618,21.515L428.605,38.499L445.589,37.5L453.582,0L415.617,0Z" style="fill:rgb(164,164,164);fill-opacity:0.75;"/>
    <path id="path4336" d="M462.574,69.471L462.574,95.447L474.563,106.437L487.551,105.437L488.55,70.47L462.574,69.471Z" style="fill:rgb(164,164,164);fill-opacity:0.75;"/>
    <path id="path4343" d="M555.488,99.443L534.507,119.425L556.487,144.402L580,122.422L555.488,99.443Z" style="fill:rgb(164,164,164);fill-opacity:0.75;"/>
    <path id="path4350" d="M523.517,146.4C523.517,154.676 517.032,161.386 509.031,161.386C501.03,161.386 494.544,154.676 494.544,146.4C494.544,138.123 501.03,131.414 509.031,131.414C517.032,131.414 523.517,138.123 523.517,146.4Z" style="fill:rgb(164,164,164);fill-opacity:0.75;"/>
    <path id="path4357" d="M87.919,324.236C87.919,333.616 81.746,345.216 70.435,345.216C59.124,345.216 49.954,337.612 49.954,328.232C49.954,318.852 59.124,311.248 70.435,311.248C81.746,311.248 87.919,314.856 87.919,324.236Z" style="fill:rgb(164,164,164);fill-opacity:0.75;"/>
    <path id="path4360" d="M380.649,218.333C380.649,227.714 373.045,235.318 363.665,235.318C354.285,235.318 346.68,227.714 346.68,218.333C346.68,208.953 354.285,201.349 363.665,201.349C373.045,201.349 380.649,208.953 380.649,218.333Z" style="fill:rgb(164,164,164);fill-opacity:0.75;"/>
    <path id="path4363" d="M44.959,481.091C43.57,489.81 38.025,497.076 29.473,497.076C20.92,497.076 13.987,489.92 13.987,481.091C13.987,472.263 21.39,467.902 29.473,465.106C41.023,461.11 47.956,462.272 44.959,481.091Z" style="fill:rgb(164,164,164);fill-opacity:0.75;"/>
    <path id="path4366" d="M480.557,485.087C478.22,495.307 472.953,504.07 463.573,504.07C454.192,504.07 446.588,495.571 446.588,485.087C446.588,474.604 454.946,469.789 463.573,466.105C479.946,459.111 484.553,467.61 480.557,485.087Z" style="fill:rgb(164,164,164);fill-opacity:0.75;"/>
    <path id="path4371" d="M499.54,263.792C499.54,271.24 491.935,277.279 482.555,277.279C473.175,277.279 469.278,270.252 465.571,263.792C459.576,253.345 464.183,243.31 478.559,245.309C487.85,246.6 499.54,256.343 499.54,263.792Z" style="fill:rgb(164,164,164);fill-opacity:0.75;"/>
    <path id="path4374" d="M283.738,65.474C283.738,75.406 277.133,90.451 267.753,90.451C258.373,90.451 249.77,75.406 249.77,65.474C249.77,55.542 257.374,47.491 266.754,47.491C276.134,47.491 283.738,55.542 283.738,65.474Z" style="fill:rgb(164,164,164);fill-opacity:0.75;"/>
    <rect id="rect4377" x="315.709" y="69.471" width="31.971" height="26.975" style="fill:rgb(164,164,164);fill-opacity:0.75;"/>
    <rect id="rect4380" x="364.664" y="17.519" width="18.983" height="25.976" style="fill:rgb(164,164,164);fill-opacity:0.75;"/>
    <rect id="rect4383" x="552.491" y="195.355" width="27.509" height="23.978" style="fill:rgb(164,164,164);fill-opacity:0.75;"/>
    <rect id="rect4386" x="490.548" y="553.025" width="36.966" height="26.975" style="fill:rgb(164,164,164);fill-opacity:0.75;"/>
    <rect id="rect4389" x="117.891" y="487.086" width="30.971" height="19.982" style="fill:rgb(164,164,164);fill-opacity:0.75;"/>
    <rect id="rect4392" x="236.782" y="197.353" width="25.976" height="42.96" style="fill:rgb(164,164,164);fill-opacity:0.75;"/>
    <rect id="rect4395" x="21.98" y="97.445" width="20.981" height="30.971" style="fill:rgb(164,164,164);fill-opacity:0.75;"/>
    <rect id="rect4398" x="198.817" y="16.519" width="35.967" height="24.977" style="fill:rgb(164,164,164);fill-opacity:0.75;"/>
    <rect id="rect4401" x="0" y="551.027" width="24.977" height="28.973" style="fill:rgb(164,164,164);fill-opacity:0.75;"/>
    <path id="path4404" d="M92.914,70.47L92.914,110.433L116.892,98.444L114.894,70.47L92.914,70.47Z" style="fill:rgb(164,164,164);fill-opacity:0.75;"/>
    <path id="path4411" d="M479.558,188.361C478.192,197.641 472.177,205.345 463.073,205.345C453.969,205.345 446.588,197.741 446.588,188.361C446.588,178.981 453.969,171.377 463.073,171.377C472.177,171.377 482.555,167.991 479.558,188.361Z" style="fill:rgb(164,164,164);fill-opacity:0.75;"/>
    <path id="path4414" d="M234.784,533.043L234.784,562.017L256.763,561.017L234.784,533.043Z" style="fill:rgb(164,164,164);fill-opacity:0.75;"/>
    <path id="path4421" d="M535.506,434.134L532.509,463.108L518.522,459.111L535.506,434.134Z" style="fill:rgb(164,164,164);fill-opacity:0.75;"/>
    <path id="path4428" d="M552.491,524.052L526.515,536.041L553.49,552.026L552.491,524.052Z" style="fill:rgb(164,164,164);fill-opacity:0.75;"/>
    <path id="path4435" d="M461.575,525.051L476.561,543.034L489.549,525.051L461.575,525.051Z" style="fill:rgb(164,164,164);fill-opacity:0.75;"/>
    <path id="path4442" d="M405.626,506.068L408.623,532.044L428.605,535.041L405.626,506.068Z" style="fill:rgb(164,164,164);fill-opacity:0.75;"/>
    <path id="path4449" d="M508.531,354.208L535.506,383.181L550.493,362.201L551.492,334.227L517.523,335.226L508.531,354.208Z" style="fill:rgb(164,164,164);fill-opacity:0.75;"/>
    <path id="path4456" d="M454.581,366.197L462.574,341.22L488.55,340.221L487.551,381.183L454.581,366.197Z" style="fill:rgb(164,164,164);fill-opacity:0.75;"/>
    <path id="path4463" d="M526.515,246.308L526.515,270.286L539.503,280.276L556.487,271.285L556.487,245.309L526.515,246.308Z" style="fill:rgb(164,164,164);fill-opacity:0.75;"/>
    <path id="path4470" d="M406.625,96.446L410.621,126.418L429.604,136.409L440.594,121.423L428.605,96.446L406.625,96.446Z" style="fill:rgb(164,164,164);fill-opacity:0.75;"/>
    <path id="path4479" d="M289.733,19.517L291.731,41.496L302.721,53.485L322.703,34.503L312.712,19.517L289.733,19.517Z" style="fill:rgb(164,164,164);fill-opacity:0.75;"/>
    <path id="path4486" d="M144.866,0L144.866,20.516L162.85,35.502L169.843,0L144.866,0Z" style="fill:rgb(164,164,164);fill-opacity:0.75;"/>
    <path id="path4493" d="M168.844,67.472L187.827,80.46L196.819,61.478L192.822,47.491L171.842,39.498L168.844,67.472Z" style="fill:rgb(164,164,164);fill-opacity:0.75;"/>
    <path id="path4500" d="M98.909,17.519L100.907,46.492L114.894,53.485L131.878,32.505L121.888,17.519L98.909,17.519Z" style="fill:rgb(164,164,164);fill-opacity:0.75;"/>
    <path id="path4507" d="M72.933,25.511L71.934,50.488L56.948,63.476L32.97,43.495L48.955,23.513L72.933,25.511Z" style="fill:rgb(164,164,164);fill-opacity:0.75;"/>
    <path id="path4514" d="M27.974,172.376L25.976,198.352L9.991,194.356L27.974,172.376Z" style="fill:rgb(164,164,164);fill-opacity:0.75;"/>
    <path id="path4521" d="M71.934,163.384L71.934,187.362L94.913,187.362L106.901,175.373L93.913,161.386L71.934,163.384Z" style="fill:rgb(164,164,164);fill-opacity:0.75;"/>
    <rect id="rect4528" x="118.89" y="144.402" width="24.977" height="16.984" style="fill:rgb(164,164,164);fill-opacity:0.75;"/>
    <path id="path4531" d="M64.94,570.009L97.91,553.025L97.91,580L64.94,570.009Z" style="fill:rgb(164,164,164);fill-opacity:0.75;"/>
    <path id="path4538" d="M28.973,530.046L52.951,552.026L76.929,550.028L68.936,507.067L48.955,506.068L28.973,530.046Z" style="fill:rgb(164,164,164);fill-opacity:0.75;"/>
    <path id="path4545" d="M53.95,436.133L65.939,471.1L88.918,454.116L87.919,434.134L53.95,436.133Z" style="fill:rgb(164,164,164);fill-opacity:0.75;"/>
    <path id="path4552" d="M43.959,363.2L39.963,387.178L19.982,399.167L19.982,361.202L43.959,363.2Z" style="fill:rgb(164,164,164);fill-opacity:0.75;"/>
    <path id="path4559" d="M0,283.876L0,326.234L26.975,312.247L24.977,290.267L0,283.876Z" style="fill:rgb(164,164,164);fill-opacity:0.75;"/>
    <path id="path4566" d="M51.952,233.32L14.986,248.306L43.959,273.283L50.953,259.296L51.952,233.32Z" style="fill:rgb(164,164,164);fill-opacity:0.75;"/>
    <path id="path4573" d="M108.9,219.332C110.898,215.336 121.888,196.354 121.888,196.354L141.869,197.353L141.869,232.321L119.889,234.319L108.9,219.332Z" style="fill:rgb(164,164,164);fill-opacity:0.75;"/>
    <path id="path4580" d="M103.904,246.308L126.883,248.306L121.888,290.267L101.906,269.286L99.908,246.308L103.904,246.308Z" style="fill:rgb(164,164,164);fill-opacity:0.75;"/>
    <path id="path4587" d="M186.828,244.309L186.828,279.277L168.844,266.289L165.847,246.308L186.828,244.309Z" style="fill:rgb(164,164,164);fill-opacity:0.75;"/>
    <path id="path4594" d="M195.819,275.281L193.821,301.257L212.804,305.253L224.793,292.265L211.805,271.285L195.819,275.281Z" style="fill:rgb(164,164,164);fill-opacity:0.75;"/>
    <path id="path4601" d="M191.823,190.359L191.823,214.337L202.813,227.325L216.8,213.338L214.802,191.358L191.823,190.359Z" style="fill:rgb(164,164,164);fill-opacity:0.75;"/>
    <path id="path4608" d="M236.782,127.417L235.783,160.387L265.755,158.389L261.759,146.4L236.782,127.417Z" style="fill:rgb(164,164,164);fill-opacity:0.75;"/>
    <path id="path4615" d="M264.756,101.441L264.756,127.417L282.739,137.408L299.724,120.424L285.737,99.443L264.756,101.441Z" style="fill:rgb(164,164,164);fill-opacity:0.75;"/>
    <path id="path4622" d="M164.848,93.449L165.847,126.418L173.84,136.409L187.827,124.42L189.825,102.44L164.848,93.449Z" style="fill:rgb(164,164,164);fill-opacity:0.75;"/>
    <path id="path4629" d="M124.885,315.244L123.886,337.224L138.872,347.215L158.854,339.222L161.851,316.243L124.885,315.244Z" style="fill:rgb(164,164,164);fill-opacity:0.75;"/>
    <path id="path4636" d="M283.738,271.285L268.752,296.262L286.736,307.251L296.726,295.262L283.738,271.285Z" style="fill:rgb(164,164,164);fill-opacity:0.75;"/>
    <path id="path4643" d="M283.738,246.308L292.73,233.32L313.711,237.316L310.714,264.291L293.729,263.292L283.738,246.308Z" style="fill:rgb(164,164,164);fill-opacity:0.75;"/>
    <path id="path4650" d="M316.708,145.401L323.702,179.369L341.685,165.382L339.687,147.399L316.708,145.401Z" style="fill:rgb(164,164,164);fill-opacity:0.75;"/>
    <path id="path4659" d="M343.683,123.421L357.67,150.396L382.647,141.404L376.653,120.424L343.683,123.421Z" style="fill:rgb(164,164,164);fill-opacity:0.75;"/>
    <path id="path4666" d="M417.615,200.35L414.618,235.318L402.629,223.329L417.615,200.35Z" style="fill:rgb(164,164,164);fill-opacity:0.75;"/>
    <path id="path4673" d="M358.669,273.283L346.68,284.273L365.663,305.253L397.633,296.262L388.642,271.285L358.669,273.283Z" style="fill:rgb(164,164,164);fill-opacity:0.75;"/>
    <path id="path4680" d="M418.614,308.251L422.61,331.229L438.596,342.219L449.586,326.234L440.594,309.25L418.614,308.251Z" style="fill:rgb(164,164,164);fill-opacity:0.75;"/>
    <path id="path4687" d="M65.7,394.202L77.004,381.486L96.784,382.192L95.371,403.386L65.7,394.202Z" style="fill:rgb(164,164,164);fill-opacity:0.75;"/>
    <path id="path4694" d="M125.749,383.605L139.878,396.322L161.072,382.192L125.749,383.605Z" style="fill:rgb(164,164,164);fill-opacity:0.75;"/>
    <path id="path4701" d="M193.569,337.686L192.862,361.705L226.772,348.989L193.569,337.686Z" style="fill:rgb(164,164,164);fill-opacity:0.75;"/>
    <path id="path4703" d="M243.021,338.392L248.672,360.999L265.627,369.476L281.876,346.87L267.747,335.566L243.021,338.392Z" style="fill:rgb(164,164,164);fill-opacity:0.75;"/>
    <path id="path4710" d="M332.741,365.944L338.392,344.044L358.173,343.337L358.173,379.367L332.741,365.944Z" style="fill:rgb(164,164,164);fill-opacity:0.75;"/>
    <path id="path4717" d="M389.257,346.163L389.257,363.118L416.809,373.009L412.57,346.163L389.257,346.163Z" style="fill:rgb(164,164,164);fill-opacity:0.75;"/>
    <path id="path4724" d="M200.633,382.192L201.34,403.386L215.469,416.102L235.25,404.093L233.837,382.192L200.633,382.192Z" style="fill:rgb(164,164,164);fill-opacity:0.75;"/>
    <path id="path4731" d="M140.585,414.689L124.336,438.709L143.41,451.425L150.475,437.296L140.585,414.689Z" style="fill:rgb(164,164,164);fill-opacity:0.75;"/>
    <path id="path4738" d="M174.495,417.515L173.788,448.599L193.569,450.719L202.753,441.535L193.569,416.809L174.495,417.515Z" style="fill:rgb(164,164,164);fill-opacity:0.75;"/>
    <path id="path4745" d="M197.808,461.315L206.285,491.693L231.011,484.629L230.305,465.554L197.808,461.315Z" style="fill:rgb(164,164,164);fill-opacity:0.75;"/>
    <path id="path4752" d="M246.553,435.883L246.553,459.903L253.618,468.38L269.16,456.37L269.16,438.709L246.553,435.883Z" style="fill:rgb(164,164,164);fill-opacity:0.75;"/>
    <path id="path4759" d="M310.134,433.764L310.134,470.499L322.85,471.912L333.447,458.49L332.741,442.948L310.134,433.764Z" style="fill:rgb(164,164,164);fill-opacity:0.75;"/>
    <path id="path4766" d="M261.389,480.39L262.095,503.703L276.224,514.3L295.298,495.225L285.408,480.39L261.389,480.39Z" style="fill:rgb(164,164,164);fill-opacity:0.75;"/>
    <path id="path4773" d="M290.353,387.844L290.353,425.286L303.776,423.167L320.024,411.864L313.666,391.376L290.353,387.844Z" style="fill:rgb(164,164,164);fill-opacity:0.75;"/>
    <path id="path4780" d="M129.281,533.374L129.281,559.513L147.649,564.458L160.365,555.981L157.54,536.2L129.281,533.374Z" style="fill:rgb(164,164,164);fill-opacity:0.75;"/>
    <path id="path4787" d="M296.005,554.568L281.876,580L317.905,580L313.666,554.568L296.005,554.568Z" style="fill:rgb(164,164,164);fill-opacity:0.75;"/>
    <path id="path4794" d="M355.347,580L368.77,555.274L389.257,556.687L378.66,580L355.347,580Z" style="fill:rgb(164,164,164);fill-opacity:0.75;"/>
    <path id="path4801" d="M317.199,510.767L322.144,527.722L341.218,541.851L350.402,523.484L339.805,507.942L317.199,510.767Z" style="fill:rgb(164,164,164);fill-opacity:0.75;"/>
    <path id="path4803" d="M382.192,454.251L382.192,474.032L395.615,488.161L416.102,466.967L401.267,448.599L382.192,454.251Z" style="fill:rgb(164,164,164);fill-opacity:0.75;"/>
    <path id="path4805" d="M360.292,406.918L360.999,425.993L391.376,410.451L360.292,406.918Z" style="fill:rgb(164,164,164);fill-opacity:0.75;"/>
    <path id="path4812" d="M430.938,419.635L440.828,409.038L461.315,409.038L457.077,429.525L447.893,442.241L430.938,419.635Z" style="fill:rgb(164,164,164);fill-opacity:0.75;"/>
</svg>
