<?xml version="1.0" encoding="UTF-8" standalone="no"?>
<!DOCTYPE svg PUBLIC "-//W3C//DTD SVG 1.1//EN" "http://www.w3.org/Graphics/SVG/1.1/DTD/svg11.dtd"><svg width="580" height="580" viewBox="0 0 580 580" version="1.1" xmlns="http://www.w3.org/2000/svg" xmlns:xlink="http://www.w3.org/1999/xlink" xml:space="preserve" xmlns:serif="http://www.serif.com/" style="fill-rule:evenodd;clip-rule:evenodd;stroke-linejoin:round;stroke-miterlimit:2;"><g id="rect4858" transform="matrix(0.24,0,0,0.239999,0,0)"><rect x="0" y="0" width="2416.67" height="2416.67" style="fill:rgb(242,242,242);fill-opacity:0.75;"/></g><g id="path4304" transform="matrix(0.24,0,0,0.239999,0,0)"><rect x="2306.21" y="0" width="110.459" height="143.762" style="fill:rgb(164,164,164);fill-opacity:0.75;"/></g><g id="path4315" transform="matrix(0.24,0,0,0.239999,0,0)"><path d="M2335.35,218.693L2339.51,376.88L2235.44,381.043L2185.49,318.601L2239.61,231.181L2335.35,218.693Z" style="fill:rgb(164,164,164);fill-opacity:0.75;"/></g><g id="path4322" transform="matrix(0.24,0,0,0.239999,0,0)"><path d="M2031.46,110.459L2035.62,227.019L2098.07,260.321L2185.48,210.367L2181.32,110.459L2031.46,110.459Z" style="fill:rgb(164,164,164);fill-opacity:0.75;"/></g><g id="path4329" transform="matrix(0.24,0,0,0.239999,0,0)"><path d="M1731.74,0L1727.58,89.645L1785.86,160.413L1856.62,156.25L1889.93,0L1731.74,0Z" style="fill:rgb(164,164,164);fill-opacity:0.75;"/></g><g id="path4336" transform="matrix(0.24,0,0,0.239999,0,0)"><path d="M1927.39,289.461L1927.39,397.695L1977.34,443.486L2031.46,439.323L2035.62,293.624L1927.39,289.461Z" style="fill:rgb(164,164,164);fill-opacity:0.75;"/></g><g id="path4343" transform="matrix(0.24,0,0,0.239999,0,0)"><path d="M2314.53,414.346L2227.11,497.602L2318.69,601.673L2416.66,510.091L2314.53,414.346Z" style="fill:rgb(164,164,164);fill-opacity:0.75;"/></g><g id="path4350" transform="matrix(0.24,0,0,0.239999,0,0)"><path d="M2181.32,609.999C2181.32,644.485 2154.3,672.441 2120.96,672.441C2087.62,672.441 2060.6,644.485 2060.6,609.999C2060.6,575.513 2087.62,547.556 2120.96,547.556C2154.3,547.556 2181.32,575.513 2181.32,609.999Z" style="fill:rgb(164,164,164);fill-opacity:0.75;"/></g><g id="path4357" transform="matrix(0.24,0,0,0.239999,0,0)"><path d="M366.329,1350.98C366.329,1390.07 340.61,1438.4 293.479,1438.4C246.349,1438.4 208.141,1406.72 208.141,1367.63C208.141,1328.55 246.349,1296.86 293.479,1296.86C340.61,1296.86 366.329,1311.9 366.329,1350.98Z" style="fill:rgb(164,164,164);fill-opacity:0.75;"/></g><g id="path4360" transform="matrix(0.24,0,0,0.239999,0,0)"><path d="M1586.04,909.723C1586.04,948.807 1554.36,980.491 1515.27,980.491C1476.19,980.491 1444.5,948.807 1444.5,909.722C1444.5,870.638 1476.19,838.954 1515.27,838.954C1554.36,838.954 1586.04,870.638 1586.04,909.723Z" style="fill:rgb(164,164,164);fill-opacity:0.75;"/></g><g id="path4363" transform="matrix(0.24,0,0,0.239999,0,0)"><path d="M187.327,2004.55C181.542,2040.88 158.439,2071.16 122.803,2071.16C87.168,2071.16 58.28,2041.34 58.28,2004.55C58.28,1967.77 89.127,1949.6 122.803,1937.94C170.927,1921.29 199.816,1926.14 187.327,2004.55Z" style="fill:rgb(164,164,164);fill-opacity:0.75;"/></g><g id="path4366" transform="matrix(0.24,0,0,0.239999,0,0)"><path d="M2002.32,2021.2C1992.58,2063.78 1970.64,2100.29 1931.55,2100.29C1892.47,2100.29 1860.78,2064.88 1860.78,2021.2C1860.78,1977.52 1895.61,1957.46 1931.55,1942.11C1999.78,1912.97 2018.97,1948.38 2002.32,2021.2Z" style="fill:rgb(164,164,164);fill-opacity:0.75;"/></g><g id="path4371" transform="matrix(0.24,0,0,0.239999,0,0)"><path d="M2081.41,1099.13C2081.41,1130.17 2049.73,1155.33 2010.64,1155.33C1971.56,1155.33 1955.32,1126.05 1939.87,1099.13C1914.9,1055.6 1934.09,1013.79 1993.99,1022.12C2032.7,1027.5 2081.41,1068.09 2081.41,1099.13Z" style="fill:rgb(164,164,164);fill-opacity:0.75;"/></g><g id="path4374" transform="matrix(0.24,0,0,0.239999,0,0)"><path d="M1182.24,272.81C1182.24,314.193 1154.72,376.88 1115.63,376.88C1076.55,376.88 1040.7,314.193 1040.7,272.81C1040.7,231.426 1072.39,197.879 1111.47,197.879C1150.56,197.879 1182.24,231.426 1182.24,272.81Z" style="fill:rgb(164,164,164);fill-opacity:0.75;"/></g><g id="rect4377" transform="matrix(0.24,0,0,0.239999,0,0)"><rect x="1315.45" y="289.461" width="133.211" height="112.396" style="fill:rgb(164,164,164);fill-opacity:0.75;"/></g><g id="rect4380" transform="matrix(0.24,0,0,0.239999,0,0)"><rect x="1519.43" y="72.994" width="79.094" height="108.234" style="fill:rgb(164,164,164);fill-opacity:0.75;"/></g><g id="rect4383" transform="matrix(0.24,0,0,0.239999,0,0)"><rect x="2302.04" y="813.977" width="114.622" height="99.908" style="fill:rgb(164,164,164);fill-opacity:0.75;"/></g><g id="rect4386" transform="matrix(0.24,0,0,0.239999,0,0)"><rect x="2043.95" y="2304.27" width="154.025" height="112.396" style="fill:rgb(164,164,164);fill-opacity:0.75;"/></g><g id="rect4389" transform="matrix(0.24,0,0,0.239999,0,0)"><rect x="491.214" y="2029.52" width="129.048" height="83.257" style="fill:rgb(164,164,164);fill-opacity:0.75;"/></g><g id="rect4392" transform="matrix(0.24,0,0,0.239999,0,0)"><rect x="986.591" y="822.303" width="108.234" height="179.002" style="fill:rgb(164,164,164);fill-opacity:0.75;"/></g><g id="rect4395" transform="matrix(0.24,0,0,0.239999,0,0)"><rect x="91.582" y="406.02" width="87.419" height="129.048" style="fill:rgb(164,164,164);fill-opacity:0.75;"/></g><g id="rect4398" transform="matrix(0.24,0,0,0.239999,0,0)"><rect x="828.403" y="68.831" width="149.862" height="104.071" style="fill:rgb(164,164,164);fill-opacity:0.75;"/></g><g id="rect4401" transform="matrix(0.24,0,0,0.239999,0,0)"><rect x="0" y="2295.95" width="104.071" height="120.722" style="fill:rgb(164,164,164);fill-opacity:0.75;"/></g><g id="path4404" transform="matrix(0.24,0,0,0.239999,0,0)"><path d="M387.143,293.624L387.143,460.137L487.051,410.183L478.725,293.624L387.143,293.624Z" style="fill:rgb(164,164,164);fill-opacity:0.75;"/></g><g id="path4411" transform="matrix(0.24,0,0,0.239999,0,0)"><path d="M1998.16,784.838C1992.47,823.505 1967.41,855.606 1929.47,855.606C1891.54,855.606 1860.79,823.922 1860.79,784.838C1860.79,745.753 1891.54,714.07 1929.47,714.07C1967.41,714.07 2010.65,699.962 1998.16,784.838Z" style="fill:rgb(164,164,164);fill-opacity:0.75;"/></g><g id="path4414" transform="matrix(0.24,0,0,0.239999,0,0)"><path d="M978.265,2221.01L978.265,2341.73L1069.85,2337.57L978.265,2221.01Z" style="fill:rgb(164,164,164);fill-opacity:0.75;"/></g><g id="path4421" transform="matrix(0.24,0,0,0.239999,0,0)"><path d="M2231.28,1808.89L2218.79,1929.61L2160.51,1912.96L2231.28,1808.89Z" style="fill:rgb(164,164,164);fill-opacity:0.75;"/></g><g id="path4428" transform="matrix(0.24,0,0,0.239999,0,0)"><path d="M2302.05,2183.55L2193.82,2233.5L2306.21,2300.11L2302.05,2183.55Z" style="fill:rgb(164,164,164);fill-opacity:0.75;"/></g><g id="path4435" transform="matrix(0.24,0,0,0.239999,0,0)"><path d="M1923.23,2187.71L1985.67,2262.64L2039.79,2187.71L1923.23,2187.71Z" style="fill:rgb(164,164,164);fill-opacity:0.75;"/></g><g id="path4442" transform="matrix(0.24,0,0,0.239999,0,0)"><path d="M1690.11,2108.62L1702.6,2216.85L1785.86,2229.34L1690.11,2108.62Z" style="fill:rgb(164,164,164);fill-opacity:0.75;"/></g><g id="path4449" transform="matrix(0.24,0,0,0.239999,0,0)"><path d="M2118.88,1475.87L2231.28,1596.59L2293.72,1509.17L2297.88,1392.61L2156.35,1396.78L2118.88,1475.87Z" style="fill:rgb(164,164,164);fill-opacity:0.75;"/></g><g id="path4456" transform="matrix(0.24,0,0,0.239999,0,0)"><path d="M1894.09,1525.82L1927.39,1421.75L2035.63,1417.59L2031.46,1588.26L1894.09,1525.82Z" style="fill:rgb(164,164,164);fill-opacity:0.75;"/></g><g id="path4463" transform="matrix(0.24,0,0,0.239999,0,0)"><path d="M2193.81,1026.28L2193.81,1126.19L2247.93,1167.82L2318.7,1130.35L2318.7,1022.12L2193.81,1026.28Z" style="fill:rgb(164,164,164);fill-opacity:0.75;"/></g><g id="path4470" transform="matrix(0.24,0,0,0.239999,0,0)"><path d="M1694.27,401.857L1710.92,526.742L1790.02,568.37L1835.81,505.928L1785.85,401.857L1694.27,401.857Z" style="fill:rgb(164,164,164);fill-opacity:0.75;"/></g><g id="path4479" transform="matrix(0.24,0,0,0.239999,0,0)"><path d="M1207.22,81.319L1215.55,172.902L1261.34,222.856L1344.59,143.762L1302.97,81.319L1207.22,81.319Z" style="fill:rgb(164,164,164);fill-opacity:0.75;"/></g><g id="path4486" transform="matrix(0.24,0,0,0.239999,0,0)"><path d="M603.61,0L603.61,85.482L678.541,147.925L707.681,0L603.61,0Z" style="fill:rgb(164,164,164);fill-opacity:0.75;"/></g><g id="path4493" transform="matrix(0.24,0,0,0.239999,0,0)"><path d="M703.518,281.135L782.612,335.252L820.077,256.158L803.426,197.879L716.007,164.576L703.518,281.135Z" style="fill:rgb(164,164,164);fill-opacity:0.75;"/></g><g id="path4500" transform="matrix(0.24,0,0,0.239999,0,0)"><path d="M412.12,72.994L420.446,193.716L478.725,222.856L549.493,135.436L507.865,72.994L412.12,72.994Z" style="fill:rgb(164,164,164);fill-opacity:0.75;"/></g><g id="path4507" transform="matrix(0.24,0,0,0.239999,0,0)"><path d="M303.887,106.296L299.724,210.367L237.281,264.484L137.373,181.227L203.979,97.971L303.887,106.296Z" style="fill:rgb(164,164,164);fill-opacity:0.75;"/></g><g id="path4514" transform="matrix(0.24,0,0,0.239999,0,0)"><path d="M116.559,718.232L108.234,826.466L41.628,809.815L116.559,718.232Z" style="fill:rgb(164,164,164);fill-opacity:0.75;"/></g><g id="path4521" transform="matrix(0.24,0,0,0.239999,0,0)"><path d="M299.724,680.767L299.724,780.675L395.469,780.675L445.423,730.721L391.306,672.441L299.724,680.767Z" style="fill:rgb(164,164,164);fill-opacity:0.75;"/></g><g id="rect4528" transform="matrix(0.24,0,0,0.239999,0,0)"><rect x="495.377" y="601.673" width="104.071" height="70.768" style="fill:rgb(164,164,164);fill-opacity:0.75;"/></g><g id="path4531" transform="matrix(0.24,0,0,0.239999,0,0)"><path d="M270.584,2375.04L407.957,2304.27L407.957,2416.67L270.584,2375.04Z" style="fill:rgb(164,164,164);fill-opacity:0.75;"/></g><g id="path4538" transform="matrix(0.24,0,0,0.239999,0,0)"><path d="M120.722,2208.53L220.63,2300.11L320.538,2291.79L287.235,2112.78L203.979,2108.62L120.722,2208.53Z" style="fill:rgb(164,164,164);fill-opacity:0.75;"/></g><g id="path4545" transform="matrix(0.24,0,0,0.239999,0,0)"><path d="M224.793,1817.22L274.747,1962.92L370.492,1892.15L366.329,1808.89L224.793,1817.22Z" style="fill:rgb(164,164,164);fill-opacity:0.75;"/></g><g id="path4552" transform="matrix(0.24,0,0,0.239999,0,0)"><path d="M183.164,1513.33L166.513,1613.24L83.257,1663.19L83.257,1505L183.164,1513.33Z" style="fill:rgb(164,164,164);fill-opacity:0.75;"/></g><g id="path4559" transform="matrix(0.24,0,0,0.239999,0,0)"><path d="M0,1182.82L0,1359.31L112.396,1301.03L104.071,1209.45L0,1182.82Z" style="fill:rgb(164,164,164);fill-opacity:0.75;"/></g><g id="path4566" transform="matrix(0.24,0,0,0.239999,0,0)"><path d="M216.467,972.165L62.442,1034.61L183.164,1138.68L212.304,1080.4L216.467,972.165Z" style="fill:rgb(164,164,164);fill-opacity:0.75;"/></g><g id="path4573" transform="matrix(0.24,0,0,0.239999,0,0)"><path d="M453.748,913.885C462.074,897.234 507.865,818.14 507.865,818.14L591.122,822.303L591.122,968.002L499.539,976.328L453.748,913.885Z" style="fill:rgb(164,164,164);fill-opacity:0.75;"/></g><g id="path4580" transform="matrix(0.24,0,0,0.239999,0,0)"><path d="M432.934,1026.28L528.679,1034.61L507.865,1209.44L424.609,1122.03L416.283,1026.28L432.934,1026.28Z" style="fill:rgb(164,164,164);fill-opacity:0.75;"/></g><g id="path4587" transform="matrix(0.24,0,0,0.239999,0,0)"><path d="M778.449,1017.96L778.449,1163.66L703.518,1109.54L691.03,1026.29L778.449,1017.96Z" style="fill:rgb(164,164,164);fill-opacity:0.75;"/></g><g id="path4594" transform="matrix(0.24,0,0,0.239999,0,0)"><path d="M815.915,1147L807.589,1255.23L886.683,1271.88L936.637,1217.77L882.52,1130.35L815.915,1147Z" style="fill:rgb(164,164,164);fill-opacity:0.75;"/></g><g id="path4601" transform="matrix(0.24,0,0,0.239999,0,0)"><path d="M799.263,793.163L799.263,893.071L845.054,947.188L903.334,888.908L895.008,797.326L799.263,793.163Z" style="fill:rgb(164,164,164);fill-opacity:0.75;"/></g><g id="path4608" transform="matrix(0.24,0,0,0.239999,0,0)"><path d="M986.591,530.905L982.428,668.278L1107.31,659.953L1090.66,609.999L986.591,530.905Z" style="fill:rgb(164,164,164);fill-opacity:0.75;"/></g><g id="path4615" transform="matrix(0.24,0,0,0.239999,0,0)"><path d="M1103.15,422.671L1103.15,530.905L1178.08,572.533L1248.85,501.765L1190.57,414.346L1103.15,422.671Z" style="fill:rgb(164,164,164);fill-opacity:0.75;"/></g><g id="path4622" transform="matrix(0.24,0,0,0.239999,0,0)"><path d="M686.867,389.369L691.03,526.742L724.332,568.371L782.612,518.417L790.938,426.834L686.867,389.369Z" style="fill:rgb(164,164,164);fill-opacity:0.75;"/></g><g id="path4629" transform="matrix(0.24,0,0,0.239999,0,0)"><path d="M520.354,1313.52L516.191,1405.1L578.633,1446.73L661.89,1413.43L674.378,1317.68L520.354,1313.52Z" style="fill:rgb(164,164,164);fill-opacity:0.75;"/></g><g id="path4636" transform="matrix(0.24,0,0,0.239999,0,0)"><path d="M1182.24,1130.35L1119.8,1234.42L1194.73,1280.21L1236.36,1230.26L1182.24,1130.35Z" style="fill:rgb(164,164,164);fill-opacity:0.75;"/></g><g id="path4643" transform="matrix(0.24,0,0,0.239999,0,0)"><path d="M1182.24,1026.28L1219.7,972.163L1307.12,988.814L1294.64,1101.21L1223.87,1097.05L1182.24,1026.28Z" style="fill:rgb(164,164,164);fill-opacity:0.75;"/></g><g id="path4650" transform="matrix(0.24,0,0,0.239999,0,0)"><path d="M1319.62,605.836L1348.76,747.372L1423.69,689.093L1415.37,614.162L1319.62,605.836Z" style="fill:rgb(164,164,164);fill-opacity:0.75;"/></g><g id="path4659" transform="matrix(0.24,0,0,0.239999,0,0)"><path d="M1432.01,514.254L1490.29,626.65L1594.36,589.185L1569.38,501.765L1432.01,514.254Z" style="fill:rgb(164,164,164);fill-opacity:0.75;"/></g><g id="path4666" transform="matrix(0.24,0,0,0.239999,0,0)"><path d="M1740.06,834.792L1727.57,980.491L1677.62,930.537L1740.06,834.792Z" style="fill:rgb(164,164,164);fill-opacity:0.75;"/></g><g id="path4673" transform="matrix(0.24,0,0,0.239999,0,0)"><path d="M1494.46,1138.68L1444.51,1184.47L1523.6,1271.89L1656.81,1234.42L1619.35,1130.35L1494.46,1138.68Z" style="fill:rgb(164,164,164);fill-opacity:0.75;"/></g><g id="path4680" transform="matrix(0.24,0,0,0.239999,0,0)"><path d="M1744.23,1284.38L1760.88,1380.12L1827.49,1425.92L1873.28,1359.31L1835.81,1288.54L1744.23,1284.38Z" style="fill:rgb(164,164,164);fill-opacity:0.75;"/></g><g id="path4687" transform="matrix(0.24,0,0,0.239999,0,0)"><path d="M273.752,1642.51L320.849,1589.53L403.268,1592.47L397.381,1680.78L273.752,1642.51Z" style="fill:rgb(164,164,164);fill-opacity:0.75;"/></g><g id="path4694" transform="matrix(0.24,0,0,0.239999,0,0)"><path d="M523.955,1598.36L582.826,1651.34L671.133,1592.47L523.955,1598.36Z" style="fill:rgb(164,164,164);fill-opacity:0.75;"/></g><g id="path4701" transform="matrix(0.24,0,0,0.239999,0,0)"><path d="M806.537,1407.02L803.593,1507.1L944.884,1454.12L806.537,1407.02Z" style="fill:rgb(164,164,164);fill-opacity:0.75;"/></g><g id="path4703" transform="matrix(0.24,0,0,0.239999,0,0)"><path d="M1012.59,1409.97L1036.14,1504.16L1106.78,1539.49L1174.49,1445.29L1115.62,1398.19L1012.59,1409.97Z" style="fill:rgb(164,164,164);fill-opacity:0.75;"/></g><g id="path4710" transform="matrix(0.24,0,0,0.239999,0,0)"><path d="M1386.42,1524.77L1409.97,1433.52L1492.39,1430.58L1492.39,1580.7L1386.42,1524.77Z" style="fill:rgb(164,164,164);fill-opacity:0.75;"/></g><g id="path4717" transform="matrix(0.24,0,0,0.239999,0,0)"><path d="M1621.9,1442.35L1621.9,1513L1736.7,1554.2L1719.04,1442.35L1621.9,1442.35Z" style="fill:rgb(164,164,164);fill-opacity:0.75;"/></g><g id="path4724" transform="matrix(0.24,0,0,0.239999,0,0)"><path d="M835.972,1592.47L838.916,1680.78L897.787,1733.76L980.207,1683.72L974.32,1592.47L835.972,1592.47Z" style="fill:rgb(164,164,164);fill-opacity:0.75;"/></g><g id="path4731" transform="matrix(0.24,0,0,0.239999,0,0)"><path d="M585.769,1727.87L518.067,1827.95L597.544,1880.93L626.979,1822.06L585.769,1727.87Z" style="fill:rgb(164,164,164);fill-opacity:0.75;"/></g><g id="path4738" transform="matrix(0.24,0,0,0.239999,0,0)"><path d="M727.061,1739.65L724.117,1869.17L806.537,1878L844.803,1839.73L806.537,1736.71L727.061,1739.65Z" style="fill:rgb(164,164,164);fill-opacity:0.75;"/></g><g id="path4745" transform="matrix(0.24,0,0,0.239999,0,0)"><path d="M824.198,1922.15L859.521,2048.72L962.546,2019.29L959.602,1939.81L824.198,1922.15Z" style="fill:rgb(164,164,164);fill-opacity:0.75;"/></g><g id="path4752" transform="matrix(0.24,0,0,0.239999,0,0)"><path d="M1027.3,1816.18L1027.3,1916.26L1056.74,1951.58L1121.49,1901.54L1121.49,1827.95L1027.3,1816.18Z" style="fill:rgb(164,164,164);fill-opacity:0.75;"/></g><g id="path4759" transform="matrix(0.24,0,0,0.239999,0,0)"><path d="M1292.23,1807.35L1292.23,1960.41L1345.21,1966.3L1389.37,1910.38L1386.42,1845.62L1292.23,1807.35Z" style="fill:rgb(164,164,164);fill-opacity:0.75;"/></g><g id="path4766" transform="matrix(0.24,0,0,0.239999,0,0)"><path d="M1089.12,2001.62L1092.06,2098.76L1150.93,2142.91L1230.41,2063.43L1189.2,2001.62L1089.12,2001.62Z" style="fill:rgb(164,164,164);fill-opacity:0.75;"/></g><g id="path4773" transform="matrix(0.24,0,0,0.239999,0,0)"><path d="M1209.81,1616.02L1209.81,1772.03L1265.74,1763.2L1333.44,1716.1L1306.95,1630.74L1209.81,1616.02Z" style="fill:rgb(164,164,164);fill-opacity:0.75;"/></g><g id="path4780" transform="matrix(0.24,0,0,0.239999,0,0)"><path d="M538.672,2222.39L538.672,2331.3L615.205,2351.91L668.189,2316.58L656.415,2234.16L538.672,2222.39Z" style="fill:rgb(164,164,164);fill-opacity:0.75;"/></g><g id="path4787" transform="matrix(0.24,0,0,0.239999,0,0)"><path d="M1233.35,2310.7L1174.48,2416.67L1324.6,2416.67L1306.94,2310.7L1233.35,2310.7Z" style="fill:rgb(164,164,164);fill-opacity:0.75;"/></g><g id="path4794" transform="matrix(0.24,0,0,0.239999,0,0)"><path d="M1480.61,2416.67L1536.54,2313.64L1621.9,2319.53L1577.75,2416.67L1480.61,2416.67Z" style="fill:rgb(164,164,164);fill-opacity:0.75;"/></g><g id="path4801" transform="matrix(0.24,0,0,0.239999,0,0)"><path d="M1321.66,2128.2L1342.27,2198.85L1421.74,2257.72L1460.01,2181.18L1415.85,2116.43L1321.66,2128.2Z" style="fill:rgb(164,164,164);fill-opacity:0.75;"/></g><g id="path4803" transform="matrix(0.24,0,0,0.239999,0,0)"><path d="M1592.47,1892.71L1592.47,1975.13L1648.4,2034L1733.76,1945.69L1671.95,1869.16L1592.47,1892.71Z" style="fill:rgb(164,164,164);fill-opacity:0.75;"/></g><g id="path4805" transform="matrix(0.24,0,0,0.239999,0,0)"><path d="M1501.22,1695.49L1504.16,1774.97L1630.74,1710.21L1501.22,1695.49Z" style="fill:rgb(164,164,164);fill-opacity:0.75;"/></g><g id="path4812" transform="matrix(0.24,0,0,0.239999,0,0)"><path d="M1795.58,1748.48L1836.79,1704.33L1922.15,1704.33L1904.49,1789.69L1866.23,1842.67L1795.58,1748.48Z" style="fill:rgb(164,164,164);fill-opacity:0.75;"/></g></svg>