none
1
   1.138650E+02   2.233400E+01
   1.138680E+02   2.242978E+01
   1.139478E+02   2.247330E+01
   1.139400E+02   2.249008E+01
   1.139399E+02   2.249503E+01
   1.139454E+02   2.249604E+01
   1.139454E+02   2.250007E+01
   1.139429E+02   2.250276E+01
   1.139429E+02   2.250401E+01
   1.139464E+02   2.250421E+01
   1.139968E+02   2.251117E+01
   1.140120E+02   2.250193E+01
   1.140252E+02   2.250720E+01
   1.140369E+02   2.250641E+01
   1.140445E+02   2.250465E+01
   1.140501E+02   2.250292E+01
   1.140537E+02   2.250340E+01
   1.140563E+02   2.250534E+01
   1.140573E+02   2.251115E+01
   1.140596E+02   2.251375E+01
   1.140636E+02   2.251678E+01
   1.140728E+02   2.251884E+01
   1.140745E+02   2.252084E+01
   1.140776E+02   2.252956E+01
   1.140798E+02   2.253123E+01
   1.140853E+02   2.253268E+01
   1.140882E+02   2.253630E+01
   1.140905E+02   2.253723E+01
   1.140936E+02   2.253696E+01
   1.140954E+02   2.253537E+01
   1.140971E+02   2.253442E+01
   1.141040E+02   2.253551E+01
   1.141081E+02   2.253369E+01
   1.141097E+02   2.253080E+01
   1.141113E+02   2.252985E+01
   1.141119E+02   2.252973E+01
   1.141128E+02   2.252986E+01
   1.141157E+02   2.253148E+01
   1.141162E+02   2.253394E+01
   1.141173E+02   2.253455E+01
   1.141199E+02   2.253502E+01
   1.141216E+02   2.253743E+01
   1.141230E+02   2.253857E+01
   1.141252E+02   2.253989E+01
   1.141264E+02   2.253995E+01
   1.141278E+02   2.253978E+01
   1.141289E+02   2.254046E+01
   1.141300E+02   2.254184E+01
   1.141311E+02   2.254213E+01
   1.141333E+02   2.254166E+01
   1.141346E+02   2.254179E+01
   1.141359E+02   2.254309E+01
   1.141376E+02   2.254367E+01
   1.141387E+02   2.254361E+01
   1.141399E+02   2.254302E+01
   1.141412E+02   2.254294E+01
   1.141422E+02   2.254216E+01
   1.141440E+02   2.254212E+01
   1.141446E+02   2.254121E+01
   1.141460E+02   2.254130E+01
   1.141483E+02   2.254186E+01
   1.141486E+02   2.254211E+01
   1.141486E+02   2.254233E+01
   1.141482E+02   2.254324E+01
   1.141487E+02   2.254420E+01
   1.141502E+02   2.254598E+01
   1.141506E+02   2.254632E+01
   1.141515E+02   2.254647E+01
   1.141518E+02   2.254687E+01
   1.141519E+02   2.254758E+01
   1.141516E+02   2.254804E+01
   1.141501E+02   2.254784E+01
   1.141497E+02   2.254811E+01
   1.141495E+02   2.254847E+01
   1.141495E+02   2.254893E+01
   1.141499E+02   2.255060E+01
   1.141503E+02   2.255090E+01
   1.141512E+02   2.255121E+01
   1.141516E+02   2.255179E+01
   1.141516E+02   2.255286E+01
   1.141519E+02   2.255466E+01
   1.141523E+02   2.255487E+01
   1.141547E+02   2.255440E+01
   1.141549E+02   2.255443E+01
   1.141556E+02   2.255512E+01
   1.141567E+02   2.255512E+01
   1.141582E+02   2.255894E+01
   1.141590E+02   2.255968E+01
   1.141602E+02   2.256144E+01
   1.141613E+02   2.256203E+01
   1.141620E+02   2.256175E+01
   1.141624E+02   2.256137E+01
   1.141633E+02   2.255938E+01
   1.141637E+02   2.255919E+01
   1.141651E+02   2.255929E+01
   1.141670E+02   2.256107E+01
   1.141676E+02   2.256131E+01
   1.141689E+02   2.256124E+01
   1.141693E+02   2.256105E+01
   1.141702E+02   2.255992E+01
   1.141706E+02   2.255973E+01
   1.141733E+02   2.255968E+01
   1.141758E+02   2.256012E+01
   1.141773E+02   2.255973E+01
   1.141775E+02   2.255936E+01
   1.141777E+02   2.255808E+01
   1.141779E+02   2.255575E+01
   1.141809E+02   2.255434E+01
   1.141812E+02   2.255526E+01
   1.141816E+02   2.255553E+01
   1.141849E+02   2.255517E+01
   1.141863E+02   2.255480E+01
   1.141869E+02   2.255486E+01
   1.141874E+02   2.255566E+01
   1.141880E+02   2.255570E+01
   1.141885E+02   2.255551E+01
   1.141890E+02   2.255448E+01
   1.141898E+02   2.255444E+01
   1.141904E+02   2.255462E+01
   1.141908E+02   2.255514E+01
   1.141920E+02   2.255604E+01
   1.141925E+02   2.255603E+01
   1.141935E+02   2.255567E+01
   1.141949E+02   2.255570E+01
   1.141957E+02   2.255644E+01
   1.141961E+02   2.255710E+01
   1.141967E+02   2.255715E+01
   1.141976E+02   2.255674E+01
   1.142003E+02   2.255773E+01
   1.142012E+02   2.255759E+01
   1.142015E+02   2.255683E+01
   1.142019E+02   2.255648E+01
   1.142035E+02   2.255641E+01
   1.142069E+02   2.255661E+01
   1.142086E+02   2.255704E+01
   1.142115E+02   2.255657E+01
   1.142137E+02   2.255526E+01
   1.142151E+02   2.255506E+01
   1.142159E+02   2.255540E+01
   1.142165E+02   2.255519E+01
   1.142168E+02   2.255536E+01
   1.142170E+02   2.255592E+01
   1.142179E+02   2.255609E+01
   1.142194E+02   2.255481E+01
   1.142198E+02   2.255379E+01
   1.142204E+02   2.255375E+01
   1.142209E+02   2.255309E+01
   1.142209E+02   2.255238E+01
   1.142215E+02   2.255169E+01
   1.142221E+02   2.255158E+01
   1.142233E+02   2.255104E+01
   1.142244E+02   2.255102E+01
   1.142261E+02   2.254856E+01
   1.142270E+02   2.254805E+01
   1.142267E+02   2.254701E+01
   1.142257E+02   2.254596E+01
   1.142254E+02   2.254529E+01
   1.142261E+02   2.254429E+01
   1.142267E+02   2.254391E+01
   1.142284E+02   2.254393E+01
   1.142322E+02   2.254449E+01
   1.142369E+02   2.255148E+01
   1.142758E+02   2.256605E+01
   1.143089E+02   2.256706E+01
   1.143328E+02   2.256904E+01
   1.144344E+02   2.256306E+01
   1.144563E+02   2.254530E+01
   1.145060E+02   2.236700E+01
   1.145053E+02   2.214497E+01
   1.142560E+02   2.213500E+01
   1.139122E+02   2.213041E+01
   1.138300E+02   2.218000E+01
   1.138130E+02   2.221900E+01
   1.138360E+02   2.227100E+01
   1.138472E+02   2.227420E+01
   1.138650E+02   2.233400E+01
END
END
