<?xml version="1.0" encoding="UTF-8" standalone="no"?>
<svg xmlns="http://www.w3.org/2000/svg" version="1.0" width="580" height="580">
 <metadata id="metadata2975"/>
 <path d="M 462.69727 83.894531 C 462.12905 83.903101 461.5625 83.9375 461 84 C 346 85 231 83 116 85 C 104 88.1 98.799219 102.2 100.69922 113.5 C 101.99922 195.5 99.6 277.5 102 359.5 C 103.64863 364.57605 107.25585 368.3148 111.70898 370.73438 L 112 480 C 112 485 116 490 122 490 L 138 490 C 143 490 148 485 148 480 L 148 373.4668 C 244.43005 373.2526 341.51272 374.04302 438 373.20898 L 438 481 C 438 487 443 491 448 491 L 465 491 C 470 491 475 487 475 481 L 475 369.39453 C 482.26398 363.61034 485.15852 352.83481 483.19922 343.90039 C 482.79922 261.90039 484.10039 180.90039 482.40039 98.900391 C 480.15039 89.619141 471.22046 83.765991 462.69727 83.894531 z " id="path4138" mix-blend-mode="normal" solid-color="#000000" opacity="0.8" color-interpolation-filters="linearRGB" filter-gaussianBlur-deviation="0" color="#000000" image-rendering="auto" color-rendering="auto" stroke-width="64" isolation="auto" color-interpolation="sRGB" solid-opacity="1" fill="none" stroke-linejoin="round" filter-blend-mode="normal" stroke="#ffffff" shape-rendering="auto"/>
 <path d="m 100.7,113.5 c 1.3,82 -1.1,164 1.3,246 3.8,11.7 18,16.3 29,14 112,-0.4 225,0.8 337,-0.6 12.3,-3.2 17.7,-17.6 15.2,-29 -0.4,-82 0.9,-163 -0.8,-245 C 480,89 470,83 461,84 346,85 231,83 116,85 c -12,3.1 -17.2,17.2 -15.3,28.5 z" id="rect3018-6-8" opacity="0.8" fill="#734a08" color="#000000"/>
 <path d="m 284,101 c -19,25 -37,50 -55,76 -5,3 -5,13 3,12 13,-4 24,-10 37,-14 -1,9 -1,27 -1,49 5,6 36,6 41,-1 l 0,-49 c 11,4 22,9 33,13 7,5 13,-4 8,-9 -18,-25 -35,-51 -54,-76 -1,-3 -4,-5 -6,-5 -2,0 -5,1 -6,4 z m 26,146 c -1,17 -1,34 -1,52 -16,-17 -32,-33 -49,-49 -9,-11 -25,-12 -24,-1 -2,34 0,71 0,105 0,8 27,10 32,1 1,-18 0,-36 1,-53 18,18 47,60 60,58 5,1 10,0 13,-4 0,-36 0,-73 -1,-110 0,-3 -8,-5 -15,-5 -8,0 -16,2 -16,6 z" id="path3005" fill="#ffffff"/>
 <path d="m 438,102 0,379 c 0,6 5,10 10,10 l 17,0 c 5,0 10,-4 10,-10 l 0,-379 c 0,-5 -5,-10 -11,-10 l -16,0 c -5,0 -10,5 -10,10 z m -327,2 1,376 c 0,5 4,10 10,10 l 16,0 c 5,0 10,-5 10,-10 l 0,-376 c 0,-6 -5,-10 -10,-10 l -17,0 c -5,0 -10,4 -10,10 z" id="path2459-9" isolation="auto" white-space="normal" mix-blend-mode="normal" fill="#734a08" color-rendering="auto" solid-opacity="1" color-interpolation-filters="linearRGB" shape-rendering="auto" fill-rule="evenodd" image-rendering="auto" color-interpolation="sRGB" color="#000000" solid-color="#000000"/>
</svg>
