<?xml version="1.0" encoding="UTF-8" standalone="no"?>
<!DOCTYPE svg PUBLIC "-//W3C//DTD SVG 1.1//EN" "http://www.w3.org/Graphics/SVG/1.1/DTD/svg11.dtd">
<svg width="100%" height="100%" viewBox="0 0 512 512" version="1.1" xmlns="http://www.w3.org/2000/svg" xmlns:xlink="http://www.w3.org/1999/xlink" xml:space="preserve" xmlns:serif="http://www.serif.com/" style="fill-rule:evenodd;clip-rule:evenodd;stroke-linejoin:round;stroke-miterlimit:1.41421;">
    <path d="M495.48,79.566L457.942,79.566L457.942,208.713L472.95,208.713L472.95,268.015L444.421,268.015L444.421,72.067C444.432,32.262 412.16,0 372.355,0L135.113,0C95.319,0 63.046,32.262 63.046,72.067L63.046,264.26L38.272,264.26L38.272,201.181L54.036,201.181L54.036,72.067L16.509,72.067L16.509,201.181L32.273,201.181L32.273,270.281L63.046,270.281L63.046,411.426C63.046,438.689 78.221,462.452 100.585,474.683L100.585,511.989L163.642,511.989L163.642,483.482L342.315,483.482L342.315,512L405.394,512L405.394,475.406C428.568,463.452 444.421,439.289 444.421,411.415L444.421,274.003L478.961,274.003L478.961,208.702L495.48,208.702L495.48,79.566ZM171.163,14.998L339.315,14.998L339.315,54.058L171.163,54.058L171.163,14.998ZM189.171,408.405L96.085,408.405L96.085,366.389L189.171,366.389L189.171,408.405ZM414.393,408.405L321.307,408.405L321.307,366.389L414.393,366.389L414.393,408.405ZM414.393,273.27C414.393,273.27 396.373,330.339 252.239,330.339C108.084,330.339 93.064,273.27 93.064,273.27L93.064,75.055L414.393,75.055L414.393,273.27Z" style="fill:rgb(147,62,197);fill-rule:nonzero;stroke:white;stroke-width:33px;"/>
    <path d="M495.48,79.566L457.942,79.566L457.942,208.713L472.95,208.713L472.95,268.015L444.421,268.015L444.421,72.067C444.432,32.262 412.16,0 372.355,0L135.113,0C95.319,0 63.046,32.262 63.046,72.067L63.046,264.26L38.272,264.26L38.272,201.181L54.036,201.181L54.036,72.067L16.509,72.067L16.509,201.181L32.273,201.181L32.273,270.281L63.046,270.281L63.046,411.426C63.046,438.689 78.221,462.452 100.585,474.683L100.585,511.989L163.642,511.989L163.642,483.482L342.315,483.482L342.315,512L405.394,512L405.394,475.406C428.568,463.452 444.421,439.289 444.421,411.415L444.421,274.003L478.961,274.003L478.961,208.702L495.48,208.702L495.48,79.566ZM171.163,14.998L339.315,14.998L339.315,54.058L171.163,54.058L171.163,14.998ZM189.171,408.405L96.085,408.405L96.085,366.389L189.171,366.389L189.171,408.405ZM414.393,408.405L321.307,408.405L321.307,366.389L414.393,366.389L414.393,408.405ZM414.393,273.27C414.393,273.27 396.373,330.339 252.239,330.339C108.084,330.339 93.064,273.27 93.064,273.27L93.064,75.055L414.393,75.055L414.393,273.27Z" style="fill:rgb(149,39,110);fill-rule:nonzero;"/>
</svg>
