<?xml version="1.0" encoding="UTF-8" standalone="no"?>
<!DOCTYPE svg PUBLIC "-//W3C//DTD SVG 1.1//EN" "http://www.w3.org/Graphics/SVG/1.1/DTD/svg11.dtd">
<svg width="100%" height="100%" viewBox="0 0 180 173" version="1.1" xmlns="http://www.w3.org/2000/svg" xmlns:xlink="http://www.w3.org/1999/xlink" xml:space="preserve" xmlns:serif="http://www.serif.com/" style="fill-rule:evenodd;clip-rule:evenodd;stroke-linejoin:round;stroke-miterlimit:1.41421;">
    <g id="path3255" transform="matrix(5.65341,0,0,-5.65341,116.514,82.3843)">
        <path d="M0,0L1.801,-9.221L-5.428,-9.221L-6.582,-3.335L-6.578,-3.337L-4.125,-1.941L-18.875,-1.941L-18.631,-1.456L-13.897,-1.456L-9.169,7.765L-3.019,7.765L-4.898,4.087L-10.499,0.485L7.303,0.485L7.06,0L0,0ZM9.495,7.523L1.508,2.18L-5.896,2.18L2.094,7.523L9.495,7.523ZM-8.775,-3.505L-11.693,-9.221L-17.843,-9.221L-14.924,-3.505L-8.775,-3.505Z" style="fill:rgb(0,82,150);stroke:white;stroke-width:2.83px;"/>
    </g>
    <g id="path32551" serif:id="path3255" transform="matrix(5.65341,0,0,-5.65341,116.514,82.3843)">
        <path d="M0,0L1.801,-9.221L-5.428,-9.221L-6.582,-3.335L-6.578,-3.337L-4.125,-1.941L-18.875,-1.941L-18.631,-1.456L-13.897,-1.456L-9.169,7.765L-3.019,7.765L-4.898,4.087L-10.499,0.485L7.303,0.485L7.06,0L0,0ZM9.495,7.523L1.508,2.18L-5.896,2.18L2.094,7.523L9.495,7.523ZM-8.775,-3.505L-11.693,-9.221L-17.843,-9.221L-14.924,-3.505L-8.775,-3.505Z" style="fill:rgb(0,82,150);"/>
    </g>
</svg>
