<?xml version="1.0" encoding="UTF-8" standalone="no"?>
<svg xmlns="http://www.w3.org/2000/svg" width="580" height="580" version="1.0">
 <metadata id="metadata3003"/>
 <path d="m 97,228.9 c 0,7.2 5.1,15.7 11.5,19 l 34.8,18 c 6.5,74 71,96 112,58 l 44,23 c 6.5,89 95,87 115,59 l 55,28.7 c 6.4,3.3 11.5,0.2 11.5,-7 l 0,-216 c 0,-7.2 -5.1,-15.7 -11.5,-19 L 108,5.9 c -7,-3.3 -11,1.5 -11,7 z" id="wheel"/>
 <path transform="matrix(0.88737001,0.46105798,0,1,0,0)" d="m 242,-29.4 c 3.6,0 6.5,2.9 6.5,6.5 l 0,108 c 0,3.6 -2.9,6.5 -6.5,6.5 l -79,0 c -3.6,0 -6.5,-2.9 -6.5,-6.5 l 0,-108 c 0,-3.6 2.9,-6.5 6.5,-6.5 z" id="window" opacity="0.7" fill="#ffffff"/>
 <path transform="matrix(0.88737001,0.46105798,0,1,0,0)" d="m 365,-28.4 c 3.6,0 6.5,2.9 6.5,6.5 l 0,108 c 0,3.6 -2.9,6.5 -6.5,6.5 l -79,0 c -3.6,0 -6.5,-2.9 -6.5,-6.5 l 0,-108 c 0,-3.6 2.9,-6.5 6.5,-6.5 z" id="rect12" opacity="0.7" fill="#ffffff"/>
 <path transform="matrix(0.88737001,0.46105798,0,1,0,0)" d="m 489,-27.4 c 3.6,0 6.5,2.9 6.5,6.5 l 0,108 c 0,3.6 -2.9,6.5 -6.5,6.5 l -79,0 c -3.6,0 -6.5,-2.9 -6.5,-6.5 l 0,-108 c 0,-3.6 2.9,-6.5 6.5,-6.5 z" id="rect14" opacity="0.7" fill="#ffffff"/>
</svg>
