<?xml version="1.0" encoding="UTF-8" standalone="no"?>
<!DOCTYPE svg PUBLIC "-//W3C//DTD SVG 1.1//EN" "http://www.w3.org/Graphics/SVG/1.1/DTD/svg11.dtd">
<svg width="100%" height="100%" viewBox="0 0 580 580" version="1.1" xmlns="http://www.w3.org/2000/svg" xmlns:xlink="http://www.w3.org/1999/xlink" xml:space="preserve" xmlns:serif="http://www.serif.com/" style="fill-rule:evenodd;clip-rule:evenodd;stroke-linejoin:round;">
    <path id="path4165" d="M382.2,74.2C407.5,92.1 421.2,120 419.2,149.2C417.2,178 399.5,204.1 372.2,219C369.2,220.6 371.9,224.6 374.9,223C403.9,207.3 422.5,180 424.7,149C426.8,118.6 412.2,89.3 385.7,70C382.9,68.7 379.9,72.5 382.2,74.2" style="fill:none;stroke:white;stroke-opacity:0.8;stroke-width:64px;"/>
    <path id="path4167" d="M180.2,149.7C182.3,180.1 200.9,207.5 230,223.7C233,225.4 235.8,221.3 232.7,219.7C205.1,204.8 187.7,178.7 185.7,149.9C183.7,121.1 197.5,93.2 222.7,74.9C224.4,71.8 222,69.6 219.2,70.7C192.6,89.6 178.2,118.7 180.2,149.7Z" style="fill:none;stroke:white;stroke-opacity:0.8;stroke-width:64px;"/>
    <path id="path4169" d="M369.4,143.6C368.4,156.6 359.7,168.5 346.4,175.3C343.3,176.8 346.1,180.7 349.1,179C364.1,171.5 373.7,158.3 374.8,144C375.9,129.5 368.4,115.4 354.8,106.4C352.2,104.7 348.8,108 351.2,109.7C363.6,117.8 370.2,130.5 369.4,143.6Z" style="fill:none;stroke:white;stroke-opacity:0.8;stroke-width:64px;"/>
    <path id="path4171" d="M232,144.6C233.1,159.1 242.7,172.3 257.7,179.6C260.7,181.2 263.5,177.4 260.4,175.9C246.9,169.1 238.4,157.3 237.4,144.2C236.4,131.2 243.2,118.4 255.6,110.3C257.3,107 254.7,105.9 252,107C238.3,116 230.7,130 232,144.6Z" style="fill:none;stroke:white;stroke-opacity:0.8;stroke-width:64px;"/>
    <path id="path4154" d="M382.2,74.2C407.5,92.1 421.2,120 419.2,149.2C417.2,178 399.5,204.1 372.2,219C369.2,220.6 371.9,224.6 374.9,223C403.9,207.3 422.5,180 424.7,149C426.8,118.6 412.2,89.3 385.7,70C382.9,68.7 379.9,72.5 382.2,74.2" style="fill-rule:nonzero;"/>
    <path id="path4152" d="M180.2,149.7C182.3,180.1 200.9,207.5 230,223.7C233,225.4 235.8,221.3 232.7,219.7C205.1,204.8 187.7,178.7 185.7,149.9C183.7,121.1 197.5,93.2 222.7,74.9C224.4,71.8 222,69.6 219.2,70.7C192.6,89.6 178.2,118.7 180.2,149.7Z" style="fill-rule:nonzero;"/>
    <path id="path4150" d="M369.4,143.6C368.4,156.6 359.7,168.5 346.4,175.3C343.3,176.8 346.1,180.7 349.1,179C364.1,171.5 373.7,158.3 374.8,144C375.9,129.5 368.4,115.4 354.8,106.4C352.2,104.7 348.8,108 351.2,109.7C363.6,117.8 370.2,130.5 369.4,143.6Z" style="fill-rule:nonzero;"/>
    <path id="path4148" d="M232,144.6C233.1,159.1 242.7,172.3 257.7,179.6C260.7,181.2 263.5,177.4 260.4,175.9C246.9,169.1 238.4,157.3 237.4,144.2C236.4,131.2 243.2,118.4 255.6,110.3C257.3,107 254.7,105.9 252,107C238.3,116 230.7,130 232,144.6Z" style="fill-rule:nonzero;"/>
    <path id="path4146" d="M303.563,120.59C303.191,120.584 302.82,120.587 302.449,120.6C288.499,120.5 276.901,130 276.801,141.6C276.701,150.3 282.901,157.799 291.801,161.199C289.483,228.708 289.289,516.075 290,522.18C291.042,531.131 313.14,530.308 313.011,522.18C311.719,440.866 314.847,272.025 310,161C319.5,157.9 326.3,150.301 326.5,141.301L326.5,141.199L326.5,141.1C326.984,129.571 315.08,120.765 303.563,120.59Z" style="fill-rule:nonzero;stroke:white;stroke-width:64px;stroke-miterlimit:1.41421;"/>
    <path id="path41461" serif:id="path4146" d="M303.563,120.59C303.191,120.584 302.82,120.587 302.449,120.6C288.499,120.5 276.901,130 276.801,141.6C276.701,150.3 282.901,157.799 291.801,161.199C289.483,228.708 289.289,509.554 290,515.659C291.042,524.61 313.066,524.019 312.937,515.89C311.645,434.576 314.847,272.025 310,161C319.5,157.9 326.3,150.301 326.5,141.301L326.5,141.199L326.5,141.1C326.984,129.571 315.08,120.765 303.563,120.59Z" style="fill-rule:nonzero;"/>
</svg>
