<?xml version="1.0" encoding="UTF-8" standalone="no"?>
<!DOCTYPE svg PUBLIC "-//W3C//DTD SVG 1.1//EN" "http://www.w3.org/Graphics/SVG/1.1/DTD/svg11.dtd">
<svg width="100%" height="100%" viewBox="0 0 512 512" version="1.1" xmlns="http://www.w3.org/2000/svg" xmlns:xlink="http://www.w3.org/1999/xlink" xml:space="preserve" xmlns:serif="http://www.serif.com/" style="fill-rule:evenodd;clip-rule:evenodd;stroke-linejoin:round;stroke-miterlimit:1.41421;">
    <path d="M510.998,260.953C509.577,258.37 506.863,256.767 503.916,256.767L371.698,256.767L338.009,178.159C333.33,167.246 322.637,160.195 310.766,160.195L277.879,160.195L277.879,117.047C277.879,112.583 274.261,108.964 269.796,108.964C265.331,108.964 261.712,112.583 261.712,117.047L261.712,160.195L214.613,160.195C210.149,160.195 206.53,163.814 206.53,168.279L206.53,187.787L179.907,187.787L167.368,122.358C166.638,118.549 163.307,115.796 159.429,115.796L90.449,115.796C88.039,115.796 85.754,116.872 84.219,118.73C82.683,120.588 82.056,123.035 82.51,125.401L94.465,187.787L72.712,187.787C68.69,187.787 65.278,190.745 64.709,194.727L55.846,256.766L8.084,256.766C5.65,256.766 3.346,257.864 1.811,259.752C0.276,261.64 -0.327,264.12 0.171,266.503L8.807,307.835C8.811,307.859 8.816,307.881 8.821,307.905L21.979,370.883C25.871,389.513 42.51,403.035 61.542,403.035L397.817,403.035C415.464,403.035 431.635,394.134 441.074,379.224L510.745,269.175C512.322,266.685 512.418,263.535 510.998,260.953ZM152.747,131.964L154.746,142.392C154.666,142.39 154.587,142.38 154.506,142.38L104.245,142.38C103.564,142.38 102.905,142.474 102.273,142.632L100.228,131.964L152.747,131.964ZM105.323,158.547L154.506,158.547C155.647,158.547 156.73,158.309 157.714,157.882L163.445,187.788L110.928,187.788L105.323,158.547ZM427.415,370.576C420.957,380.777 409.893,386.867 397.819,386.867L61.543,386.867C50.123,386.867 40.141,378.754 37.805,367.576L26.679,314.321L435.347,314.321C439.812,314.321 443.43,310.702 443.43,306.238C443.43,301.773 439.812,298.154 435.347,298.154L23.3,298.154L18.031,272.933L62.852,272.933C62.858,272.933 62.862,272.934 62.867,272.934C62.875,272.934 62.882,272.933 62.89,272.933L331.984,272.933C336.449,272.933 340.068,269.314 340.068,264.85C340.068,260.386 336.449,256.766 331.984,256.766L72.178,256.766L79.723,203.954L173.18,203.954C173.192,203.954 173.204,203.955 173.216,203.955C173.227,203.955 173.239,203.954 173.249,203.954L214.612,203.954C219.077,203.954 222.696,200.335 222.696,195.87L222.696,176.362L310.765,176.362C316.162,176.362 321.023,179.568 323.148,184.528L330.381,201.405L254.782,201.405C247.804,201.405 242.666,207.933 244.306,214.715L247.179,226.602C248.349,231.44 252.678,234.848 257.656,234.848L344.714,234.848L358.905,267.961C359.057,268.325 359.241,268.671 359.442,269.005C359.483,269.073 359.523,269.142 359.566,269.207C359.752,269.496 359.952,269.775 360.173,270.038C360.225,270.1 360.281,270.155 360.334,270.215C360.518,270.422 360.712,270.618 360.916,270.805C360.986,270.868 361.052,270.934 361.125,270.994C361.379,271.212 361.646,271.415 361.927,271.6C361.978,271.634 362.031,271.663 362.083,271.695C362.339,271.856 362.607,272.002 362.882,272.134C362.94,272.162 362.997,272.191 363.055,272.218C363.375,272.362 363.705,272.488 364.047,272.591C364.082,272.601 364.118,272.608 364.153,272.618C364.448,272.702 364.749,272.766 365.055,272.817C365.148,272.832 365.24,272.847 365.332,272.859C365.646,272.899 365.963,272.925 366.286,272.928C366.314,272.928 366.342,272.934 366.371,272.934C366.385,272.934 366.399,272.932 366.413,272.932L489.23,272.932L427.415,370.576Z" style="fill:rgb(0,128,192);fill-rule:nonzero;stroke:white;stroke-width:24px;"/>
    <path d="M510.998,260.953C509.577,258.37 506.863,256.767 503.916,256.767L371.698,256.767L338.009,178.159C333.33,167.246 322.637,160.195 310.766,160.195L277.879,160.195L277.879,117.047C277.879,112.583 274.261,108.964 269.796,108.964C265.331,108.964 261.712,112.583 261.712,117.047L261.712,160.195L214.613,160.195C210.149,160.195 206.53,163.814 206.53,168.279L206.53,187.787L179.907,187.787L167.368,122.358C166.638,118.549 163.307,115.796 159.429,115.796L90.449,115.796C88.039,115.796 85.754,116.872 84.219,118.73C82.683,120.588 82.056,123.035 82.51,125.401L94.465,187.787L72.712,187.787C68.69,187.787 65.278,190.745 64.709,194.727L55.846,256.766L8.084,256.766C5.65,256.766 3.346,257.864 1.811,259.752C0.276,261.64 -0.327,264.12 0.171,266.503L8.807,307.835C8.811,307.859 8.816,307.881 8.821,307.905L21.979,370.883C25.871,389.513 42.51,403.035 61.542,403.035L397.817,403.035C415.464,403.035 431.635,394.134 441.074,379.224L510.745,269.175C512.322,266.685 512.418,263.535 510.998,260.953ZM152.747,131.964L154.746,142.392C154.666,142.39 154.587,142.38 154.506,142.38L104.245,142.38C103.564,142.38 102.905,142.474 102.273,142.632L100.228,131.964L152.747,131.964ZM105.323,158.547L154.506,158.547C155.647,158.547 156.73,158.309 157.714,157.882L163.445,187.788L110.928,187.788L105.323,158.547ZM427.415,370.576C420.957,380.777 409.893,386.867 397.819,386.867L61.543,386.867C50.123,386.867 40.141,378.754 37.805,367.576L26.679,314.321L435.347,314.321C439.812,314.321 443.43,310.702 443.43,306.238C443.43,301.773 439.812,298.154 435.347,298.154L23.3,298.154L18.031,272.933L62.852,272.933C62.858,272.933 62.862,272.934 62.867,272.934C62.875,272.934 62.882,272.933 62.89,272.933L331.984,272.933C336.449,272.933 340.068,269.314 340.068,264.85C340.068,260.386 336.449,256.766 331.984,256.766L72.178,256.766L79.723,203.954L173.18,203.954C173.192,203.954 173.204,203.955 173.216,203.955C173.227,203.955 173.239,203.954 173.249,203.954L214.612,203.954C219.077,203.954 222.696,200.335 222.696,195.87L222.696,176.362L310.765,176.362C316.162,176.362 321.023,179.568 323.148,184.528L330.381,201.405L254.782,201.405C247.804,201.405 242.666,207.933 244.306,214.715L247.179,226.602C248.349,231.44 252.678,234.848 257.656,234.848L344.714,234.848L358.905,267.961C359.057,268.325 359.241,268.671 359.442,269.005C359.483,269.073 359.523,269.142 359.566,269.207C359.752,269.496 359.952,269.775 360.173,270.038C360.225,270.1 360.281,270.155 360.334,270.215C360.518,270.422 360.712,270.618 360.916,270.805C360.986,270.868 361.052,270.934 361.125,270.994C361.379,271.212 361.646,271.415 361.927,271.6C361.978,271.634 362.031,271.663 362.083,271.695C362.339,271.856 362.607,272.002 362.882,272.134C362.94,272.162 362.997,272.191 363.055,272.218C363.375,272.362 363.705,272.488 364.047,272.591C364.082,272.601 364.118,272.608 364.153,272.618C364.448,272.702 364.749,272.766 365.055,272.817C365.148,272.832 365.24,272.847 365.332,272.859C365.646,272.899 365.963,272.925 366.286,272.928C366.314,272.928 366.342,272.934 366.371,272.934C366.385,272.934 366.399,272.932 366.413,272.932L489.23,272.932L427.415,370.576Z" style="fill:rgb(0,109,240);fill-rule:nonzero;"/>
</svg>
