<?xml version="1.0" encoding="UTF-8" standalone="no"?>
<svg xmlns="http://www.w3.org/2000/svg" version="1.0" width="580" height="580">
 <metadata id="metadata15"/>
 <path d="M 543.56512,290 A 253.56512,253.56512 0 0 1 290,543.56512 253.56512,253.56512 0 0 1 36.434876,290 253.56512,253.56512 0 0 1 290,36.434876 253.56512,253.56512 0 0 1 543.56512,290 Z" id="path4145" mix-blend-mode="normal" solid-color="#000000" opacity="0.8" color-interpolation-filters="linearRGB" filter-gaussianBlur-deviation="0" color="#000000" image-rendering="auto" color-rendering="auto" stroke-width="64" isolation="auto" color-interpolation="sRGB" solid-opacity="1" fill="none" stroke-linejoin="round" filter-blend-mode="normal" stroke="#ffffff" shape-rendering="auto"/>
 <circle r="254" cy="290" cx="290" id="path3267-1" fill="#ffffff"/>
 <path id="path3267" d="M 543.56512,290 A 253.56512,253.56512 0 0 1 290,543.56512 253.56512,253.56512 0 0 1 36.434876,290 253.56512,253.56512 0 0 1 290,36.434876 253.56512,253.56512 0 0 1 543.56512,290 Z" fill="#734a08"/>
 <path d="M 160.98828 106.18945 L 160.98828 142.31836 L 124.76562 142.31836 L 124.76562 163.96094 L 160.98828 163.96094 L 160.98828 297.70898 L 128.94531 297.70898 L 128.94531 340.99219 L 150.58594 340.99219 L 150.58594 466.38086 L 380.00195 466.38086 L 380.00195 340.99219 L 405.91602 340.99219 L 405.91602 297.70898 L 375.63672 297.70898 L 375.63672 163.96094 L 411.48828 163.96094 L 411.48828 252.19727 L 433.12891 252.19727 L 433.12891 246.25391 L 500.74609 246.25391 L 500.32812 224.79688 L 432.29297 224.98242 L 432.29297 142.31836 L 374.80078 142.31836 L 374.80078 107.95312 L 345.35742 107.95312 L 345.35742 142.31836 L 304.49023 142.31836 L 304.49023 126.90039 L 238.73047 126.90039 L 238.73047 142.31836 L 190.43164 142.31836 L 190.43164 106.18945 L 160.98828 106.18945 z M 238.82227 163.31055 L 238.82227 172.13477 L 245.97461 172.13477 L 245.97461 297.52344 L 190.24609 297.52344 L 190.38477 163.54297 L 238.82227 163.31055 z M 303.56055 163.31055 L 344.42773 163.31055 L 344.42773 297.05859 C 320.17684 297.91824 284.15488 297.52344 256.19141 297.52344 L 256.19141 172.13477 L 303.56055 172.13477 L 303.56055 163.31055 z " id="path4140" fill="#ffffff"/>
</svg>
