<?xml version="1.0" encoding="UTF-8" standalone="no"?>
<svg xmlns="http://www.w3.org/2000/svg" version="1.1" width="24" height="24" viewBox="0 0 24 24" enable-background="new 0 0 24 24">
 <metadata id="metadata12"/>
 <g id="g4148" transform="translate(-71.71677,-39.90559)">
  <path d="m 83.716768,63.90559 c -6.599992,0 -11.999998,-5.399946 -11.999998,-12.000002 0,-6.599992 5.400006,-11.999998 11.999998,-11.999998 6.600056,0 12.000002,5.400006 12.000002,11.999998 0,6.600056 -5.399946,12.000002 -12.000002,12.000002 l 0,0 z" id="path4145" fill="#ffffff"/>
  <path d="m 83.716768,40.880589 c -6.07499,0 -11.024996,4.950009 -11.024996,11.024999 0,6.075051 4.950006,11.024993 11.024996,11.024993 6.075051,0 11.024993,-4.949942 11.024993,-11.024993 0,-6.07499 -4.949942,-11.024999 -11.024993,-11.024999 z m 0,3.000005 c 4.425039,0 8.025069,3.599998 8.025069,8.024994 0,4.425039 -3.60003,8.025069 -8.025069,8.025069 -4.424996,0 -8.024994,-3.60003 -8.024994,-8.025069 0,-4.424996 3.599998,-8.024994 8.024994,-8.024994 z" id="path4147" fill="#ff0000"/>
 </g>
</svg>
