<?xml version="1.0" encoding="UTF-8" standalone="no"?>
<!DOCTYPE svg PUBLIC "-//W3C//DTD SVG 1.1//EN" "http://www.w3.org/Graphics/SVG/1.1/DTD/svg11.dtd">
<svg width="100%" height="100%" viewBox="0 0 462 461" version="1.1" xmlns="http://www.w3.org/2000/svg" xmlns:xlink="http://www.w3.org/1999/xlink" xml:space="preserve" xmlns:serif="http://www.serif.com/" style="fill-rule:evenodd;clip-rule:evenodd;stroke-linejoin:round;stroke-miterlimit:1.41421;">
    <path d="M251.6,199.9L459.5,199.9L458.4,192.6C441.9,91.5 360.7,13.3 259,0.8L251.6,0L251.6,42.1L258.3,42.9C322.3,52.3 377,93.9 403.3,153L405.9,159.2L251.6,159.2L251.6,145L251.7,143C252.3,137 256.2,131.4 261.5,128.6L263.4,127.8L299.6,113.6L299.6,72.1L299.5,70.6C299.1,67.6 296.9,64.8 294.2,63.6L292.8,63.1L285.7,61.2C249.7,52.5 212.1,52.4 176.1,61.2L169,63.1L167.6,63.6C164.8,64.8 162.7,67.6 162.3,70.6L162.2,72.1L162.2,113.6L198.4,127.8L200.2,128.6C206.2,131.7 210.2,138.3 210.1,145L210.1,159.2L55.5,159.2L58.1,153C84.4,93.8 139,52.4 203.1,42.9L209.8,42.1L209.8,0L202.5,0.8C100.9,13.3 19.5,91.5 3.1,192.6L2,199.9L209.8,199.9L209.8,229.8L0,229.8L0.1,237.2L0.5,244.6C8.4,363.4 104.4,456.4 223.4,460.4L230.8,460.5L238.2,460.4C357.1,456.4 453.3,363.4 461,244.6L461.4,237.2L461.5,229.8L251.6,229.8L251.6,199.9ZM415,271.4L413.4,277.9L411.6,284.3C388.3,361.6 318.1,415.7 237.4,418.5L230.7,418.6L224,418.5C143.3,415.7 73.2,361.7 49.9,284.3L48,277.9L46.4,271.4L209.7,271.4L209.7,293.5L209.6,295.5C208.6,303.3 203.2,309.5 195.5,311.5L105.7,333L104.4,333.4C101.3,334.6 99.1,337.4 98.6,340.7L98.5,342.1L98.5,362.3L362.6,362.3L362.6,342.1L362.5,340.7C362.1,337.5 359.8,334.5 356.7,333.4L355.4,333L265.6,311.5L263.6,310.9C257,308.6 252.2,302.5 251.5,295.5L251.4,293.5L251.4,271.4L415,271.4Z" style="fill:rgb(9,9,128);fill-rule:nonzero;stroke:white;stroke-width:32px;"/>
    <path d="M251.6,199.9L459.5,199.9L458.4,192.6C441.9,91.5 360.7,13.3 259,0.8L251.6,0L251.6,42.1L258.3,42.9C322.3,52.3 377,93.9 403.3,153L405.9,159.2L251.6,159.2L251.6,145L251.7,143C252.3,137 256.2,131.4 261.5,128.6L263.4,127.8L299.6,113.6L299.6,72.1L299.5,70.6C299.1,67.6 296.9,64.8 294.2,63.6L292.8,63.1L285.7,61.2C249.7,52.5 212.1,52.4 176.1,61.2L169,63.1L167.6,63.6C164.8,64.8 162.7,67.6 162.3,70.6L162.2,72.1L162.2,113.6L198.4,127.8L200.2,128.6C206.2,131.7 210.2,138.3 210.1,145L210.1,159.2L55.5,159.2L58.1,153C84.4,93.8 139,52.4 203.1,42.9L209.8,42.1L209.8,0L202.5,0.8C100.9,13.3 19.5,91.5 3.1,192.6L2,199.9L209.8,199.9L209.8,229.8L0,229.8L0.1,237.2L0.5,244.6C8.4,363.4 104.4,456.4 223.4,460.4L230.8,460.5L238.2,460.4C357.1,456.4 453.3,363.4 461,244.6L461.4,237.2L461.5,229.8L251.6,229.8L251.6,199.9ZM415,271.4L413.4,277.9L411.6,284.3C388.3,361.6 318.1,415.7 237.4,418.5L230.7,418.6L224,418.5C143.3,415.7 73.2,361.7 49.9,284.3L48,277.9L46.4,271.4L209.7,271.4L209.7,293.5L209.6,295.5C208.6,303.3 203.2,309.5 195.5,311.5L105.7,333L104.4,333.4C101.3,334.6 99.1,337.4 98.6,340.7L98.5,342.1L98.5,362.3L362.6,362.3L362.6,342.1L362.5,340.7C362.1,337.5 359.8,334.5 356.7,333.4L355.4,333L265.6,311.5L263.6,310.9C257,308.6 252.2,302.5 251.5,295.5L251.4,293.5L251.4,271.4L415,271.4Z" style="fill:rgb(9,9,128);fill-rule:nonzero;"/>
</svg>
