<?xml version="1.0" encoding="UTF-8" standalone="no"?>
<!DOCTYPE svg PUBLIC "-//W3C//DTD SVG 1.1//EN" "http://www.w3.org/Graphics/SVG/1.1/DTD/svg11.dtd">
<svg width="100%" height="100%" viewBox="0 0 512 512" version="1.1" xmlns="http://www.w3.org/2000/svg" xmlns:xlink="http://www.w3.org/1999/xlink" xml:space="preserve" xmlns:serif="http://www.serif.com/" style="fill-rule:evenodd;clip-rule:evenodd;stroke-linejoin:round;stroke-miterlimit:1.41421;">
    <g>
        <path d="M224,160C229.888,160 234.667,155.221 234.667,149.333L234.667,128C234.667,63.296 182.038,10.667 117.334,10.667C52.63,10.667 0,63.296 0,128L0,490.667C0,496.555 4.779,501.334 10.667,501.334C16.555,501.334 21.334,496.555 21.334,490.667L21.334,262.272L205.419,160L224,160ZM21.333,237.867L21.333,160L161.514,160L21.333,237.867Z" style="fill:rgb(0,109,240);fill-rule:nonzero;stroke:white;stroke-width:32px;"/>
        <path d="M501.333,245.333C495.445,245.333 490.666,250.112 490.666,256L490.666,234.667C490.666,205.27 466.73,181.334 437.333,181.334L266.667,181.334C237.27,181.334 213.334,205.27 213.334,234.667L213.334,256C213.334,250.112 208.555,245.333 202.667,245.333C196.779,245.333 192,250.112 192,256L192,341.333C192,347.221 196.779,352 202.667,352C208.555,352 213.334,347.221 213.334,341.333L213.334,469.333C213.334,475.221 218.113,480 224.001,480L234.668,480C234.668,491.755 244.247,501.333 256.001,501.333L277.334,501.333C289.089,501.333 298.667,491.754 298.667,480L405.334,480C405.334,491.755 414.913,501.333 426.667,501.333L448,501.333C459.755,501.333 469.333,491.754 469.333,480L480,480C485.888,480 490.667,475.221 490.667,469.333L490.667,341.333C490.667,347.221 495.446,352 501.334,352C507.222,352 512.001,347.221 512.001,341.333L512.001,256C512,250.112 507.221,245.333 501.333,245.333ZM288,224L416,224C421.888,224 426.667,228.779 426.667,234.667C426.667,240.555 421.888,245.334 416,245.334L288,245.334C282.112,245.334 277.333,240.555 277.333,234.667C277.333,228.779 282.112,224 288,224ZM448,405.333C448,411.221 443.221,416 437.333,416L266.667,416C260.779,416 256,411.221 256,405.333L256,277.333C256,271.445 260.779,266.666 266.667,266.666L437.334,266.666C443.222,266.666 448.001,271.445 448.001,277.333L448.001,405.333L448,405.333Z" style="fill:rgb(0,109,240);fill-rule:nonzero;stroke:white;stroke-width:32px;"/>
        <path d="M117.333,437.333L74.667,437.333C57.024,437.333 42.667,451.69 42.667,469.333L42.667,490.666C42.667,496.554 47.446,501.333 53.334,501.333C59.222,501.333 64,496.555 64,490.667L64,480L128,480L128,490.667C128,496.555 132.779,501.334 138.667,501.334C144.555,501.334 149.334,496.555 149.334,490.667L149.334,469.334C149.333,451.691 134.976,437.333 117.333,437.333Z" style="fill:rgb(0,109,240);fill-rule:nonzero;stroke:white;stroke-width:32px;"/>
    </g>
    <g>
        <path d="M224,160C229.888,160 234.667,155.221 234.667,149.333L234.667,128C234.667,63.296 182.038,10.667 117.334,10.667C52.63,10.667 0,63.296 0,128L0,490.667C0,496.555 4.779,501.334 10.667,501.334C16.555,501.334 21.334,496.555 21.334,490.667L21.334,262.272L205.419,160L224,160ZM21.333,237.867L21.333,160L161.514,160L21.333,237.867Z" style="fill:rgb(149,38,110);fill-rule:nonzero;"/>
        <path d="M501.333,245.333C495.445,245.333 490.666,250.112 490.666,256L490.666,234.667C490.666,205.27 466.73,181.334 437.333,181.334L266.667,181.334C237.27,181.334 213.334,205.27 213.334,234.667L213.334,256C213.334,250.112 208.555,245.333 202.667,245.333C196.779,245.333 192,250.112 192,256L192,341.333C192,347.221 196.779,352 202.667,352C208.555,352 213.334,347.221 213.334,341.333L213.334,469.333C213.334,475.221 218.113,480 224.001,480L234.668,480C234.668,491.755 244.247,501.333 256.001,501.333L277.334,501.333C289.089,501.333 298.667,491.754 298.667,480L405.334,480C405.334,491.755 414.913,501.333 426.667,501.333L448,501.333C459.755,501.333 469.333,491.754 469.333,480L480,480C485.888,480 490.667,475.221 490.667,469.333L490.667,341.333C490.667,347.221 495.446,352 501.334,352C507.222,352 512.001,347.221 512.001,341.333L512.001,256C512,250.112 507.221,245.333 501.333,245.333ZM288,224L416,224C421.888,224 426.667,228.779 426.667,234.667C426.667,240.555 421.888,245.334 416,245.334L288,245.334C282.112,245.334 277.333,240.555 277.333,234.667C277.333,228.779 282.112,224 288,224ZM448,405.333C448,411.221 443.221,416 437.333,416L266.667,416C260.779,416 256,411.221 256,405.333L256,277.333C256,271.445 260.779,266.666 266.667,266.666L437.334,266.666C443.222,266.666 448.001,271.445 448.001,277.333L448.001,405.333L448,405.333Z" style="fill:rgb(149,38,110);fill-rule:nonzero;"/>
        <path d="M117.333,437.333L74.667,437.333C57.024,437.333 42.667,451.69 42.667,469.333L42.667,490.666C42.667,496.554 47.446,501.333 53.334,501.333C59.222,501.333 64,496.555 64,490.667L64,480L128,480L128,490.667C128,496.555 132.779,501.334 138.667,501.334C144.555,501.334 149.334,496.555 149.334,490.667L149.334,469.334C149.333,451.691 134.976,437.333 117.333,437.333Z" style="fill:rgb(149,38,110);fill-rule:nonzero;"/>
    </g>
</svg>
