<?xml version="1.0" encoding="UTF-8" standalone="no"?>
<!DOCTYPE svg PUBLIC "-//W3C//DTD SVG 1.1//EN" "http://www.w3.org/Graphics/SVG/1.1/DTD/svg11.dtd">
<svg width="100%" height="100%" viewBox="0 0 358 264" version="1.1" xmlns="http://www.w3.org/2000/svg" xmlns:xlink="http://www.w3.org/1999/xlink" xml:space="preserve" xmlns:serif="http://www.serif.com/" style="fill-rule:evenodd;clip-rule:evenodd;stroke-linejoin:round;">
    <g id="Artboard1" transform="matrix(0.987654,0,0,0.89677,-123.288,-15.1962)">
        <rect x="124.829" y="16.945" width="361.914" height="293.316" style="fill:none;"/>
        <g id="path4165" transform="matrix(1.0125,0,0,1.11511,-0.452307,-0.228337)">
            <path d="M382.2,74.2C407.5,92.1 421.2,120 419.2,149.2C417.2,178 399.5,204.1 372.2,219C369.2,220.6 371.9,224.6 374.9,223C403.9,207.3 422.5,180 424.7,149C426.8,118.6 412.2,89.3 385.7,70C382.9,68.7 379.9,72.5 382.2,74.2" style="fill:none;stroke:white;stroke-opacity:0.8;stroke-width:64px;"/>
        </g>
        <g id="path4167" transform="matrix(1.0125,0,0,1.11511,-0.452307,-0.228337)">
            <path d="M180.2,149.7C182.3,180.1 200.9,207.5 230,223.7C233,225.4 235.8,221.3 232.7,219.7C205.1,204.8 187.7,178.7 185.7,149.9C183.7,121.1 197.5,93.2 222.7,74.9C224.4,71.8 222,69.6 219.2,70.7C192.6,89.6 178.2,118.7 180.2,149.7Z" style="fill:none;stroke:white;stroke-opacity:0.8;stroke-width:64px;"/>
        </g>
        <g id="path4169" transform="matrix(1.0125,0,0,1.11511,-0.452307,-0.228337)">
            <path d="M369.4,143.6C368.4,156.6 359.7,168.5 346.4,175.3C343.3,176.8 346.1,180.7 349.1,179C364.1,171.5 373.7,158.3 374.8,144C375.9,129.5 368.4,115.4 354.8,106.4C352.2,104.7 348.8,108 351.2,109.7C363.6,117.8 370.2,130.5 369.4,143.6Z" style="fill:none;stroke:white;stroke-opacity:0.8;stroke-width:64px;"/>
        </g>
        <g id="path4171" transform="matrix(1.0125,0,0,1.11511,-0.452307,-0.228337)">
            <path d="M232,144.6C233.1,159.1 242.7,172.3 257.7,179.6C260.7,181.2 263.5,177.4 260.4,175.9C246.9,169.1 238.4,157.3 237.4,144.2C236.4,131.2 243.2,118.4 255.6,110.3C257.3,107 254.7,105.9 252,107C238.3,116 230.7,130 232,144.6Z" style="fill:none;stroke:white;stroke-opacity:0.8;stroke-width:64px;"/>
        </g>
        <g id="path4154" transform="matrix(1.0125,0,0,1.11511,-0.452307,-0.228337)">
            <path d="M382.2,74.2C407.5,92.1 421.2,120 419.2,149.2C417.2,178 399.5,204.1 372.2,219C369.2,220.6 371.9,224.6 374.9,223C403.9,207.3 422.5,180 424.7,149C426.8,118.6 412.2,89.3 385.7,70C382.9,68.7 379.9,72.5 382.2,74.2" style="fill-rule:nonzero;"/>
        </g>
        <g id="path4152" transform="matrix(1.0125,0,0,1.11511,-0.452307,-0.228337)">
            <path d="M180.2,149.7C182.3,180.1 200.9,207.5 230,223.7C233,225.4 235.8,221.3 232.7,219.7C205.1,204.8 187.7,178.7 185.7,149.9C183.7,121.1 197.5,93.2 222.7,74.9C224.4,71.8 222,69.6 219.2,70.7C192.6,89.6 178.2,118.7 180.2,149.7Z" style="fill-rule:nonzero;"/>
        </g>
        <g id="path4150" transform="matrix(1.0125,0,0,1.11511,-0.452307,-0.228337)">
            <path d="M369.4,143.6C368.4,156.6 359.7,168.5 346.4,175.3C343.3,176.8 346.1,180.7 349.1,179C364.1,171.5 373.7,158.3 374.8,144C375.9,129.5 368.4,115.4 354.8,106.4C352.2,104.7 348.8,108 351.2,109.7C363.6,117.8 370.2,130.5 369.4,143.6Z" style="fill-rule:nonzero;"/>
        </g>
        <g id="path4148" transform="matrix(1.0125,0,0,1.11511,-0.452307,-0.228337)">
            <path d="M232,144.6C233.1,159.1 242.7,172.3 257.7,179.6C260.7,181.2 263.5,177.4 260.4,175.9C246.9,169.1 238.4,157.3 237.4,144.2C236.4,131.2 243.2,118.4 255.6,110.3C257.3,107 254.7,105.9 252,107C238.3,116 230.7,130 232,144.6Z" style="fill-rule:nonzero;"/>
        </g>
        <g transform="matrix(1.22556,0,0,1.20518,-40.2892,-33.6183)">
            <ellipse cx="281.682" cy="160.284" rx="19.931" ry="19.702" style="stroke:white;stroke-width:27.89px;stroke-linecap:round;stroke-miterlimit:1.5;"/>
        </g>
        <g transform="matrix(1.22556,0,0,1.20518,-40.2892,-33.6183)">
            <ellipse cx="281.682" cy="160.284" rx="19.931" ry="19.702"/>
        </g>
    </g>
</svg>
