<?xml version="1.0" encoding="UTF-8" standalone="no"?>
<svg xmlns="http://www.w3.org/2000/svg" version="1.1" width="24" height="24" viewBox="0 0 24 24" enable-background="new 0 0 24 24">
 <metadata id="metadata12"/>
 <path id="path4145" d="M 11.999998,24 C 5.400006,24 0,18.600054 0,11.999998 0,5.4000059 5.400006,0 11.999998,0 18.600054,0 24,5.4000059 24,11.999998 24,18.600054 18.600054,24 11.999998,24 l 0,0 z" fill="#ffffff"/>
 <path id="path4147" d="m 11.999998,0.97499866 c -6.07499,0 -11.024996,4.95000924 -11.024996,11.02499934 0,6.075051 4.950006,11.024993 11.024996,11.024993 6.075051,0 11.024993,-4.949942 11.024993,-11.024993 0,-6.0749901 -4.949942,-11.02499934 -11.024993,-11.02499934 z m 0,3.00000484 c 4.425039,0 8.025069,3.5999981 8.025069,8.0249945 0,4.425039 -3.60003,8.025069 -8.025069,8.025069 -4.424996,0 -8.024994,-3.60003 -8.024994,-8.025069 0,-4.4249964 3.599998,-8.0249945 8.024994,-8.0249945 z" fill="#0026ff"/>
</svg>
