<?xml version="1.0" encoding="UTF-8" standalone="no"?><!DOCTYPE svg PUBLIC "-//W3C//DTD SVG 1.1//EN" "http://www.w3.org/Graphics/SVG/1.1/DTD/svg11.dtd"><svg width="100%" height="100%" viewBox="0 0 580 580" version="1.1" xmlns="http://www.w3.org/2000/svg" xmlns:xlink="http://www.w3.org/1999/xlink" xml:space="preserve" xmlns:serif="http://www.serif.com/" style="fill-rule:evenodd;clip-rule:evenodd;stroke-linejoin:round;"><path id="path4137" d="M228.538,181.887c-14.2,0.6 -32.8,-0.9 -43,2.9c-10.2,5.9 -6.6,18.7 -7.5,28.4c0.2,14.2 -1.3,28.4 -0.1,42.5c2.5,9.9 13.5,11 22,10.8l28,1.5c0.2,75 -0.1,150 0.4,224c1.6,8.6 11.4,7.7 18,7.5c7.8,-0.6 16,1.3 23.5,-1.1c7.9,-4.8 3.9,-15.2 4.9,-22.7l0,-206c29,1.3 58,3.5 87,4.3c9.5,-2.2 14.2,-11.9 21,-18c6.2,-7.4 14.2,-13.5 18.9,-21.9c4.1,-11 -6.9,-18.6 -12.5,-26.6c-7.5,-8.8 -14,-18.6 -22.3,-26.6c-8.5,-4.6 -18.5,-1.4 -27.7,-2l-64.8,1.4c0.7,-6.2 -0.1,-14.7 -7.8,-15.8c-9.9,-0.3 -19.9,0 -29.6,0.25c-7.7,0.15 -8.1,7.75 -8.4,17.15Z" style="fill:none;stroke:#fff;stroke-opacity:0.8;stroke-width:64px;"/><path id="path4140" d="M228.538,181.887c-14.2,0.6 -32.8,-0.9 -43,2.9c-10.2,5.9 -6.6,18.7 -7.5,28.4c0.2,14.2 -1.3,28.4 -0.1,42.5c2.5,9.9 13.5,11 22,10.8l28,1.5c0.2,75 -0.1,150 0.4,224c1.6,8.6 11.4,7.7 18,7.5c7.8,-0.6 16,1.3 23.5,-1.1c7.9,-4.8 3.9,-15.2 4.9,-22.7l0,-206c29,1.3 58,3.5 87,4.3c9.5,-2.2 14.2,-11.9 21,-18c6.2,-7.4 14.2,-13.5 18.9,-21.9c4.1,-11 -6.9,-18.6 -12.5,-26.6c-7.5,-8.8 -14,-18.6 -22.3,-26.6c-8.5,-4.6 -18.5,-1.4 -27.7,-2l-64.8,1.4c0.7,-6.2 -0.1,-14.7 -7.8,-15.8c-9.9,-0.3 -19.9,0 -29.6,0.25c-7.7,0.15 -8.1,7.75 -8.4,17.15Z" style="fill:#734a08;"/></svg>