<?xml version="1.0" encoding="UTF-8" standalone="no"?>
<!DOCTYPE svg PUBLIC "-//W3C//DTD SVG 1.1//EN" "http://www.w3.org/Graphics/SVG/1.1/DTD/svg11.dtd">
<svg width="100%" height="100%" viewBox="0 0 580 580" version="1.1" xmlns="http://www.w3.org/2000/svg" xmlns:xlink="http://www.w3.org/1999/xlink" xml:space="preserve" xmlns:serif="http://www.serif.com/" style="fill-rule:evenodd;clip-rule:evenodd;stroke-linecap:round;stroke-linejoin:round;stroke-miterlimit:1.5;">
    <g>
        <ellipse cx="388.197" cy="422.389" rx="292.393" ry="296.493" style="fill:none;stroke:white;stroke-width:86.83px;"/>
        <path d="M421.145,91.067L381.892,83.707C332.827,73.894 283.761,61.628 239.602,93.52L188.083,127.866L141.47,167.118L104.672,203.918C89.343,217.221 75.373,232.014 62.967,248.076L50.699,272.61C46.066,280.174 42.749,288.469 40.887,297.143C40.604,305.365 39.784,313.559 38.433,321.675C31.657,343.092 28.344,365.453 28.621,387.914C28.621,395.273 31.074,400.181 31.074,407.54L31.074,429.619C28.606,437.608 26.962,445.828 26.166,454.152C25.746,464.029 26.569,473.921 28.621,483.592C37.322,500.433 57.685,507.934 75.233,500.764L104.672,483.592L146.378,454.152C159.807,443.199 174.663,434.121 190.537,427.166C209.054,422.494 228.444,422.494 246.961,427.166L276.401,432.072L354.906,432.072L408.877,424.713C423.249,422.434 437.267,418.311 450.584,412.447C470.21,402.634 477.569,375.647 482.477,358.474C485.978,347.627 490.073,336.981 494.743,326.581C500.054,316.09 507.59,306.88 516.822,299.596L541.355,282.422C548.715,275.063 553.621,277.516 560.982,282.422L590.42,289.783C612.435,295.945 636.14,289.308 651.752,272.61C659.112,265.25 659.112,252.984 661.565,243.17C665.753,236.507 668.278,228.934 668.925,221.091C668.925,208.824 651.752,199.011 644.393,191.652C608.557,158.938 566.965,133.151 521.728,115.6C488.912,104.741 455.275,96.538 421.145,91.067Z" style="fill:none;stroke:white;stroke-width:86.83px;stroke-linecap:butt;stroke-miterlimit:1.41421;"/>
        <ellipse cx="388.197" cy="423.77" rx="292.393" ry="296.493" style="fill:none;stroke:rgb(89,87,87);stroke-width:43.42px;"/>
        <path d="M421.145,91.067L381.892,83.707C332.827,73.894 283.761,61.628 239.602,93.52L188.083,127.866L141.47,167.118L104.672,203.918C89.343,217.221 75.373,232.014 62.967,248.076L50.699,272.61C46.066,280.174 42.749,288.469 40.887,297.143C40.604,305.365 39.784,313.559 38.433,321.675C31.657,343.092 28.344,365.453 28.621,387.914C28.621,395.273 31.074,400.181 31.074,407.54L31.074,429.619C28.606,437.608 26.962,445.828 26.166,454.152C25.746,464.029 26.569,473.921 28.621,483.592C37.322,500.433 57.685,507.934 75.233,500.764L104.672,483.592L146.378,454.152C159.807,443.199 174.663,434.121 190.537,427.166C209.054,422.494 228.444,422.494 246.961,427.166L276.401,432.072L354.906,432.072L408.877,424.713C423.249,422.434 437.267,418.311 450.584,412.447C470.21,402.634 477.569,375.647 482.477,358.474C485.978,347.627 490.073,336.981 494.743,326.581C500.054,316.09 507.59,306.88 516.822,299.596L541.355,282.422C548.715,275.063 553.621,277.516 560.982,282.422L590.42,289.783C612.435,295.945 636.14,289.308 651.752,272.61C659.112,265.25 659.112,252.984 661.565,243.17C665.753,236.507 668.278,228.934 668.925,221.091C668.925,208.824 651.752,199.011 644.393,191.652C608.557,158.938 566.965,133.151 521.728,115.6C488.912,104.741 455.275,96.538 421.145,91.067Z" style="fill-rule:nonzero;"/>
    </g>
    <g transform="matrix(5.39983,0,0,4.69891,11.4836,-250.466)">
        <path d="M41,100C36.46,98.49 20.68,98.15 19,104C17.32,109.85 18.07,123.54 23.78,125.22C29.49,126.9 42.27,127.22 44.67,121.67C47.07,116.12 46.4,101.8 41,100M38,111C36.63,114.76 35.21,119.44 32,122C33.03,117.22 31.51,113.43 26,115C25.76,110.85 29.59,107.99 30,104C33.63,105.54 30.43,113.9 38,111Z" style="fill:rgb(18,105,255);fill-rule:nonzero;"/>
    </g>
    <g transform="matrix(5.02184,0,0,4.76136,31.0605,-254.517)">
        <path d="M68,111C67.77,107.06 60.19,94.4 55.75,100.75C51.32,107.11 52.27,112.16 50,120C47.74,127.83 63.12,126.92 61,118C64.02,127.73 73.52,127.08 77,118C74.24,128.9 90.96,126.66 87.78,119.22C84.59,111.78 86.97,105.17 81.22,99.78C75.48,94.39 71.16,109.27 68,111Z" style="fill:rgb(186,212,31);fill-rule:nonzero;"/>
    </g>
</svg>
