<?xml version="1.0" encoding="UTF-8" standalone="no"?><!DOCTYPE svg PUBLIC "-//W3C//DTD SVG 1.1//EN" "http://www.w3.org/Graphics/SVG/1.1/DTD/svg11.dtd"><svg width="100%" height="100%" viewBox="0 0 580 580" version="1.1" xmlns="http://www.w3.org/2000/svg" xmlns:xlink="http://www.w3.org/1999/xlink" xml:space="preserve" xmlns:serif="http://www.serif.com/" style="fill-rule:evenodd;clip-rule:evenodd;stroke-linejoin:round;stroke-miterlimit:1.41421;"><g id="g3003"><g><path d="M529.071,202.372c3.577,7.601 -3.89,9.675 -10.185,7.391c-24.773,-8.99 -85.855,-11.515 -113.474,16.121c-6.762,6.765 -11.106,23.774 -0.784,32.687c10.304,8.898 -10.514,8.339 -16.017,5.72c-31.395,-14.932 -29.643,-30.671 -50.616,-47.027c-29.151,-22.733 -59.906,-22.509 -75.71,-18.164c-8.989,2.472 -15.019,-3.79 -3.203,-10.697c45.17,-26.411 98.347,-7.021 115.433,20.838c1.983,3.231 5.981,3.398 8.828,0.297c15.661,-17.048 62.93,-37.44 107.138,-37.44c16.373,0 28.192,8.17 38.59,30.274Z" style="fill:#9387bb;stroke:#fff;stroke-width:64px;"/><path d="M131.688,404.035l-79.66,0c-6.617,0 2.8,-15.689 30.611,-34.62c115.469,-78.6 246.173,-98.659 319.907,-82.054c10.371,2.336 3.789,5.013 -0.053,5.238c-30.397,1.783 -161.528,-2.674 -262.76,106.982c-3.144,3.402 -5.197,4.454 -8.045,4.454Z" style="fill:#7264a6;stroke:#fff;stroke-width:64px;"/><path d="M322.545,407.9l-72.756,0c-18.508,0 53.962,-88.704 151.776,-103.935c7.682,-1.196 7.381,1.213 2.135,4.683c-33.459,22.138 -74.464,44.425 -74.464,94.797c0.001,4.724 -3.842,4.455 -6.691,4.455Z" style="fill:#7264a6;stroke:#fff;stroke-width:64px;"/></g><g><path d="M529.071,202.372c3.577,7.601 -3.89,9.675 -10.185,7.391c-24.773,-8.99 -85.855,-11.515 -113.474,16.121c-6.762,6.765 -11.106,23.774 -0.784,32.687c10.304,8.898 -10.514,8.339 -16.017,5.72c-31.395,-14.932 -29.643,-30.671 -50.616,-47.027c-29.151,-22.733 -59.906,-22.509 -75.71,-18.164c-8.989,2.472 -15.019,-3.79 -3.203,-10.697c45.17,-26.411 98.347,-7.021 115.433,20.838c1.983,3.231 5.981,3.398 8.828,0.297c15.661,-17.048 62.93,-37.44 107.138,-37.44c16.373,0 28.192,8.17 38.59,30.274Z" style="fill:#9387bb;stroke:#000;stroke-width:11.91px;"/><path d="M131.688,404.035l-79.66,0c-6.617,0 2.8,-15.689 30.611,-34.62c115.469,-78.6 246.173,-98.659 319.907,-82.054c10.371,2.336 3.789,5.013 -0.053,5.238c-30.397,1.783 -161.528,-2.674 -262.76,106.982c-3.144,3.402 -5.197,4.454 -8.045,4.454Z" style="fill:#7264a6;stroke:#000;stroke-width:11.91px;"/><path d="M322.545,407.9l-72.756,0c-18.508,0 53.962,-88.704 151.776,-103.935c7.682,-1.196 7.381,1.213 2.135,4.683c-33.459,22.138 -74.464,44.425 -74.464,94.797c0.001,4.724 -3.842,4.455 -6.691,4.455Z" style="fill:#7264a6;stroke:#000;stroke-width:11.91px;"/></g></g></svg>