<?xml version="1.0" encoding="UTF-8" standalone="no"?><!DOCTYPE svg PUBLIC "-//W3C//DTD SVG 1.1//EN" "http://www.w3.org/Graphics/SVG/1.1/DTD/svg11.dtd"><svg width="100%" height="100%" viewBox="0 0 580 580" version="1.1" xmlns="http://www.w3.org/2000/svg" xmlns:xlink="http://www.w3.org/1999/xlink" xml:space="preserve" xmlns:serif="http://www.serif.com/" style="fill-rule:evenodd;clip-rule:evenodd;stroke-linejoin:round;stroke-miterlimit:1.41421;"><g id="s_pt_subway_new_taipei"><path id="path2" d="M221.63,110.092l17.309,0c32.496,1.663 64.541,12.091 91.493,30.377c26.197,17.501 47.592,42.054 61.445,70.34c-3.866,1.551 -7.728,3.09 -11.622,4.557c-13.781,-27.767 -35.471,-51.517 -61.799,-67.855c-42.538,-26.777 -97.335,-32.66 -144.579,-15.555c-32.335,11.426 -60.924,33.106 -80.721,61.097c-22.537,31.497 -33.585,71.035 -30.445,109.649c2.243,32.138 14.281,63.48 33.861,89.044c20.824,27.371 50.21,48.142 83.054,58.386c28.806,9.134 60.089,10.195 89.473,3.149c46.472,-10.914 87.416,-42.82 109.453,-85.16c4.66,-0.174 9.329,-0.124 13.995,-0.062c-9.162,18.907 -21.507,36.327 -36.693,50.884c-30.337,30.15 -71.944,48.436 -114.6,50.965l-22.549,0c-36.166,-2.191 -71.535,-15.628 -99.972,-38.093c-25.81,-20.191 -45.902,-47.58 -57.4,-78.26c-6.685,-17.402 -10.201,-35.902 -11.333,-54.474l0,-17.389c0.99,-18.501 4.474,-36.917 11.029,-54.266c11.771,-31.956 32.924,-60.397 60.099,-80.923c28.763,-21.997 64.336,-34.779 100.502,-36.411Z" style="fill:none;stroke:#fff;stroke-width:64px;"/><path id="path4" d="M149.73,175.235c23.424,-16.449 52.054,-25.552 80.708,-25.105c29.254,-0.304 58.405,9.428 82.002,26.657c17.564,12.698 31.835,29.66 42.098,48.7c-3.71,1.672 -7.582,2.969 -11.252,4.722c-8.439,-14.923 -19.267,-28.571 -32.648,-39.368c-22.425,-18.326 -51.263,-28.847 -80.262,-28.571c-29.284,-0.419 -58.466,10.133 -81.096,28.642c-22.028,17.889 -37.878,43.24 -44.056,70.955c-2.944,12.161 -3.453,24.748 -2.841,37.195c2.1,31.109 16.095,61.259 38.682,82.788c19.092,18.838 44.43,31.139 70.963,34.89c21.519,3.059 43.761,0.531 64.054,-7.319c21.681,-8.42 41.059,-22.8 55.175,-41.291c5.085,-0.009 10.164,-0.021 15.249,0c-23.526,35.145 -63.524,58.895 -105.845,61.576c-39.935,3.415 -81.096,-11.672 -109.279,-40.212c-21.435,-20.864 -35.543,-48.976 -39.926,-78.537c-3.202,-22.781 -1.316,-46.45 6.614,-68.121c9.624,-27.194 28.041,-51.098 51.66,-67.601Z" style="fill:none;stroke:#fff;stroke-width:64px;"/><path id="path8" d="M508.708,310.275c4.731,-0.286 9.441,-1.511 14.209,-0.99c1.601,0.562 1.98,2.498 2.733,3.844c2.783,6.838 5.545,14.331 3.81,21.801c-2.373,8.585 -10.883,14.995 -19.741,15.178c-92.094,-0.019 -184.18,0 -276.265,-0.009c-35.716,0.102 -71.441,-0.215 -107.139,0.173c14.3,-2.203 28.807,-3.077 43.199,-4.762c113.062,-11.721 226.123,-23.523 339.194,-35.235Z" style="fill:none;stroke:#fff;stroke-width:64px;"/><path id="path15" d="M479.28,256.456c2.61,-0.615 5.231,-1.61 7.952,-1.297c2.262,0.838 3.608,3.028 5.178,4.741c6.695,8.327 12.925,17.054 18.634,26.095c1.396,1.945 -0.071,4.781 -2.417,4.84c-124.345,17.339 -248.721,34.363 -373.076,51.638l-12.406,1.234c63.371,-15.177 126.597,-31.046 189.928,-46.438c55.399,-13.638 110.809,-27.196 166.207,-40.813Z" style="fill:none;stroke:#fff;stroke-width:64px;"/><path id="path6" d="M412.282,221.677c6.503,-3.028 13.791,-4.607 20.957,-3.59c12.64,1.641 23.75,8.715 33.616,16.372c2.283,1.16 2.305,4.924 -0.366,5.575c-110.911,31.506 -221.872,62.882 -332.793,94.366l-13.701,3.375c97.509,-38.499 194.841,-77.438 292.287,-116.098Z" style="fill:none;stroke:#fff;stroke-width:64px;"/></g><g id="s_pt_subway_new_taipei1" serif:id="s_pt_subway_new_taipei"><path id="path21" serif:id="path2" d="M221.63,110.092l17.309,0c32.496,1.663 64.541,12.091 91.493,30.377c26.197,17.501 47.592,42.054 61.445,70.34c-3.866,1.551 -7.728,3.09 -11.622,4.557c-13.781,-27.767 -35.471,-51.517 -61.799,-67.855c-42.538,-26.777 -97.335,-32.66 -144.579,-15.555c-32.335,11.426 -60.924,33.106 -80.721,61.097c-22.537,31.497 -33.585,71.035 -30.445,109.649c2.243,32.138 14.281,63.48 33.861,89.044c20.824,27.371 50.21,48.142 83.054,58.386c28.806,9.134 60.089,10.195 89.473,3.149c46.472,-10.914 87.416,-42.82 109.453,-85.16c4.66,-0.174 9.329,-0.124 13.995,-0.062c-9.162,18.907 -21.507,36.327 -36.693,50.884c-30.337,30.15 -71.944,48.436 -114.6,50.965l-22.549,0c-36.166,-2.191 -71.535,-15.628 -99.972,-38.093c-25.81,-20.191 -45.902,-47.58 -57.4,-78.26c-6.685,-17.402 -10.201,-35.902 -11.333,-54.474l0,-17.389c0.99,-18.501 4.474,-36.917 11.029,-54.266c11.771,-31.956 32.924,-60.397 60.099,-80.923c28.763,-21.997 64.336,-34.779 100.502,-36.411Z" style="fill:none;stroke:#000;stroke-width:7.76px;"/><path id="path41" serif:id="path4" d="M149.73,175.235c23.424,-16.449 52.054,-25.552 80.708,-25.105c29.254,-0.304 58.405,9.428 82.002,26.657c17.564,12.698 31.835,29.66 42.098,48.7c-3.71,1.672 -7.582,2.969 -11.252,4.722c-8.439,-14.923 -19.267,-28.571 -32.648,-39.368c-22.425,-18.326 -51.263,-28.847 -80.262,-28.571c-29.284,-0.419 -58.466,10.133 -81.096,28.642c-22.028,17.889 -37.878,43.24 -44.056,70.955c-2.944,12.161 -3.453,24.748 -2.841,37.195c2.1,31.109 16.095,61.259 38.682,82.788c19.092,18.838 44.43,31.139 70.963,34.89c21.519,3.059 43.761,0.531 64.054,-7.319c21.681,-8.42 41.059,-22.8 55.175,-41.291c5.085,-0.009 10.164,-0.021 15.249,0c-23.526,35.145 -63.524,58.895 -105.845,61.576c-39.935,3.415 -81.096,-11.672 -109.279,-40.212c-21.435,-20.864 -35.543,-48.976 -39.926,-78.537c-3.202,-22.781 -1.316,-46.45 6.614,-68.121c9.624,-27.194 28.041,-51.098 51.66,-67.601Z" style="fill:none;stroke:#000;stroke-width:6.2px;"/><path id="path61" serif:id="path6" d="M412.282,221.677c6.503,-3.028 13.791,-4.607 20.957,-3.59c12.64,1.641 23.75,8.715 33.616,16.372c2.283,1.16 2.305,4.924 -0.366,5.575c-110.911,31.506 -221.872,62.882 -332.793,94.366l-13.701,3.375c97.509,-38.499 194.841,-77.438 292.287,-116.098Z" style="fill:#0094d7;fill-rule:nonzero;stroke:#000;stroke-width:6.2px;"/><path id="path81" serif:id="path8" d="M508.708,310.275c4.731,-0.286 9.441,-1.511 14.209,-0.99c1.601,0.562 1.98,2.498 2.733,3.844c2.783,6.838 5.545,14.331 3.81,21.801c-2.373,8.585 -10.883,14.995 -19.741,15.178c-92.094,-0.019 -184.18,0 -276.265,-0.009c-35.716,0.102 -71.441,-0.215 -107.139,0.173c14.3,-2.203 28.807,-3.077 43.199,-4.762c113.062,-11.721 226.123,-23.523 339.194,-35.235Z" style="fill:#58b530;fill-rule:nonzero;stroke:#000;stroke-width:6.2px;"/><path id="path11" d="M193.64,134.096c20.734,-4.759 42.392,-5.361 63.371,-1.874c27.166,4.546 53.044,16.391 74.349,33.852c17.358,14.237 31.741,32.067 41.862,52.125c-3.841,1.511 -7.685,3.009 -11.498,4.588c-11.284,-22.006 -28.162,-41.098 -48.61,-55.013c-25.32,-17.328 -56.165,-26.399 -86.836,-25.543c-28.019,0.673 -55.817,9.522 -78.987,25.31c-26.684,17.92 -47.232,44.81 -57.427,75.295c-9.692,28.512 -10.365,60.008 -1.772,88.883c8.399,28.928 26.034,55.032 49.569,73.799c25.217,20.325 57.303,31.997 89.7,32.403c27.488,0.633 55.063,-6.819 78.617,-20.967c20.11,-12.078 37.267,-29.008 49.702,-48.886c4.759,0.072 9.54,-0.143 14.299,0.165c-12.506,21.813 -29.843,40.925 -50.8,54.889c-26.024,17.582 -57.378,27.122 -88.781,27.023c-27.736,0.201 -55.482,-7.055 -79.557,-20.827c-27.808,-15.807 -50.742,-40.119 -64.715,-68.894c-10.99,-22.251 -16.586,-47.143 -16.149,-71.954c0.012,-36.848 13.691,-73.429 37.503,-101.513c22.006,-26.319 52.736,-45.154 86.16,-52.861Z" style="fill:#f7ca02;fill-rule:nonzero;stroke:#000;stroke-width:6.2px;"/><path id="path151" serif:id="path15" d="M479.28,256.456c2.61,-0.615 5.231,-1.61 7.952,-1.297c2.262,0.838 3.608,3.028 5.178,4.741c6.695,8.327 12.925,17.054 18.634,26.095c1.396,1.945 -0.071,4.781 -2.417,4.84c-124.345,17.339 -248.721,34.363 -373.076,51.638l-12.406,1.234c63.371,-15.177 126.597,-31.046 189.928,-46.438c55.399,-13.638 110.809,-27.196 166.207,-40.813Z" style="fill:#f7ca02;fill-rule:nonzero;stroke:#000;stroke-width:6.2px;"/></g></svg>