<?xml version="1.0" encoding="UTF-8" standalone="no"?>
<!DOCTYPE svg PUBLIC "-//W3C//DTD SVG 1.1//EN" "http://www.w3.org/Graphics/SVG/1.1/DTD/svg11.dtd">
<svg width="100%" height="100%" viewBox="0 0 580 580" version="1.1" xmlns="http://www.w3.org/2000/svg" xmlns:xlink="http://www.w3.org/1999/xlink" xml:space="preserve" xmlns:serif="http://www.serif.com/" style="fill-rule:evenodd;clip-rule:evenodd;stroke-linejoin:round;stroke-miterlimit:2;">
    <g id="g3003">
        <g id="XMLID_19_" transform="matrix(4.43566,0,0,4.43525,28.4026,0.0888485)">
            <path d="M30.784,37.76L57.93,37.76L49.632,49.733C49.632,49.733 45.483,55.423 38.608,55.423C31.733,55.423 31.506,55.496 31.506,55.496C31.506,55.496 27.761,55.067 24.322,60.479C21.335,65.18 19.997,68.225 19.997,68.225C19.997,68.225 18.1,75.931 28.769,75.931L56.389,75.931C56.389,75.931 65.813,76.049 60.775,83.991C55.791,91.849 29.637,129.79 29.637,129.79C29.637,129.79 26.695,132.831 26.635,128.208C26.564,122.637 26.635,111.019 26.635,111.019C26.635,111.019 26.517,106.277 28.295,103.788C30.073,101.299 34.933,94.779 34.933,94.779C34.933,94.779 36.119,93.001 33.037,93.001L20.471,93.001C20.471,93.001 9.091,93.001 2.808,81.265C-2.797,70.795 1.267,63.365 3.994,58.386C6.72,53.408 12.41,45.465 12.41,45.465C12.41,45.465 17.033,37.76 30.784,37.76Z" style="fill:none;fill-rule:nonzero;stroke:white;stroke-width:14.43px;"/>
        </g>
        <g id="XMLID_18_" transform="matrix(4.43566,0,0,4.43525,28.4026,0.0888485)">
            <path d="M86.515,93.011L59.369,93.011L67.667,81.039C67.667,81.039 71.816,75.349 78.691,75.349C85.567,75.349 85.794,75.276 85.794,75.276C85.794,75.276 89.538,75.704 92.977,70.293C95.965,65.592 97.302,62.546 97.302,62.546C97.302,62.546 99.199,54.841 88.53,54.841L60.91,54.841C60.91,54.841 51.486,54.722 56.524,46.78C61.508,38.923 87.662,0.981 87.662,0.981C87.662,0.981 90.605,-2.059 90.664,2.564C90.736,8.135 90.664,19.752 90.664,19.752C90.664,19.752 90.783,24.494 89.005,26.983C87.226,29.473 82.366,35.993 82.366,35.993C82.366,35.993 81.181,37.771 84.263,37.771L96.828,37.771C96.828,37.771 108.208,37.771 114.491,49.506C120.096,59.977 116.032,67.406 113.306,72.385C110.579,77.364 104.889,85.306 104.889,85.306C104.889,85.306 100.266,93.011 86.515,93.011Z" style="fill:none;fill-rule:nonzero;stroke:white;stroke-width:14.43px;"/>
        </g>
        <g id="XMLID_19_1" serif:id="XMLID_19_" transform="matrix(4.43566,0,0,4.43525,28.4026,0.0888485)">
            <path d="M30.784,37.76L57.93,37.76L49.632,49.733C49.632,49.733 45.483,55.423 38.608,55.423C31.733,55.423 31.506,55.496 31.506,55.496C31.506,55.496 27.761,55.067 24.322,60.479C21.335,65.18 19.997,68.225 19.997,68.225C19.997,68.225 18.1,75.931 28.769,75.931L56.389,75.931C56.389,75.931 65.813,76.049 60.775,83.991C55.791,91.849 29.637,129.79 29.637,129.79C29.637,129.79 26.695,132.831 26.635,128.208C26.564,122.637 26.635,111.019 26.635,111.019C26.635,111.019 26.517,106.277 28.295,103.788C30.073,101.299 34.933,94.779 34.933,94.779C34.933,94.779 36.119,93.001 33.037,93.001L20.471,93.001C20.471,93.001 9.091,93.001 2.808,81.265C-2.797,70.795 1.267,63.365 3.994,58.386C6.72,53.408 12.41,45.465 12.41,45.465C12.41,45.465 17.033,37.76 30.784,37.76Z" style="fill:rgb(141,194,34);fill-rule:nonzero;"/>
        </g>
        <g id="XMLID_18_1" serif:id="XMLID_18_" transform="matrix(4.43566,0,0,4.43525,28.4026,0.0888485)">
            <path d="M86.515,93.011L59.369,93.011L67.667,81.039C67.667,81.039 71.816,75.349 78.691,75.349C85.567,75.349 85.794,75.276 85.794,75.276C85.794,75.276 89.538,75.704 92.977,70.293C95.965,65.592 97.302,62.546 97.302,62.546C97.302,62.546 99.199,54.841 88.53,54.841L60.91,54.841C60.91,54.841 51.486,54.722 56.524,46.78C61.508,38.923 87.662,0.981 87.662,0.981C87.662,0.981 90.605,-2.059 90.664,2.564C90.736,8.135 90.664,19.752 90.664,19.752C90.664,19.752 90.783,24.494 89.005,26.983C87.226,29.473 82.366,35.993 82.366,35.993C82.366,35.993 81.181,37.771 84.263,37.771L96.828,37.771C96.828,37.771 108.208,37.771 114.491,49.506C120.096,59.977 116.032,67.406 113.306,72.385C110.579,77.364 104.889,85.306 104.889,85.306C104.889,85.306 100.266,93.011 86.515,93.011Z" style="fill:rgb(0,146,215);fill-rule:nonzero;"/>
        </g>
    </g>
</svg>
