<?xml version="1.0" encoding="UTF-8" standalone="no"?><!DOCTYPE svg PUBLIC "-//W3C//DTD SVG 1.1//EN" "http://www.w3.org/Graphics/SVG/1.1/DTD/svg11.dtd"><svg width="100%" height="100%" viewBox="0 0 180 173" version="1.1" xmlns="http://www.w3.org/2000/svg" xmlns:xlink="http://www.w3.org/1999/xlink" xml:space="preserve" xmlns:serif="http://www.serif.com/" style="fill-rule:evenodd;clip-rule:evenodd;stroke-linejoin:round;stroke-miterlimit:1.41421;"><g id="s_pt_subway_new_taipei"><path id="path11" d="M58.941,36.249c6.683,-1.534 13.664,-1.728 20.426,-0.604c8.756,1.465 17.097,5.283 23.964,10.911c5.595,4.589 10.231,10.336 13.493,16.801c-1.238,0.487 -2.477,0.97 -3.706,1.479c-3.637,-7.093 -9.077,-13.247 -15.668,-17.732c-8.161,-5.585 -18.103,-8.509 -27.989,-8.233c-9.031,0.217 -17.991,3.069 -25.459,8.158c-8.601,5.776 -15.224,14.443 -18.51,24.269c-3.124,9.19 -3.341,19.342 -0.571,28.649c2.707,9.324 8.391,17.738 15.977,23.787c8.128,6.551 18.47,10.313 28.912,10.444c8.86,0.204 17.748,-2.198 25.34,-6.758c6.482,-3.893 12.012,-9.35 16.02,-15.757c1.534,0.023 3.075,-0.046 4.609,0.053c-4.031,7.031 -9.619,13.191 -16.374,17.692c-8.388,5.667 -18.494,8.742 -28.616,8.71c-8.94,0.065 -17.883,-2.274 -25.643,-6.713c-8.963,-5.095 -16.355,-12.931 -20.859,-22.206c-3.542,-7.172 -5.346,-15.195 -5.205,-23.192c0.004,-11.877 4.413,-23.668 12.088,-32.72c7.093,-8.483 16.998,-14.554 27.771,-17.038Z" style="fill:#fff;fill-rule:nonzero;stroke:#fff;stroke-width:32px;"/><path id="path15" d="M151.009,75.688c0.841,-0.198 1.686,-0.519 2.563,-0.418c0.729,0.27 1.163,0.976 1.669,1.528c2.158,2.684 4.166,5.497 6.006,8.411c0.45,0.627 -0.023,1.541 -0.779,1.56c-40.079,5.589 -80.168,11.076 -120.25,16.644l-3.999,0.398c20.426,-4.892 40.805,-10.007 61.218,-14.968c17.856,-4.396 35.716,-8.766 53.572,-13.155Z" style="fill:none;stroke:#fff;stroke-width:43px;"/></g><g id="s_pt_subway_new_taipei1" serif:id="s_pt_subway_new_taipei"><path id="path2" d="M67.963,28.512l5.579,0c10.474,0.536 20.803,3.897 29.49,9.791c8.444,5.641 15.34,13.555 19.805,22.672c-1.246,0.5 -2.491,0.996 -3.746,1.469c-4.442,-8.95 -11.433,-16.605 -19.919,-21.871c-13.711,-8.631 -31.373,-10.527 -46.601,-5.014c-10.422,3.683 -19.637,10.671 -26.018,19.693c-7.264,10.152 -10.825,22.896 -9.813,35.342c0.723,10.359 4.603,20.461 10.914,28.701c6.712,8.822 16.184,15.517 26.77,18.819c9.285,2.944 19.368,3.286 28.839,1.015c14.979,-3.518 28.176,-13.802 35.279,-27.449c1.502,-0.056 3.007,-0.04 4.511,-0.02c-2.953,6.094 -6.932,11.709 -11.827,16.401c-9.778,9.718 -23.189,15.612 -36.938,16.427l-7.268,0c-11.657,-0.706 -23.057,-5.037 -32.223,-12.278c-8.319,-6.508 -14.795,-15.336 -18.501,-25.225c-2.155,-5.609 -3.288,-11.572 -3.653,-17.558l0,-5.605c0.319,-5.963 1.442,-11.899 3.555,-17.491c3.794,-10.3 10.612,-19.467 19.371,-26.083c9.271,-7.09 20.737,-11.21 32.394,-11.736Z" style="fill:#0094d7;fill-rule:nonzero;stroke:#000;stroke-width:2.5px;"/><path id="path4" d="M44.788,49.509c7.55,-5.302 16.778,-8.236 26.014,-8.092c9.429,-0.098 18.825,3.039 26.431,8.592c5.661,4.093 10.261,9.56 13.569,15.697c-1.196,0.539 -2.444,0.957 -3.627,1.522c-2.72,-4.81 -6.21,-9.209 -10.523,-12.689c-7.228,-5.907 -16.523,-9.298 -25.87,-9.209c-9.439,-0.135 -18.845,3.266 -26.139,9.232c-7.1,5.766 -12.209,13.937 -14.2,22.87c-0.949,3.92 -1.113,7.977 -0.916,11.989c0.677,10.027 5.188,19.745 12.468,26.684c6.154,6.072 14.321,10.037 22.873,11.246c6.936,0.986 14.105,0.171 20.646,-2.359c6.988,-2.714 13.234,-7.349 17.784,-13.309c1.639,-0.003 3.276,-0.007 4.915,0c-7.583,11.328 -20.475,18.983 -34.116,19.847c-12.872,1.101 -26.139,-3.762 -35.223,-12.961c-6.909,-6.725 -11.456,-15.786 -12.869,-25.314c-1.032,-7.343 -0.424,-14.972 2.132,-21.957c3.102,-8.765 9.038,-16.47 16.651,-21.789Z" style="fill:#58b530;fill-rule:nonzero;stroke:#000;stroke-width:2px;"/><path id="path6" d="M129.414,64.478c2.096,-0.976 4.445,-1.485 6.755,-1.157c4.074,0.529 7.655,2.809 10.835,5.277c0.736,0.374 0.743,1.587 -0.118,1.797c-35.749,10.155 -71.514,20.268 -107.266,30.416l-4.416,1.088c31.429,-12.409 62.801,-24.96 94.21,-37.421Z" style="fill:#0094d7;fill-rule:nonzero;stroke:#000;stroke-width:2px;"/><path id="path8" d="M160.494,93.035c1.525,-0.092 3.043,-0.487 4.58,-0.319c0.516,0.181 0.638,0.805 0.881,1.239c0.897,2.204 1.787,4.619 1.228,7.027c-0.765,2.767 -3.508,4.833 -6.363,4.892c-29.684,-0.006 -59.365,0 -89.046,-0.003c-11.512,0.033 -23.027,-0.069 -34.533,0.056c4.609,-0.71 9.285,-0.992 13.924,-1.535c36.442,-3.778 72.884,-7.582 109.329,-11.357Z" style="fill:#58b530;fill-rule:nonzero;stroke:#000;stroke-width:2px;"/><path id="path111" serif:id="path11" d="M58.941,36.249c6.683,-1.534 13.664,-1.728 20.426,-0.604c8.756,1.465 17.097,5.283 23.964,10.911c5.595,4.589 10.231,10.336 13.493,16.801c-1.238,0.487 -2.477,0.97 -3.706,1.479c-3.637,-7.093 -9.077,-13.247 -15.668,-17.732c-8.161,-5.585 -18.103,-8.509 -27.989,-8.233c-9.031,0.217 -17.991,3.069 -25.459,8.158c-8.601,5.776 -15.224,14.443 -18.51,24.269c-3.124,9.19 -3.341,19.342 -0.571,28.649c2.707,9.324 8.391,17.738 15.977,23.787c8.128,6.551 18.47,10.313 28.912,10.444c8.86,0.204 17.748,-2.198 25.34,-6.758c6.482,-3.893 12.012,-9.35 16.02,-15.757c1.534,0.023 3.075,-0.046 4.609,0.053c-4.031,7.031 -9.619,13.191 -16.374,17.692c-8.388,5.667 -18.494,8.742 -28.616,8.71c-8.94,0.065 -17.883,-2.274 -25.643,-6.713c-8.963,-5.095 -16.355,-12.931 -20.859,-22.206c-3.542,-7.172 -5.346,-15.195 -5.205,-23.192c0.004,-11.877 4.413,-23.668 12.088,-32.72c7.093,-8.483 16.998,-14.554 27.771,-17.038Z" style="fill:#f7ca02;fill-rule:nonzero;stroke:#000;stroke-width:2px;"/><path id="path151" serif:id="path15" d="M151.009,75.688c0.841,-0.198 1.686,-0.519 2.563,-0.418c0.729,0.27 1.163,0.976 1.669,1.528c2.158,2.684 4.166,5.497 6.006,8.411c0.45,0.627 -0.023,1.541 -0.779,1.56c-40.079,5.589 -80.168,11.076 -120.25,16.644l-3.999,0.398c20.426,-4.892 40.805,-10.007 61.218,-14.968c17.856,-4.396 35.716,-8.766 53.572,-13.155Z" style="fill:#f7ca02;fill-rule:nonzero;stroke:#000;stroke-width:2px;"/></g></svg>