<?xml version="1.0" encoding="UTF-8" standalone="no"?><!DOCTYPE svg PUBLIC "-//W3C//DTD SVG 1.1//EN" "http://www.w3.org/Graphics/SVG/1.1/DTD/svg11.dtd"><svg width="100%" height="100%" viewBox="0 0 580 580" version="1.1" xmlns="http://www.w3.org/2000/svg" xmlns:xlink="http://www.w3.org/1999/xlink" xml:space="preserve" xmlns:serif="http://www.serif.com/" style="fill-rule:evenodd;clip-rule:evenodd;stroke-linejoin:round;"><path id="path4145" d="M543,290c0,138.792 -114.208,253 -253,253c-138.792,0 -253,-114.208 -253,-253c0,-138.792 114.208,-253 253,-253c138.792,0 253,114.208 253,253Z" style="fill:none;stroke:#fff;stroke-opacity:0.8;stroke-width:64px;"/><path id="path3267" d="M543,290c0,138.792 -114.208,253 -253,253c-138.792,0 -253,-114.208 -253,-253c0,-138.792 114.208,-253 253,-253c138.792,0 253,114.208 253,253Z" style="fill:#734a08;fill-rule:nonzero;"/><path id="path4546" d="M203.978,221.234c7.541,-40.136 46.191,-66.56 86.326,-59.019c40.135,7.541 66.56,46.191 59.019,86.326" style="fill:#fff;"/><path id="rect4548" d="M324.148,105.451l-38.257,-7.188l-21.224,112.966l38.257,7.188l21.224,-112.966Z" style="fill:#fff;"/><path id="circle4550" d="M264.818,290.973c12.606,2.369 20.917,14.526 18.549,27.132c-2.369,12.607 -14.526,20.918 -27.132,18.55c-12.606,-2.369 -20.918,-14.526 -18.55,-27.133c2.369,-12.606 14.526,-20.917 27.133,-18.549Z" style="fill:#fff;"/><path id="circle4552" d="M252.203,361.85c12.606,2.369 20.918,14.526 18.549,27.133c-2.368,12.606 -14.526,20.917 -27.132,18.549c-12.606,-2.369 -20.918,-14.526 -18.549,-27.132c2.368,-12.606 14.526,-20.918 27.132,-18.55Z" style="fill:#fff;"/><path id="circle4554" d="M237.227,432.806c12.606,2.369 20.917,14.526 18.549,27.133c-2.369,12.606 -14.526,20.917 -27.132,18.549c-12.606,-2.369 -20.918,-14.526 -18.55,-27.132c2.369,-12.606 14.526,-20.918 27.133,-18.55Z" style="fill:#fff;"/><path id="circle4556" d="M335.933,289.726c12.606,2.369 20.918,14.526 18.549,27.132c-2.368,12.607 -14.526,20.918 -27.132,18.55c-12.606,-2.369 -20.918,-14.526 -18.549,-27.132c2.368,-12.607 14.526,-20.918 27.132,-18.55Z" style="fill:#fff;"/><path id="circle4558" d="M334.835,362.187c12.606,2.368 20.918,14.526 18.549,27.132c-2.368,12.606 -14.526,20.918 -27.132,18.549c-12.606,-2.368 -20.918,-14.526 -18.549,-27.132c2.368,-12.606 14.526,-20.918 27.132,-18.549Z" style="fill:#fff;"/><path id="circle4560" d="M336.528,435.653c12.606,2.368 20.917,14.526 18.549,27.132c-2.369,12.606 -14.526,20.918 -27.132,18.549c-12.606,-2.368 -20.918,-14.526 -18.55,-27.132c2.369,-12.606 14.526,-20.918 27.133,-18.549Z" style="fill:#fff;"/><path id="circle4562" d="M200.719,265.336c12.606,2.368 20.917,14.526 18.549,27.132c-2.369,12.606 -14.526,20.918 -27.132,18.549c-12.606,-2.368 -20.918,-14.526 -18.55,-27.132c2.369,-12.606 14.526,-20.918 27.133,-18.549Z" style="fill:#fff;"/><path id="circle4564" d="M171.417,331.74c12.606,2.368 20.918,14.526 18.549,27.132c-2.368,12.606 -14.526,20.918 -27.132,18.549c-12.606,-2.368 -20.918,-14.526 -18.549,-27.132c2.368,-12.606 14.526,-20.918 27.132,-18.549Z" style="fill:#fff;"/><path id="circle4566" d="M142.765,398.556c12.606,2.369 20.917,14.526 18.549,27.132c-2.369,12.607 -14.526,20.918 -27.132,18.55c-12.607,-2.369 -20.918,-14.526 -18.55,-27.132c2.369,-12.607 14.526,-20.918 27.133,-18.55Z" style="fill:#fff;"/><path id="rect4568" d="M495.325,140.787l0.467,-38.927l-206.624,-0.767l-0.468,38.926l206.625,0.768Z" style="fill:#fff;"/><path id="rect4570" d="M495.328,141.107l0.238,-38.926l-104.967,-0.768l-0.238,38.926l104.967,0.768Z" style="fill:#fff;"/></svg>