<?xml version="1.0" encoding="UTF-8" standalone="no"?><!DOCTYPE svg PUBLIC "-//W3C//DTD SVG 1.1//EN" "http://www.w3.org/Graphics/SVG/1.1/DTD/svg11.dtd"><svg width="100%" height="100%" viewBox="0 0 580 580" version="1.1" xmlns="http://www.w3.org/2000/svg" xmlns:xlink="http://www.w3.org/1999/xlink" xml:space="preserve" xmlns:serif="http://www.serif.com/" style="fill-rule:evenodd;clip-rule:evenodd;stroke-linecap:round;stroke-linejoin:round;stroke-miterlimit:1.5;"><ellipse cx="388.197" cy="422.389" rx="292.393" ry="296.493" style="fill:none;stroke:#fff;stroke-width:86.83px;"/><path d="M421.145,91.067l-39.253,-7.36c-49.065,-9.813 -98.131,-22.079 -142.29,9.813l-51.519,34.346l-46.613,39.252l-36.798,36.8c-15.329,13.303 -29.299,28.096 -41.705,44.158l-12.268,24.534c-4.633,7.564 -7.95,15.859 -9.812,24.533c-0.283,8.222 -1.103,16.416 -2.454,24.532c-6.776,21.417 -10.089,43.778 -9.812,66.239c0,7.359 2.453,12.267 2.453,19.626c0,7.36 0,14.719 0,22.079c-2.468,7.989 -4.112,16.209 -4.908,24.533c-0.42,9.877 0.403,19.769 2.455,29.44c8.701,16.841 29.064,24.342 46.612,17.172l29.439,-17.172l41.706,-29.44c13.429,-10.953 28.285,-20.031 44.159,-26.986c18.517,-4.672 37.907,-4.672 56.424,0l29.44,4.906l78.505,0l53.971,-7.359c14.372,-2.279 28.39,-6.402 41.707,-12.266c19.626,-9.813 26.985,-36.8 31.893,-53.973c3.501,-10.847 7.596,-21.493 12.266,-31.893c5.311,-10.491 12.847,-19.701 22.079,-26.985l24.533,-17.174c7.36,-7.359 12.266,-4.906 19.627,0l29.438,7.361c22.015,6.162 45.72,-0.475 61.332,-17.173c7.36,-7.36 7.36,-19.626 9.813,-29.44c4.188,-6.663 6.713,-14.236 7.36,-22.079c0,-12.267 -17.173,-22.08 -24.532,-29.439c-35.836,-32.714 -77.428,-58.501 -122.665,-76.052c-32.816,-10.859 -66.453,-19.062 -100.583,-24.533Z" style="fill:none;stroke:#fff;stroke-width:86.83px;stroke-linecap:butt;stroke-miterlimit:1.41421;"/><ellipse cx="388.197" cy="423.77" rx="292.393" ry="296.493" style="fill:none;stroke:#595757;stroke-width:43.42px;"/><path d="M421.145,91.067l-39.253,-7.36c-49.065,-9.813 -98.131,-22.079 -142.29,9.813l-51.519,34.346l-46.613,39.252l-36.798,36.8c-15.329,13.303 -29.299,28.096 -41.705,44.158l-12.268,24.534c-4.633,7.564 -7.95,15.859 -9.812,24.533c-0.283,8.222 -1.103,16.416 -2.454,24.532c-6.776,21.417 -10.089,43.778 -9.812,66.239c0,7.359 2.453,12.267 2.453,19.626c0,7.36 0,14.719 0,22.079c-2.468,7.989 -4.112,16.209 -4.908,24.533c-0.42,9.877 0.403,19.769 2.455,29.44c8.701,16.841 29.064,24.342 46.612,17.172l29.439,-17.172l41.706,-29.44c13.429,-10.953 28.285,-20.031 44.159,-26.986c18.517,-4.672 37.907,-4.672 56.424,0l29.44,4.906l78.505,0l53.971,-7.359c14.372,-2.279 28.39,-6.402 41.707,-12.266c19.626,-9.813 26.985,-36.8 31.893,-53.973c3.501,-10.847 7.596,-21.493 12.266,-31.893c5.311,-10.491 12.847,-19.701 22.079,-26.985l24.533,-17.174c7.36,-7.359 12.266,-4.906 19.627,0l29.438,7.361c22.015,6.162 45.72,-0.475 61.332,-17.173c7.36,-7.36 7.36,-19.626 9.813,-29.44c4.188,-6.663 6.713,-14.236 7.36,-22.079c0,-12.267 -17.173,-22.08 -24.532,-29.439c-35.836,-32.714 -77.428,-58.501 -122.665,-76.052c-32.816,-10.859 -66.453,-19.062 -100.583,-24.533Z" style="fill:#1b691b;fill-rule:nonzero;"/><path d="M340.486,307.956l10.844,-1.139l0.35,6.472l-3.219,9.88l-3.804,9.055l1.173,10.647l10.438,1.755l9.038,-7.415l5.332,-14.817l3.388,-17.438l5.024,-16.988l3.607,-13.035l4.73,-9.357l9.166,-1.932l4.102,3.353l-4.883,6.681l-4.314,10.093l-4.153,9.632l-2.432,9.875l-3.106,11.194l0.258,4.14l7.013,-4.158l10.345,-6.31l6.343,-3.701l9.121,-2.76l6.949,1.55l-8.971,5.891l-9.538,3.571l-6.992,6.945l-2.311,5.003l5.629,6.16l3.988,6.861l7.911,5.478l10.354,-6.058l2.432,-14.305l5.397,-14.272l10.466,-8.098l11.397,-1.556l10.21,4.909l0.55,14.258l-5.844,8.813l-11.195,2.927l-9.637,-0.482l-0.589,10.495l7.606,5.286l10.962,-1.554l7.729,-7.3l11.502,-11.131l5.452,-4.142l-0.201,9.014l-6.654,9.158l-10.46,6.962l-11.059,3.496l-12.082,0.98l-10.005,-4.32l-2.559,-4.003l-7.485,4.749l-12.988,0.749l-11.085,-2.133l-7.916,-13.961l-6.059,-0.186l-3.964,6.851l-0.806,7.856l-3.184,4.636l-6.665,-0.502l-4.443,-1.94l-4.557,2.932l-9.24,0.367l-7.726,-3.156l-5.072,-7.57l-1.068,-11.66l1.38,-9.347l3.96,-6.91l2.12,-5.038Zm-91.181,-26.385l2.436,-9.942l1.812,-10.515l7.1,-7.191l20.177,-0.609l16.93,0.666l17.58,4.317l10.737,9.867l7.72,11.936l-8.932,8.758l-17.141,5.89l-10.048,5.145l0.168,3.139l9.353,-0.176l5.754,3.301l10.919,9.285l0.462,8.342l-6.363,12.094l-16.827,5.75l-11.164,6.16l-15.634,2.404l-12.816,1.088l-15.654,-0.851l-10.7,-7.181l-0.81,-16.667l7.2,-20.426l3.014,-14.768l4.727,-9.816Zm-133.198,-69.085l10.634,11.416l19.565,8.27l19.589,4.187l23.233,3.478l22.374,2.196l14.348,1.95l0.238,9.238l-4.401,5.859l-12.537,0.644l-19.876,-1.188l-4.875,-0.672l-5.194,6.943l-7.626,6.343l-4.999,8.71l-7.505,9.126l-5.33,10.948l-4.171,10.753l0.603,11.338l-2.165,18.637l2.393,8.092l-4.512,0.927l-4.669,-7.764l-2.112,-13.749l-1.193,-19.956l4.942,-21.054l7.577,-14.526l10.089,-10.148l7.732,-7.095l-9.607,-5.078l-17.325,-7.66l-14.875,-7.582l-11.26,-11.001l0.915,-11.582Zm143.153,96.684l16.077,0.219l20.686,-0.56l10.604,4.671l2.559,8.404l-10.688,7.761l-14.26,7.352l-8.977,3.494l-11.305,2.557l-13.052,-0.872l-0.925,-7.201l4.405,-12.29l2.077,-9.051l2.799,-4.484Zm179.181,11.083l1.696,-8.35l4.455,-3.83l5.966,-0.62l1.021,5.713l-0.896,7.409l-2.334,3.834l-7.06,0.523l-2.848,-4.679Zm-262.484,-26.814l12.589,-0.356l18.609,-0.81l15.353,2.026l5.522,5.426l-7.764,2.772l-11.075,0.874l-11.588,0.762l-16.476,-0.611l-7.046,-6.156l1.876,-3.927Zm163.391,1.877l7.423,-4.575l11.693,2.091l0.504,5.106l-5.137,3.765l-8.565,-1.027l-5.918,-5.36Zm-74.807,-5.256l2.778,-13.234l5.174,-11.679l7.784,-0.473l20.21,-0.334l11.33,0.508l6.326,5.315l-4.698,10.145l-8.116,5.198l-13.198,5.422l-11.799,2.298l-9.646,3.06l-9.847,1.767l3.702,-7.993Z" style="fill:#fff;stroke:#000;stroke-width:0.75px;"/></svg>