<?xml version="1.0" encoding="UTF-8" standalone="no"?>
<!DOCTYPE svg PUBLIC "-//W3C//DTD SVG 1.1//EN" "http://www.w3.org/Graphics/SVG/1.1/DTD/svg11.dtd">
<svg width="100%" height="100%" viewBox="0 0 10 10" version="1.1" xmlns="http://www.w3.org/2000/svg" xmlns:xlink="http://www.w3.org/1999/xlink" xml:space="preserve" xmlns:serif="http://www.serif.com/" style="fill-rule:evenodd;clip-rule:evenodd;stroke-linejoin:round;stroke-miterlimit:1.41421;">
    <g id="g683" transform="matrix(1,0,0,1,-210.568,-733.15)">
        <path id="path691" d="M214.504,735.318C214.529,735.215 214.465,735.115 214.365,735.089L213.814,734.956C213.71,734.933 213.609,734.993 213.585,735.095L213.122,737.011C213.097,737.114 213.159,737.214 213.261,737.24L213.814,737.373C213.914,737.398 214.017,737.336 214.041,737.234L214.504,735.318Z" style="fill:rgb(115,74,8);fill-rule:nonzero;stroke:white;stroke-width:0.8px;"/>
        <path id="path693" d="M217.046,742.133C217.046,742.137 217.044,742.141 217.044,742.143C217.044,742.227 217.112,742.295 217.196,742.295C217.272,742.295 217.337,742.236 217.346,742.162L218.455,736.143C218.455,736.139 218.455,736.135 218.455,736.131C218.455,736.049 218.389,735.982 218.305,735.982C218.229,735.982 218.17,736.041 218.155,736.115L217.046,742.133Z" style="fill:rgb(115,74,8);fill-rule:nonzero;stroke:white;stroke-width:0.8px;"/>
        <path id="path695" d="M213.355,741.738C213.349,741.768 213.347,741.8 213.347,741.832C213.347,742.09 213.554,742.297 213.812,742.297C214.023,742.297 214.201,742.156 214.257,741.965L215.056,738.658L215.818,741.945C215.867,742.148 216.05,742.297 216.267,742.297C216.525,742.297 216.732,742.09 216.732,741.832C216.732,741.797 216.728,741.764 216.722,741.73L215.677,737.363L215.765,736.977L215.833,737.281C215.895,737.477 216.075,737.498 216.075,737.498L217.151,737.77C217.172,737.775 217.194,737.777 217.215,737.777C217.391,737.777 217.533,737.635 217.533,737.461C217.533,737.311 217.429,737.184 217.289,737.15L216.357,736.916L216.101,735.877C215.98,735.297 215.425,735.311 215.425,735.311C214.886,735.297 214.751,735.865 214.751,735.865L213.355,741.738Z" style="fill:rgb(115,74,8);fill-rule:nonzero;stroke:white;stroke-width:0.8px;"/>
        <circle id="circle689" cx="215.621" cy="734.548" r="0.661" style="fill:white;stroke:white;stroke-width:0.8px;"/>
        <circle id="circle6891" serif:id="circle689" cx="215.621" cy="734.548" r="0.661" style="fill:rgb(115,74,8);"/>
        <path id="path6911" serif:id="path691" d="M214.504,735.318C214.529,735.215 214.465,735.115 214.365,735.089L213.814,734.956C213.71,734.933 213.609,734.993 213.585,735.095L213.122,737.011C213.097,737.114 213.159,737.214 213.261,737.24L213.814,737.373C213.914,737.398 214.017,737.336 214.041,737.234L214.504,735.318Z" style="fill:rgb(115,74,8);fill-rule:nonzero;"/>
        <path id="path6931" serif:id="path693" d="M217.046,742.133C217.046,742.137 217.044,742.141 217.044,742.143C217.044,742.227 217.112,742.295 217.196,742.295C217.272,742.295 217.337,742.236 217.346,742.162L218.455,736.143C218.455,736.139 218.455,736.135 218.455,736.131C218.455,736.049 218.389,735.982 218.305,735.982C218.229,735.982 218.17,736.041 218.155,736.115L217.046,742.133Z" style="fill:rgb(115,74,8);fill-rule:nonzero;"/>
        <path id="path6951" serif:id="path695" d="M213.355,741.738C213.349,741.768 213.347,741.8 213.347,741.832C213.347,742.09 213.554,742.297 213.812,742.297C214.023,742.297 214.201,742.156 214.257,741.965L215.056,738.658L215.818,741.945C215.867,742.148 216.05,742.297 216.267,742.297C216.525,742.297 216.732,742.09 216.732,741.832C216.732,741.797 216.728,741.764 216.722,741.73L215.677,737.363L215.765,736.977L215.833,737.281C215.895,737.477 216.075,737.498 216.075,737.498L217.151,737.77C217.172,737.775 217.194,737.777 217.215,737.777C217.391,737.777 217.533,737.635 217.533,737.461C217.533,737.311 217.429,737.184 217.289,737.15L216.357,736.916L216.101,735.877C215.98,735.297 215.425,735.311 215.425,735.311C214.886,735.297 214.751,735.865 214.751,735.865L213.355,741.738Z" style="fill:rgb(115,74,8);fill-rule:nonzero;"/>
    </g>
</svg>
