<?xml version="1.0" encoding="UTF-8" standalone="no"?><!DOCTYPE svg PUBLIC "-//W3C//DTD SVG 1.1//EN" "http://www.w3.org/Graphics/SVG/1.1/DTD/svg11.dtd"><svg width="100%" height="100%" viewBox="0 0 580 580" version="1.1" xmlns="http://www.w3.org/2000/svg" xmlns:xlink="http://www.w3.org/1999/xlink" xml:space="preserve" xmlns:serif="http://www.serif.com/" style="fill-rule:evenodd;clip-rule:evenodd;stroke-linejoin:round;stroke-miterlimit:1.41421;"><path id="path4140" d="M321.91,318.769c-0.081,-17.487 -6.099,-27.696 -29.765,-28.747c-21.708,-0.965 -26.398,30.451 -26.398,30.451c0.041,71.034 0.237,84.429 0.816,170.111c1.854,9.958 13.2,8.916 20.842,8.684c9.031,-0.695 18.526,1.505 27.209,-1.274c9.148,-5.557 4.516,-17.599 5.674,-26.283l1.621,-152.942l0.001,0Z" style="fill:none;stroke:#fff;stroke-width:74.1px;"/><path id="path41401" serif:id="path4140" d="M321.91,318.769c-0.081,-17.487 -6.099,-27.696 -29.765,-28.747c-21.708,-0.965 -26.398,30.451 -26.398,30.451c0.041,71.034 0.237,84.429 0.816,170.111c1.854,9.958 13.2,8.916 20.842,8.684c9.031,-0.695 18.526,1.505 27.209,-1.274c9.148,-5.557 4.516,-17.599 5.674,-26.283l1.621,-152.942l0.001,0Z" style="fill:#734a08;"/><circle cx="293.829" cy="320.12" r="14.779" style="fill:#fff;"/></svg>