<?xml version="1.0" encoding="UTF-8" standalone="no"?><!DOCTYPE svg PUBLIC "-//W3C//DTD SVG 1.1//EN" "http://www.w3.org/Graphics/SVG/1.1/DTD/svg11.dtd"><svg width="100%" height="100%" viewBox="0 0 580 580" version="1.1" xmlns="http://www.w3.org/2000/svg" xmlns:xlink="http://www.w3.org/1999/xlink" xml:space="preserve" xmlns:serif="http://www.serif.com/" style="fill-rule:evenodd;clip-rule:evenodd;stroke-linejoin:round;"><path id="path4137" d="M350.2,236.8l-1.6,22l36,0.1c15.7,3.2 -8.7,10.7 -11,19c-1.6,9.4 2.4,17.9 4.4,25.6l-164,0.8l-9.7,-23.7c10.4,-2.4 35.8,-8.4 39,-11.8c4.1,-3.8 0,-9.4 -3.2,-9.4l-85,0c1.1,18.8 15.8,22.9 23.8,24l9.4,23c-10.7,20 -21,37 -31,56c-83,-24 -122,38.6 -123,84c0,50 40,90 90,90c46.6,0 85,-35.7 90,-81l21.5,0c2.4,4.4 6.4,8 11.3,10.3l-9,21l-16.2,0.1c-9,1.2 -6.7,12.4 0.1,12.5l36,-0.3c9.2,-1.1 6.8,-12.5 -0.1,-12.5l-10.3,0.1l7.9,-18.4c23,1.9 31.7,-15.6 29,-27.5l112,-76c1,3.4 1.9,6.7 2.9,9.9c-20.5,16.5 -33.7,41.8 -33.7,70c0,50 40,90 90,90c50,0 90,-40 90,-90c-3,-57 -47.9,-104 -124,-83c-10,-23.9 -21.9,-61 -22.9,-75c1.7,-9.7 16,-10.5 18.4,-23c-1.7,-23.9 -21.3,-27.7 -41.1,-27.6c-9.1,0 -18.3,0.8 -25.9,0.8Zm39.6,107.2l-0.1,0c-37.6,26.9 -75,53.9 -114,79l7.7,-17.6c7.2,-0.2 6.6,-0.1 15,-0.6c9.2,-1.7 6,-12.4 0.1,-12.4l-36,0.3c-9.2,1.1 -6.8,12.5 0.1,12.5l10.3,-0.1l-7.7,17.9c-0.7,-0.2 -1.5,-0.3 -2.2,-0.4l-39.9,-98c37,0 104,-0.2 160.95,-0.4c1.75,6.1 3.65,12.8 5.75,19.8Zm-149.7,86.4c-1.4,1.4 -2.6,3 -3.6,4.7l-22,0c-3.4,-25.7 -17.4,-47.7 -37,-61.7l22.7,-42l39.9,99Zm280.2,14.6c0.1,35.7 -28.6,64 -63.9,64l0.2,0.4c-58.8,-3.1 -81,-59 -48,-107c4.2,15.2 11,31.5 22,41.6l0.2,0.2c32.5,29.6 53,5.1 15.3,-18.2c-8,-11.2 -12.5,-25 -16.8,-39c10.6,-4.9 20.5,-7 29.9,-6.9c36.1,0.2 60.1,33.8 61.1,64.9Zm-373.2,-58.5l-29,53.9c-3.7,6.8 1.3,15 9,15l62.8,0c-4.3,31.5 -31,56 -63.8,56c-35.7,0 -64,-28.6 -64,-64c-0.1,-35 23.4,-64 62,-64.1c7.2,-0.1 14.8,1 23,3.2Zm41.6,49.3l-44.9,0l21,-39c12.3,9.5 21,23.3 23.9,39Z" style="fill:none;stroke:#fff;stroke-opacity:0.8;stroke-width:64px;"/><path d="M91.344,133.731c5.652,-9.184 16.249,-14.129 26.493,-17.309c-4.239,3.886 -8.124,8.478 -10.95,13.07c-2.826,3.886 -4.239,8.125 -4.593,12.011c-2.119,9.184 0.707,18.016 5.299,26.493c-3.532,-0.353 -7.065,-1.059 -10.244,-2.472c-11.304,-4.592 -11.657,-22.255 -6.005,-31.793Zm80.187,-5.298c-2.12,-1.766 -4.946,-3.179 -7.418,-4.239c0,-3.179 -0.707,-6.005 -1.767,-8.478c0.707,0.353 1.767,0.706 2.473,1.06c4.592,2.826 6.712,7.065 6.712,11.657Zm-29.32,-6.359c-2.472,-0.706 -4.945,-1.413 -7.771,-1.413c1.766,-0.706 3.179,-1.413 4.945,-2.119c3.886,-1.06 9.538,-0.707 11.658,3.179c-2.826,-0.353 -5.652,0 -8.832,0.353Zm1.413,15.896l0,3.533l-0.706,2.119c-0.707,2.826 -2.473,6.006 -4.592,9.185c-2.473,0 -4.593,0 -6.712,-0.353c-2.826,0 -6.359,-0.707 -9.538,-1.767c0.707,-3.179 2.826,-6.358 7.065,-9.537c3.533,-2.473 7.418,-4.593 11.657,-5.652c1.413,0.706 2.12,1.766 2.826,2.472Zm-27.2,42.743c1.767,2.473 3.533,4.239 5.299,6.359c5.652,6.005 15.543,-2.473 9.538,-8.478l-0.707,-1.06c2.826,-1.06 5.652,-2.119 8.478,-3.532c6.359,-2.826 13.07,-6.712 18.722,-12.011c17.309,-6.711 31.439,-21.901 24.728,-43.449c-8.478,-26.494 -50.515,-20.489 -68.884,-14.483c-14.836,4.592 -30.379,13.776 -36.031,29.672c-5.652,16.956 -0.706,35.325 14.13,43.803c7.418,3.886 16.249,4.592 24.727,3.179Z" style="fill:none;stroke:#fff;stroke-width:64px;stroke-miterlimit:1.41421;"/><path d="M417.745,165.524c-11.304,-4.592 -11.658,-22.255 -6.006,-31.793c5.652,-9.184 16.603,-14.129 26.847,-17.309c-4.592,3.886 -8.478,8.478 -11.304,13.07c-2.473,3.886 -4.239,8.125 -4.239,12.011c-2.472,9.184 0.353,18.369 4.946,26.493c-3.533,-0.353 -7.065,-1.059 -10.244,-2.472Zm74.182,-37.091c-2.12,-1.766 -4.946,-3.179 -7.419,-4.239c0,-3.179 -0.353,-6.005 -1.766,-8.478c0.707,0.353 1.766,0.706 2.473,1.06c4.592,2.826 6.712,7.065 6.712,11.657Zm-29.32,-6.359c-2.12,-1.059 -4.945,-1.413 -7.771,-1.413c1.766,-0.706 3.532,-1.413 4.945,-2.119c3.886,-1.06 9.538,-1.06 11.657,3.179c-2.826,-0.353 -5.652,0 -8.831,0.353Zm1.06,15.896c0.706,1.413 0.706,2.473 0.706,3.533l-1.06,2.119c-0.706,2.826 -2.472,6.359 -4.945,9.185c-2.119,0 -4.239,0 -6.358,-0.353c-2.473,0 -6.359,-0.707 -9.538,-1.767c0.706,-3.179 2.826,-6.358 7.065,-9.537c3.179,-2.473 7.418,-4.593 12.01,-5.652c1.06,0.706 1.766,1.766 2.12,2.472Zm14.483,24.021c17.309,-6.711 31.792,-21.901 24.727,-43.449c-8.478,-26.494 -50.161,-20.489 -68.883,-14.483c-14.483,4.945 -30.379,13.776 -36.031,29.672c-5.652,16.956 -0.707,35.678 14.483,43.803c7.418,3.886 15.896,4.592 24.374,3.179c2.119,2.12 3.886,4.239 5.652,6.359c5.652,6.005 15.19,-2.473 9.538,-8.478l-1.06,-1.06c2.826,-1.06 5.652,-2.119 8.478,-3.532c6.358,-2.826 13.07,-6.712 18.722,-12.011Z" style="fill:none;stroke:#fff;stroke-width:64px;stroke-miterlimit:1.41421;"/><path d="M422.337,242.885l-1.06,0c-5.652,0 -13.423,5.299 -14.483,13.423c-0.353,1.413 0,0.707 -0.353,2.12c-8.125,59.345 -45.216,102.795 -98.91,121.517c-47.688,16.603 -105.974,10.597 -146.244,-22.255c-32.146,-26.14 -41.683,-68.176 -35.678,-109.153c1.413,-8.831 -9.538,-12.717 -15.543,-10.951c-4.946,1.06 -7.772,3.533 -9.891,7.065c-1.766,3.886 -2.826,7.772 -3.533,11.657c-8.831,58.286 17.31,110.567 66.058,137.414c48.395,27.2 108.447,30.732 160.727,13.776c61.112,-20.135 108.094,-70.296 114.099,-139.532l0,-2.473c0.707,-15.543 -6.711,-22.608 -15.189,-22.608Z" style="fill:none;stroke:#fff;stroke-width:64px;stroke-miterlimit:1.41421;"/><path id="path596-0" d="M350.2,236.8l-1.6,22l36,0.1c15.7,3.2 -8.7,10.7 -11,19c-1.6,9.4 2.4,17.9 4.4,25.6l-164,0.8l-9.7,-23.7c10.4,-2.4 35.8,-8.4 39,-11.8c4.1,-3.8 0,-9.4 -3.2,-9.4l-85,0c1.1,18.8 15.8,22.9 23.8,24l9.4,23c-10.7,20 -21,37 -31,56c-83,-24 -122,38.6 -123,84c0,50 40,90 90,90c46.6,0 85,-35.7 90,-81l21.5,0c2.4,4.4 6.4,8 11.3,10.3l-9,21l-16.2,0.1c-9,1.2 -6.7,12.4 0.1,12.5l36,-0.3c9.2,-1.1 6.8,-12.5 -0.1,-12.5l-10.3,0.1l7.9,-18.4c23,1.9 31.7,-15.6 29,-27.5l112,-76c1,3.4 1.9,6.7 2.9,9.9c-20.5,16.5 -33.7,41.8 -33.7,70c0,50 40,90 90,90c50,0 90,-40 90,-90c-3,-57 -47.9,-104 -124,-83c-10,-23.9 -21.9,-61 -22.9,-75c1.7,-9.7 16,-10.5 18.4,-23c-1.7,-23.9 -21.3,-27.7 -41.1,-27.6c-9.1,0 -18.3,0.8 -25.9,0.8Zm39.6,107.2l-0.1,0c-37.6,26.9 -75,53.9 -114,79l7.7,-17.6c7.2,-0.2 6.6,-0.1 15,-0.6c9.2,-1.7 6,-12.4 0.1,-12.4l-36,0.3c-9.2,1.1 -6.8,12.5 0.1,12.5l10.3,-0.1l-7.7,17.9c-0.7,-0.2 -1.5,-0.3 -2.2,-0.4l-39.9,-98c37,0 104,-0.2 160.95,-0.4c1.75,6.1 3.65,12.8 5.75,19.8Zm-149.7,86.4c-1.4,1.4 -2.6,3 -3.6,4.7l-22,0c-3.4,-25.7 -17.4,-47.7 -37,-61.7l22.7,-42l39.9,99Zm280.2,14.6c0.1,35.7 -28.6,64 -63.9,64l0.2,0.4c-58.8,-3.1 -81,-59 -48,-107c4.2,15.2 11,31.5 22,41.6l0.2,0.2c32.5,29.6 53,5.1 15.3,-18.2c-8,-11.2 -12.5,-25 -16.8,-39c10.6,-4.9 20.5,-7 29.9,-6.9c36.1,0.2 60.1,33.8 61.1,64.9Zm-373.2,-58.5l-29,53.9c-3.7,6.8 1.3,15 9,15l62.8,0c-4.3,31.5 -31,56 -63.8,56c-35.7,0 -64,-28.6 -64,-64c-0.1,-35 23.4,-64 62,-64.1c7.2,-0.1 14.8,1 23,3.2Zm41.6,49.3l-44.9,0l21,-39c12.3,9.5 21,23.3 23.9,39Z" style="fill:#f46437;fill-rule:nonzero;"/><path d="M91.344,133.731c5.652,-9.184 16.249,-14.129 26.493,-17.309c-4.239,3.886 -8.124,8.478 -10.95,13.07c-2.826,3.886 -4.239,8.125 -4.593,12.011c-2.119,9.184 0.707,18.016 5.299,26.493c-3.532,-0.353 -7.065,-1.059 -10.244,-2.472c-11.304,-4.592 -11.657,-22.255 -6.005,-31.793Zm80.187,-5.298c-2.12,-1.766 -4.946,-3.179 -7.418,-4.239c0,-3.179 -0.707,-6.005 -1.767,-8.478c0.707,0.353 1.767,0.706 2.473,1.06c4.592,2.826 6.712,7.065 6.712,11.657Zm-29.32,-6.359c-2.472,-0.706 -4.945,-1.413 -7.771,-1.413c1.766,-0.706 3.179,-1.413 4.945,-2.119c3.886,-1.06 9.538,-0.707 11.658,3.179c-2.826,-0.353 -5.652,0 -8.832,0.353Zm1.413,15.896l0,3.533l-0.706,2.119c-0.707,2.826 -2.473,6.006 -4.592,9.185c-2.473,0 -4.593,0 -6.712,-0.353c-2.826,0 -6.359,-0.707 -9.538,-1.767c0.707,-3.179 2.826,-6.358 7.065,-9.537c3.533,-2.473 7.418,-4.593 11.657,-5.652c1.413,0.706 2.12,1.766 2.826,2.472Zm-27.2,42.743c1.767,2.473 3.533,4.239 5.299,6.359c5.652,6.005 15.543,-2.473 9.538,-8.478l-0.707,-1.06c2.826,-1.06 5.652,-2.119 8.478,-3.532c6.359,-2.826 13.07,-6.712 18.722,-12.011c17.309,-6.711 31.439,-21.901 24.728,-43.449c-8.478,-26.494 -50.515,-20.489 -68.884,-14.483c-14.836,4.592 -30.379,13.776 -36.031,29.672c-5.652,16.956 -0.706,35.325 14.13,43.803c7.418,3.886 16.249,4.592 24.727,3.179Z" style="fill:#b0c81c;fill-rule:nonzero;stroke:#000;stroke-width:4px;stroke-miterlimit:1.41421;"/><path d="M417.745,165.524c-11.304,-4.592 -11.658,-22.255 -6.006,-31.793c5.652,-9.184 16.603,-14.129 26.847,-17.309c-4.592,3.886 -8.478,8.478 -11.304,13.07c-2.473,3.886 -4.239,8.125 -4.239,12.011c-2.472,9.184 0.353,18.369 4.946,26.493c-3.533,-0.353 -7.065,-1.059 -10.244,-2.472Zm74.182,-37.091c-2.12,-1.766 -4.946,-3.179 -7.419,-4.239c0,-3.179 -0.353,-6.005 -1.766,-8.478c0.707,0.353 1.766,0.706 2.473,1.06c4.592,2.826 6.712,7.065 6.712,11.657Zm-29.32,-6.359c-2.12,-1.059 -4.945,-1.413 -7.771,-1.413c1.766,-0.706 3.532,-1.413 4.945,-2.119c3.886,-1.06 9.538,-1.06 11.657,3.179c-2.826,-0.353 -5.652,0 -8.831,0.353Zm1.06,15.896c0.706,1.413 0.706,2.473 0.706,3.533l-1.06,2.119c-0.706,2.826 -2.472,6.359 -4.945,9.185c-2.119,0 -4.239,0 -6.358,-0.353c-2.473,0 -6.359,-0.707 -9.538,-1.767c0.706,-3.179 2.826,-6.358 7.065,-9.537c3.179,-2.473 7.418,-4.593 12.01,-5.652c1.06,0.706 1.766,1.766 2.12,2.472Zm14.483,24.021c17.309,-6.711 31.792,-21.901 24.727,-43.449c-8.478,-26.494 -50.161,-20.489 -68.883,-14.483c-14.483,4.945 -30.379,13.776 -36.031,29.672c-5.652,16.956 -0.707,35.678 14.483,43.803c7.418,3.886 15.896,4.592 24.374,3.179c2.119,2.12 3.886,4.239 5.652,6.359c5.652,6.005 15.19,-2.473 9.538,-8.478l-1.06,-1.06c2.826,-1.06 5.652,-2.119 8.478,-3.532c6.358,-2.826 13.07,-6.712 18.722,-12.011Z" style="fill:#b0c81c;fill-rule:nonzero;stroke:#000;stroke-width:4px;stroke-miterlimit:1.41421;"/><path d="M422.337,242.885l-1.06,0c-5.652,0 -13.423,5.299 -14.483,13.423c-0.353,1.413 0,0.707 -0.353,2.12c-8.125,59.345 -45.216,102.795 -98.91,121.517c-47.688,16.603 -105.974,10.597 -146.244,-22.255c-32.146,-26.14 -41.683,-68.176 -35.678,-109.153c1.413,-8.831 -9.538,-12.717 -15.543,-10.951c-4.946,1.06 -7.772,3.533 -9.891,7.065c-1.766,3.886 -2.826,7.772 -3.533,11.657c-8.831,58.286 17.31,110.567 66.058,137.414c48.395,27.2 108.447,30.732 160.727,13.776c61.112,-20.135 108.094,-70.296 114.099,-139.532l0,-2.473c0.707,-15.543 -6.711,-22.608 -15.189,-22.608Z" style="fill:#b0c81c;fill-rule:nonzero;stroke:#000;stroke-width:4px;stroke-miterlimit:1.41421;"/></svg>