<?xml version="1.0" encoding="UTF-8" standalone="no"?>
<svg xmlns="http://www.w3.org/2000/svg" version="1.1" width="24" height="24" viewBox="0 0 24 24" enable-background="new 0 0 24 24">
 <metadata id="metadata12"/>
 <path d="M12,23.25C5.797,23.25,0.75,18.203,0.75,12S5.797,0.75,12,0.75S23.25,5.797,23.25,12    S18.203,23.25,12,23.25L12,23.25z" fill="#ffffff" id="path4"/>
 <path id="path4177" d="M 12.000002,24 C 5.400006,24 0,18.600055 0,11.999999 0,5.4000026 5.400006,6.373815e-7 12.000002,6.373815e-7 18.600058,6.373815e-7 24,5.4000026 24,11.999999 24,18.600055 18.600058,24 12.000002,24 l 0,0 z" fill="#ffffff"/>
 <path id="path4179" d="m 12.000002,0.97499923 c -6.0749904,0 -11.02499978,4.95000887 -11.02499978,11.02499977 0,6.075051 4.95000938,11.024992 11.02499978,11.024992 6.075051,0 11.024993,-4.949941 11.024993,-11.024992 0,-6.0749909 -4.949942,-11.02499977 -11.024993,-11.02499977 z m 0,3.00000467 c 4.425036,0 8.025066,3.5999978 8.025066,8.0249951 0,4.425039 -3.60003,8.025069 -8.025066,8.025069 -4.4249968,0 -8.0249984,-3.60003 -8.0249984,-8.025069 0,-4.4249973 3.6000016,-8.0249951 8.0249984,-8.0249951 z"/>
</svg>
