<?xml version="1.0" encoding="UTF-8" standalone="no"?>
<!DOCTYPE svg PUBLIC "-//W3C//DTD SVG 1.1//EN" "http://www.w3.org/Graphics/SVG/1.1/DTD/svg11.dtd">
<svg width="100%" height="100%" viewBox="0 0 435 435" version="1.1" xmlns="http://www.w3.org/2000/svg" xmlns:xlink="http://www.w3.org/1999/xlink" xml:space="preserve" xmlns:serif="http://www.serif.com/" style="fill-rule:evenodd;clip-rule:evenodd;stroke-linejoin:round;">
    <path id="path4137" d="M205.5,60.5L205.5,108.5L157.5,108.5L157.5,132.5L205.5,132.5L205.5,178.1L85.5,374.5L349.5,374.5L229.5,178.5L229.5,132.5L277.5,132.5L277.5,108.5L229.5,108.5L229.5,60.5L205.5,60.5Z" style="fill:none;stroke:black;stroke-opacity:0.8;stroke-width:63.99px;"/>
    <path id="path4138" d="M205.5,60.5L205.5,108.5L157.5,108.5L157.5,132.5L205.5,132.5L205.5,178.1L85.5,374.5L349.5,374.5L229.5,178.5L229.5,132.5L277.5,132.5L277.5,108.5L229.5,108.5L229.5,60.5L205.5,60.5Z" style="fill:white;fill-rule:nonzero;"/>
    <path id="path4140" d="M217.54,204.49L306.73,350.47L128.35,350.47L217.54,204.49Z" style="fill:rgb(85,85,85);fill-rule:nonzero;"/>
</svg>
