<?xml version="1.0" encoding="UTF-8" standalone="no"?>
<!DOCTYPE svg PUBLIC "-//W3C//DTD SVG 1.1//EN" "http://www.w3.org/Graphics/SVG/1.1/DTD/svg11.dtd">
<svg width="100%" height="100%" viewBox="0 0 435 435" version="1.1" xmlns="http://www.w3.org/2000/svg" xmlns:xlink="http://www.w3.org/1999/xlink" xml:space="preserve" xmlns:serif="http://www.serif.com/" style="fill-rule:evenodd;clip-rule:evenodd;stroke-linejoin:round;stroke-miterlimit:1.41421;">
    <g id="Cancel" transform="matrix(6.64701,0,0,6.64701,-1078.67,-613.376)">
        <path d="M195,122.879L209.939,107.939C210.646,108.646 211.354,109.354 212.061,110.061L197.121,125L212.061,139.939L209.939,142.061L195,127.121L180.061,142.061L177.939,139.939L192.879,125L177.939,110.061L180.061,107.939L195,122.879Z" style="fill-opacity:0;stroke:black;stroke-width:4.81px;"/>
    </g>
    <g id="Cancel1" serif:id="Cancel" transform="matrix(6.64701,0,0,6.64701,-1078.67,-613.376)">
        <path d="M195,122.879L209.939,107.939C210.646,108.646 211.354,109.354 212.061,110.061L197.121,125L212.061,139.939L209.939,142.061L195,127.121L180.061,142.061L177.939,139.939L192.879,125L177.939,110.061L180.061,107.939L195,122.879Z" style="fill:rgb(221,221,221);stroke:white;stroke-width:1.43px;"/>
    </g>
</svg>
