<?xml version="1.0" encoding="UTF-8" standalone="no"?>
<!DOCTYPE svg PUBLIC "-//W3C//DTD SVG 1.1//EN" "http://www.w3.org/Graphics/SVG/1.1/DTD/svg11.dtd">
<svg width="100%" height="100%" viewBox="0 0 435 435" version="1.1" xmlns="http://www.w3.org/2000/svg" xmlns:xlink="http://www.w3.org/1999/xlink" xml:space="preserve" xmlns:serif="http://www.serif.com/" style="fill-rule:evenodd;clip-rule:evenodd;stroke-linecap:round;stroke-linejoin:round;stroke-miterlimit:1.5;">
    <g transform="matrix(-1.55475,1.41804,-1.41804,-1.55475,217.5,217.5)">
        <circle cx="0" cy="0" r="87.18" style="fill:none;stroke:black;stroke-width:39.92px;"/>
    </g>
    <g id="path4138" transform="matrix(1,0,0,1,0,-34)">
        <path d="M217.5,109.454L85.47,325.544L349.53,325.544L217.5,109.454Z" style="fill:none;stroke:white;stroke-opacity:0;stroke-width:63.99px;stroke-linecap:butt;stroke-miterlimit:4;"/>
    </g>
    <g id="path3" transform="matrix(1,0,0,1,0,-34)">
        <path d="M217.5,109.454L85.47,325.544L349.53,325.544L217.5,109.454Z" style="fill:white;fill-rule:nonzero;stroke:black;stroke-width:64px;stroke-linecap:butt;stroke-miterlimit:1.41421;"/>
    </g>
    <g id="path31" serif:id="path3" transform="matrix(1,0,0,1,0,-34)">
        <path d="M217.5,109.454L85.47,325.544L349.53,325.544L217.5,109.454Z" style="fill:white;fill-rule:nonzero;stroke:white;stroke-width:1px;stroke-linecap:butt;stroke-miterlimit:1.41421;"/>
    </g>
    <g id="path4140" transform="matrix(1,0,0,1,0,-34)">
        <path d="M217.5,155.534L306.69,301.424L128.31,301.424L217.5,155.534Z" style="fill:rgb(85,85,85);fill-rule:nonzero;"/>
    </g>
    <g transform="matrix(-1.55475,1.41804,-1.41804,-1.55475,217.5,217.5)">
        <circle cx="0" cy="0" r="87.18" style="fill:none;stroke:rgb(255,87,87);stroke-width:19.96px;"/>
    </g>
</svg>
