<?xml version="1.0" encoding="UTF-8" standalone="no"?>
<!DOCTYPE svg PUBLIC "-//W3C//DTD SVG 1.1//EN" "http://www.w3.org/Graphics/SVG/1.1/DTD/svg11.dtd">
<svg width="100%" height="100%" viewBox="0 0 419 374" version="1.1" xmlns="http://www.w3.org/2000/svg" xmlns:xlink="http://www.w3.org/1999/xlink" xml:space="preserve" xmlns:serif="http://www.serif.com/" style="fill-rule:evenodd;clip-rule:evenodd;stroke-linecap:round;stroke-linejoin:round;stroke-miterlimit:1.5;">
    <g transform="matrix(2,0,0,2,-220.662,-183.059)">
        <circle cx="215" cy="185" r="15" style="fill:none;stroke:white;stroke-width:32px;"/>
    </g>
    <g transform="matrix(1,0,0,1,-32.2699,-14.06)">
        <g transform="matrix(13.2928,-0.00824243,0.00719326,11.6008,182.657,61.9787)">
            <path d="M14,17C13.735,17 13.48,16.894 13.293,16.707L9.293,12.707C8.905,12.319 8.905,11.681 9.293,11.293L13.293,7.293C13.481,7.098 13.741,6.988 14.012,6.988C14.561,6.988 15.012,7.439 15.012,7.988C15.012,8.259 14.902,8.519 14.707,8.707L11.414,12L14.707,15.293C14.894,15.48 15,15.735 15,16C15,16.549 14.549,17 14,17Z" style="fill:none;fill-rule:nonzero;stroke:white;stroke-width:5.13px;stroke-linecap:butt;stroke-miterlimit:2;"/>
        </g>
        <g transform="matrix(13.2928,-0.00824243,0.00719326,11.6008,182.657,61.9787)">
            <path d="M14,17C13.735,17 13.48,16.894 13.293,16.707L9.293,12.707C8.905,12.319 8.905,11.681 9.293,11.293L13.293,7.293C13.481,7.098 13.741,6.988 14.012,6.988C14.561,6.988 15.012,7.439 15.012,7.988C15.012,8.259 14.902,8.519 14.707,8.707L11.414,12L14.707,15.293C14.894,15.48 15,15.735 15,16C15,16.549 14.549,17 14,17Z" style="fill:#734a08;fill-rule:nonzero;"/>
        </g>
    </g>
    <g transform="matrix(1,0,0,1,0.0682944,-9.92541)">
        <g transform="matrix(-0.00572526,-13.2928,11.6008,-0.0049965,70.2121,253.597)">
            <path d="M14,17C13.735,17 13.48,16.894 13.293,16.707L9.293,12.707C8.905,12.319 8.905,11.681 9.293,11.293L13.293,7.293C13.481,7.098 13.741,6.988 14.012,6.988C14.561,6.988 15.012,7.439 15.012,7.988C15.012,8.259 14.902,8.519 14.707,8.707L11.414,12L14.707,15.293C14.894,15.48 15,15.735 15,16C15,16.549 14.549,17 14,17Z" style="fill:none;fill-rule:nonzero;stroke:white;stroke-width:5.13px;stroke-linecap:butt;stroke-miterlimit:2;"/>
        </g>
        <g id="_-Curve-" serif:id="(Curve)" transform="matrix(-0.00572526,-13.2928,11.6008,-0.0049965,70.2121,253.597)">
            <path d="M14,17C13.735,17 13.48,16.894 13.293,16.707L9.293,12.707C8.905,12.319 8.905,11.681 9.293,11.293L13.293,7.293C13.481,7.098 13.741,6.988 14.012,6.988C14.561,6.988 15.012,7.439 15.012,7.988C15.012,8.259 14.902,8.519 14.707,8.707L11.414,12L14.707,15.293C14.894,15.48 15,15.735 15,16C15,16.549 14.549,17 14,17Z" style="fill:#734a08;fill-rule:nonzero;"/>
        </g>
    </g>
    <g transform="matrix(1,0,0,1,30.1745,-11.0013)">
        <g transform="matrix(-13.2928,0.00801051,-0.00699086,-11.6008,236.018,340.027)">
            <g>
                <path d="M14,17C13.735,17 13.48,16.894 13.293,16.707L9.293,12.707C8.905,12.319 8.905,11.681 9.293,11.293L13.293,7.293C13.481,7.098 13.741,6.988 14.012,6.988C14.561,6.988 15.012,7.439 15.012,7.988C15.012,8.259 14.902,8.519 14.707,8.707L11.414,12L14.707,15.293C14.894,15.48 15,15.735 15,16C15,16.549 14.549,17 14,17Z" style="fill:none;fill-rule:nonzero;stroke:white;stroke-width:5.13px;stroke-linecap:butt;stroke-miterlimit:2;"/>
            </g>
        </g>
        <g transform="matrix(-13.2928,0.00801051,-0.00699086,-11.6008,236.018,340.027)">
            <path d="M14,17C13.735,17 13.48,16.894 13.293,16.707L9.293,12.707C8.905,12.319 8.905,11.681 9.293,11.293L13.293,7.293C13.481,7.098 13.741,6.988 14.012,6.988C14.561,6.988 15.012,7.439 15.012,7.988C15.012,8.259 14.902,8.519 14.707,8.707L11.414,12L14.707,15.293C14.894,15.48 15,15.735 15,16C15,16.549 14.549,17 14,17Z" style="fill:#734a08;fill-rule:nonzero;"/>
        </g>
    </g>
    <g transform="matrix(1,0,0,1,0.73012,-9.07651)">
        <g transform="matrix(-0.00883454,13.2928,-11.6008,-0.00771,348.532,139.505)">
            <path d="M14,17C13.735,17 13.48,16.894 13.293,16.707L9.293,12.707C8.905,12.319 8.905,11.681 9.293,11.293L13.293,7.293C13.481,7.098 13.741,6.988 14.012,6.988C14.561,6.988 15.012,7.439 15.012,7.988C15.012,8.259 14.902,8.519 14.707,8.707L11.414,12L14.707,15.293C14.894,15.48 15,15.735 15,16C15,16.549 14.549,17 14,17Z" style="fill:none;fill-rule:nonzero;stroke:white;stroke-width:5.13px;stroke-linecap:butt;stroke-miterlimit:2;"/>
        </g>
        <g transform="matrix(-0.00883454,13.2928,-11.6008,-0.00771,348.532,139.505)">
            <path d="M14,17C13.735,17 13.48,16.894 13.293,16.707L9.293,12.707C8.905,12.319 8.905,11.681 9.293,11.293L13.293,7.293C13.481,7.098 13.741,6.988 14.012,6.988C14.561,6.988 15.012,7.439 15.012,7.988C15.012,8.259 14.902,8.519 14.707,8.707L11.414,12L14.707,15.293C14.894,15.48 15,15.735 15,16C15,16.549 14.549,17 14,17Z" style="fill:#734a08;fill-rule:nonzero;"/>
        </g>
    </g>
    <g transform="matrix(2,0,0,2,-220.662,-183.059)">
        <circle cx="215" cy="185" r="15" style="fill:#734a08;"/>
    </g>
</svg>
