<?xml version="1.0" encoding="UTF-8" standalone="no"?>
<!DOCTYPE svg PUBLIC "-//W3C//DTD SVG 1.1//EN" "http://www.w3.org/Graphics/SVG/1.1/DTD/svg11.dtd">
<svg width="100%" height="100%" viewBox="0 0 580 580" version="1.1" xmlns="http://www.w3.org/2000/svg" xmlns:xlink="http://www.w3.org/1999/xlink" xml:space="preserve" xmlns:serif="http://www.serif.com/" style="fill-rule:evenodd;clip-rule:evenodd;stroke-linecap:round;stroke-linejoin:round;stroke-miterlimit:2;">
    <path id="path3236" d="M86.6,423C133.3,397.2 189.6,379 234.6,392C280.5,406 318.6,439.6 365.6,449C419.4,462 475.6,447.4 523.6,423C517.6,405.8 508.3,388 506,380.4C463.1,397.1 409,410.4 369,399.1C303,375 263,343 201,337C153,337.7 105,356.5 65,382C67.2,389.8 82.4,418 86.6,423Z" style="fill:rgb(0,146,218);fill-rule:nonzero;stroke:white;stroke-width:32px;"/>
    <g id="path32361" serif:id="path3236" transform="matrix(1.54515,0,0,1.54515,52.1345,-37.6089)">
        <path d="M176.5,114.7C176.912,107.278 173.29,99.52 166.5,96.1C159.59,92.62 150.565,94.166 145.5,99.1C138.964,105.467 137.294,116.758 143,124C155.497,139.862 175.712,128.887 176.5,114.7ZM90.3,198.6C90,206.2 100.7,208.6 106,203.3C111,190 113,182 117,172C119.4,169.1 120.2,169.1 119,172.9C117.5,181.6 115.3,190.3 114.3,198.9C114.9,215.6 115.2,232.4 115.7,248.9C108.8,263.3 135.3,268.6 141,256C140.8,245.4 140.7,237 141,225.4L160.3,250.4C162,268.2 162.008,270.765 163.708,285.365C167.108,299.565 187.9,310.3 186.2,293.5C184,277 183,254 180,238C173,225 164,214 156,203L160,184C165.3,189.5 171.4,194.2 177,199.4C189.9,212.7 200.3,193 190.8,186.9C185.2,181.8 179.1,177 173.8,171.9C169.7,162.5 165.6,152.9 161.4,143.9C156.1,137.8 150,134.1 143.1,134.1C136.3,132.5 111.6,152 101.65,160.6C97.2,173.3 94.5,186.5 90.3,198.6Z" style="fill:rgb(0,146,218);fill-rule:nonzero;stroke:white;stroke-width:20.71px;stroke-linecap:butt;"/>
    </g>
    <path id="path32362" serif:id="path3236" d="M86.6,423C133.3,397.2 189.6,379 234.6,392C280.5,406 318.6,439.6 365.6,449C419.4,462 475.6,447.4 523.6,423C517.6,405.8 508.3,388 506,380.4C463.1,397.1 409,410.4 369,399.1C303,375 263,343 201,337C153,337.7 105,356.5 65,382C67.2,389.8 82.4,418 86.6,423Z" style="fill:rgb(0,146,218);fill-rule:nonzero;"/>
    <g id="path32363" serif:id="path3236" transform="matrix(1.54515,0,0,1.54515,52.1345,-37.6089)">
        <path d="M176.5,114.7C176.912,107.278 173.29,99.52 166.5,96.1C159.59,92.62 150.565,94.166 145.5,99.1C138.964,105.467 137.294,116.758 143,124C155.497,139.862 175.712,128.887 176.5,114.7ZM90.3,198.6C90,206.2 100.7,208.6 106,203.3C111,190 113,182 117,172C119.4,169.1 120.2,169.1 119,172.9C117.5,181.6 115.3,190.3 114.3,198.9C114.9,215.6 115.2,232.4 115.7,248.9C108.8,263.3 135.3,268.6 141,256C140.8,245.4 140.7,237 141,225.4L160.3,250.4C162,268.2 162.008,270.765 163.708,285.365C167.108,299.565 187.9,310.3 186.2,293.5C184,277 183,254 180,238C173,225 164,214 156,203L160,184C165.3,189.5 171.4,194.2 177,199.4C189.9,212.7 200.3,193 190.8,186.9C185.2,181.8 179.1,177 173.8,171.9C169.7,162.5 165.6,152.9 161.4,143.9C156.1,137.8 150,134.1 143.1,134.1C136.3,132.5 111.6,152 101.65,160.6C97.2,173.3 94.5,186.5 90.3,198.6Z" style="fill:rgb(0,146,218);fill-rule:nonzero;"/>
    </g>
</svg>
