<?xml version="1.0" encoding="UTF-8" standalone="no"?>
<!DOCTYPE svg PUBLIC "-//W3C//DTD SVG 1.1//EN" "http://www.w3.org/Graphics/SVG/1.1/DTD/svg11.dtd">
<svg width="100%" height="100%" viewBox="0 0 580 580" version="1.1" xmlns="http://www.w3.org/2000/svg" xmlns:xlink="http://www.w3.org/1999/xlink" xml:space="preserve" xmlns:serif="http://www.serif.com/" style="fill-rule:evenodd;clip-rule:evenodd;stroke-linejoin:round;">
    <path id="path4164" d="M314.854,178.036C315.266,170.614 311.644,162.856 304.854,159.436C297.944,155.956 288.919,157.502 283.854,162.436C277.318,168.803 275.648,180.094 281.354,187.336C293.851,203.198 314.066,192.223 314.854,178.036ZM228.654,261.936C228.354,269.536 239.054,271.936 244.354,266.636C249.354,253.336 251.354,245.336 255.354,235.336C257.754,232.436 258.554,232.436 257.354,236.236C255.854,244.936 253.654,253.636 252.654,262.236C253.254,278.936 253.554,295.736 254.054,312.236C247.154,326.636 243.854,335.236 237.154,349.236C229.354,367.336 253.354,378.336 261.354,357.336C267.354,344.636 273.654,331.936 279.354,319.336C279.154,308.736 279.054,300.336 279.354,288.736L298.654,313.736C300.354,331.536 302.054,349.136 303.754,363.736C307.154,377.936 326.254,373.636 324.554,356.836C322.354,340.336 321.354,317.336 318.354,301.336C311.354,288.336 302.354,277.336 294.354,266.336L298.354,247.336C303.654,252.836 309.754,257.536 315.354,262.736C328.254,276.036 338.654,256.336 329.154,250.236C323.554,245.136 317.454,240.336 312.154,235.236C308.054,225.836 303.954,216.236 299.754,207.236C294.454,201.136 288.354,197.436 281.454,197.436C274.654,195.836 249.954,215.336 240.004,223.936C235.554,236.636 232.854,249.836 228.654,261.936ZM86.6,423C133.3,397.2 189.6,379 234.6,392C280.5,406 318.6,439.6 365.6,449C419.4,462 475.6,447.4 523.6,423C517.6,405.8 508.3,388 506,380.4C463.1,397.1 409,410.4 369,399.1C303,375 263,343 201,337C153,337.7 105,356.5 65,382C67.2,389.8 82.4,418 86.6,423Z" style="fill:none;fill-rule:nonzero;stroke:white;stroke-opacity:0.8;stroke-width:64px;"/>
    <path id="path3236" d="M314.936,179.018C315.348,171.597 311.726,163.838 304.936,160.418C298.026,156.938 289.001,158.484 283.936,163.418C277.4,169.785 275.73,181.076 281.436,188.318C293.933,204.18 314.148,193.205 314.936,179.018ZM228.736,262.918C228.436,270.518 239.136,272.918 244.436,267.618C249.436,254.318 251.436,246.318 255.436,236.318C257.836,233.418 258.636,233.418 257.436,237.218C255.936,245.918 253.736,254.618 252.736,263.218C253.336,279.918 253.636,296.718 254.136,313.218C247.236,327.618 243.936,336.218 237.236,350.218C229.436,368.318 253.436,379.318 261.436,358.318C267.436,345.618 273.736,332.918 279.436,320.318C279.236,309.718 279.136,301.318 279.436,289.718L298.736,314.718C300.436,332.518 302.136,350.118 303.836,364.718C307.236,378.918 326.336,374.618 324.636,357.818C322.436,341.318 321.436,318.318 318.436,302.318C311.436,289.318 302.436,278.318 294.436,267.318L298.436,248.318C303.736,253.818 309.836,258.518 315.436,263.718C328.336,277.018 338.736,257.318 329.236,251.218C323.636,246.118 317.536,241.318 312.236,236.218C308.136,226.818 304.036,217.218 299.836,208.218C294.536,202.118 288.436,198.418 281.536,198.418C274.736,196.818 250.036,216.318 240.086,224.918C235.636,237.618 232.936,250.818 228.736,262.918ZM86.6,423C133.3,397.2 189.6,379 234.6,392C280.5,406 318.6,439.6 365.6,449C419.4,462 475.6,447.4 523.6,423C517.6,405.8 508.3,388 506,380.4C463.1,397.1 409,410.4 369,399.1C303,375 263,343 201,337C153,337.7 105,356.5 65,382C67.2,389.8 82.4,418 86.6,423Z" style="fill:rgb(0,146,218);fill-rule:nonzero;"/>
</svg>
