<?xml version="1.0" encoding="UTF-8" standalone="no"?><!DOCTYPE svg PUBLIC "-//W3C//DTD SVG 1.1//EN" "http://www.w3.org/Graphics/SVG/1.1/DTD/svg11.dtd"><svg width="100%" height="100%" viewBox="0 0 580 580" version="1.1" xmlns="http://www.w3.org/2000/svg" xmlns:xlink="http://www.w3.org/1999/xlink" xml:space="preserve" xmlns:serif="http://www.serif.com/" style="fill-rule:evenodd;clip-rule:evenodd;stroke-linejoin:round;stroke-miterlimit:1.41421;"><path d="M422.958,475.876l0,-334.449c0,-24.136 -22.874,-43.774 -50.983,-43.774l-163.95,0c-28.12,0 -50.982,19.638 -50.982,43.774l0,334.45c0,24.135 -2.22,67.223 25.888,67.223l214.139,0.694c28.107,-0.001 25.888,-43.783 25.888,-67.918Zm-50.983,29.511l-163.95,-0.876c-21.202,0 -38.45,-10.432 -38.45,-28.634l0,-334.45c0,-18.204 17.248,-33.016 38.45,-33.016l163.952,0c21.198,0 38.45,14.812 38.45,33.016l0,334.45c0,18.201 -17.243,29.51 -38.452,29.51Z" style="fill:#734a08;fill-rule:nonzero;stroke:#fff;stroke-width:56.07px;"/><path d="M321.845,521.603c0,-2.698 -2.191,-4.889 -4.888,-4.889l-53.914,0c-2.697,0 -4.888,2.191 -4.888,4.889l0,9.776c0,2.699 2.191,4.889 4.888,4.889l53.914,0c2.697,0 4.888,-2.19 4.888,-4.889l0,-9.776Z" style="fill:#fff;"/><path id="path4140" d="M245.637,270.884c-55.673,77.616 -33.729,117.441 -24.789,123.537l36.168,-52.016c-7.315,-4.876 -3.251,-13.816 6.502,-31.291c6.502,-11.378 15.442,-24.788 26.008,-36.979c7.314,-8.535 15.442,-16.662 22.756,-11.379l36.981,-52.87c-2.438,-1.584 -7.722,-3.21 -15.036,-2.803c-18.694,-0.122 -50.797,10.972 -88.59,63.801Z" style="fill:#734a08;fill-rule:nonzero;stroke:#fff;stroke-width:64px;stroke-miterlimit:1.41421;"/><path id="path4142" d="M316.346,265.6l16.255,11.379c1.626,1.219 6.096,0.407 7.112,-1.219l29.868,-43.076c2.439,-3.251 1.626,-7.721 -1.625,-9.753l-14.629,-10.241l-36.981,52.91Z" style="fill:#734a08;fill-rule:nonzero;stroke:#fff;stroke-width:64px;stroke-miterlimit:1.41421;"/><path id="path4144" d="M224.912,397.266l16.255,11.378c1.626,1.219 6.096,0 7.111,-1.625l29.056,-41.857c2.439,-3.251 1.22,-7.315 -1.625,-9.753l-14.63,-10.16l-36.167,52.017Z" style="fill:#734a08;fill-rule:nonzero;stroke:#fff;stroke-width:64px;stroke-miterlimit:1.41421;"/><path d="M422.958,475.876l0,-334.449c0,-24.136 -22.874,-43.774 -50.983,-43.774l-163.95,0c-28.12,0 -50.982,19.638 -50.982,43.774l0,334.45c0,24.135 -2.22,67.223 25.888,67.223l214.139,0.694c28.107,-0.001 25.888,-43.783 25.888,-67.918Zm-50.983,29.511l-163.95,-0.876c-21.202,0 -38.45,-10.432 -38.45,-28.634l0,-334.45c0,-18.204 17.248,-33.016 38.45,-33.016l163.952,0c21.198,0 38.45,14.812 38.45,33.016l0,334.45c0,18.201 -17.243,29.51 -38.452,29.51Z" style="fill:#734a08;fill-rule:nonzero;stroke:#734a08;stroke-width:17.52px;"/><path id="path41401" serif:id="path4140" d="M245.637,270.884c-55.673,77.616 -33.729,117.441 -24.789,123.537l36.168,-52.016c-7.315,-4.876 -3.251,-13.816 6.502,-31.291c6.502,-11.378 15.442,-24.788 26.008,-36.979c7.314,-8.535 15.442,-16.662 22.756,-11.379l36.981,-52.87c-2.438,-1.584 -7.722,-3.21 -15.036,-2.803c-18.694,-0.122 -50.797,10.972 -88.59,63.801Z" style="fill:#734a08;fill-rule:nonzero;"/><path id="path41421" serif:id="path4142" d="M316.346,265.6l16.255,11.379c1.626,1.219 6.096,0.407 7.112,-1.219l29.868,-43.076c2.439,-3.251 1.626,-7.721 -1.625,-9.753l-14.629,-10.241l-36.981,52.91Z" style="fill:#734a08;fill-rule:nonzero;"/><path id="path41441" serif:id="path4144" d="M224.912,397.266l16.255,11.378c1.626,1.219 6.096,0 7.111,-1.625l29.056,-41.857c2.439,-3.251 1.22,-7.315 -1.625,-9.753l-14.63,-10.16l-36.167,52.017Z" style="fill:#734a08;fill-rule:nonzero;"/></svg>