<?xml version="1.0" encoding="UTF-8" standalone="no"?><!DOCTYPE svg PUBLIC "-//W3C//DTD SVG 1.1//EN" "http://www.w3.org/Graphics/SVG/1.1/DTD/svg11.dtd"><svg width="100%" height="100%" viewBox="0 0 580 580" version="1.1" xmlns="http://www.w3.org/2000/svg" xmlns:xlink="http://www.w3.org/1999/xlink" xml:space="preserve" xmlns:serif="http://www.serif.com/" style="fill-rule:evenodd;clip-rule:evenodd;stroke-linejoin:round;stroke-miterlimit:1.41421;"><path d="M441.77,467.105l0,-381.771c0,-27.551 -26.11,-49.967 -58.196,-49.967l-187.148,0c-32.099,0 -58.196,22.416 -58.196,49.967l0,381.772c0,27.55 -2.534,76.735 29.551,76.735l244.438,0.792c32.084,-0.001 29.551,-49.978 29.551,-77.528Zm-58.196,33.687l-187.148,-1c-24.202,0 -43.89,-11.908 -43.89,-32.686l0,-381.772c0,-20.779 19.688,-37.687 43.89,-37.687l187.15,0c24.198,0 43.89,16.907 43.89,37.687l0,381.772c0,20.777 -19.682,33.686 -43.892,33.686Z" style="fill:#734a08;fill-rule:nonzero;stroke:#fff;stroke-width:128px;"/><rect x="167.781" y="63.174" width="244.437" height="424.785" style="fill:#fff;"/><path d="M441.77,467.105l0,-381.771c0,-27.551 -26.11,-49.967 -58.196,-49.967l-187.148,0c-32.099,0 -58.196,22.416 -58.196,49.967l0,381.772c0,27.55 -2.534,76.735 29.551,76.735l244.438,0.792c32.084,-0.001 29.551,-49.978 29.551,-77.528Zm-58.196,33.687l-187.148,-1c-24.202,0 -43.89,-11.908 -43.89,-32.686l0,-381.772c0,-20.779 19.688,-37.687 43.89,-37.687l187.15,0c24.198,0 43.89,16.907 43.89,37.687l0,381.772c0,20.777 -19.682,33.686 -43.892,33.686Z" style="fill:#734a08;fill-rule:nonzero;stroke:#734a08;stroke-width:32px;"/><path d="M326.351,519.302c0,-3.079 -2.501,-5.58 -5.58,-5.58l-61.542,0c-3.079,0 -5.58,2.501 -5.58,5.58l0,11.16c0,3.08 2.501,5.58 5.58,5.58l61.542,0c3.079,0 5.58,-2.5 5.58,-5.58l0,-11.16Z" style="fill:#fff;"/><path id="path4140" d="M239.36,233.108c-63.55,88.599 -38.501,134.059 -28.296,141.017l41.285,-59.376c-8.35,-5.566 -3.711,-15.771 7.422,-35.718c7.422,-12.988 17.627,-28.296 29.688,-42.212c8.349,-9.742 17.627,-19.019 25.976,-12.989l42.213,-60.35c-2.783,-1.809 -8.814,-3.664 -17.163,-3.2c-21.339,-0.139 -57.985,12.524 -101.125,72.828Z" style="fill:#734a08;fill-rule:nonzero;"/><path id="path4142" d="M320.074,227.077l18.555,12.989c1.856,1.391 6.958,0.464 8.118,-1.392l34.094,-49.17c2.784,-3.711 1.856,-8.814 -1.855,-11.133l-16.699,-11.69l-42.213,60.396Z" style="fill:#734a08;fill-rule:nonzero;"/><path id="path4144" d="M215.703,377.372l18.555,12.988c1.855,1.392 6.958,0 8.117,-1.855l33.167,-47.779c2.784,-3.711 1.392,-8.35 -1.855,-11.133l-16.7,-11.597l-41.284,59.376Z" style="fill:#734a08;fill-rule:nonzero;"/></svg>