<?xml version="1.0" encoding="UTF-8" standalone="no"?><!DOCTYPE svg PUBLIC "-//W3C//DTD SVG 1.1//EN" "http://www.w3.org/Graphics/SVG/1.1/DTD/svg11.dtd"><svg width="100%" height="100%" viewBox="0 0 580 580" version="1.1" xmlns="http://www.w3.org/2000/svg" xmlns:xlink="http://www.w3.org/1999/xlink" xml:space="preserve" xmlns:serif="http://www.serif.com/" style="fill-rule:evenodd;clip-rule:evenodd;stroke-linejoin:round;stroke-miterlimit:1.41421;"><path id="path8" d="M436,47l0,50l-50,0l0,50l50,0l0,50l50,0l0,-50l50,0l0,-50l-50,0l0,-50l-50,0Z" style="fill:none;stroke:#fff;stroke-width:64px;"/><path d="M485.338,301.561c0,-32.846 -26.666,-59.512 -59.511,-59.512l-321.704,0c-32.845,0 -59.511,26.666 -59.511,59.512l0,119.022c0,32.845 26.666,59.511 59.511,59.511l321.704,0c32.845,0 59.511,-26.666 59.511,-59.511l0,-119.022Z" style="fill:none;stroke:#fff;stroke-width:64px;stroke-linecap:round;stroke-miterlimit:1.5;"/><path id="path81" serif:id="path8" d="M436,47l0,50l-50,0l0,50l50,0l0,50l50,0l0,-50l50,0l0,-50l-50,0l0,-50l-50,0Z" style="fill:#da0092;fill-rule:nonzero;"/><path d="M485.338,301.561c0,-32.846 -26.666,-59.512 -59.511,-59.512l-321.704,0c-32.845,0 -59.511,26.666 -59.511,59.512l0,119.022c0,32.845 26.666,59.511 59.511,59.511l321.704,0c32.845,0 59.511,-26.666 59.511,-59.511l0,-119.022Z" style="fill:#da0092;"/><path d="M90.988,282.769l61.857,0c13.472,0 23.562,4.163 30.271,12.49c6.709,8.326 10.063,20.176 10.063,35.548c0,15.8 -3.656,28.148 -10.967,37.044c-7.311,8.896 -18.469,13.344 -33.474,13.344l-20.373,0l0,58.073l-37.377,0l0,-156.499Zm37.377,66.72l9.118,0c7.175,0 12.213,-1.619 15.115,-4.857c2.903,-3.238 4.354,-7.384 4.354,-12.437c0,-4.91 -1.259,-9.074 -3.778,-12.49c-2.52,-3.416 -7.257,-5.124 -14.212,-5.124l-10.597,0l0,34.908Z" style="fill:#ebebeb;fill-rule:nonzero;stroke:#000;stroke-width:1px;"/><path d="M272.451,413.434l-42.388,0l-5.833,25.834l-38.034,0l45.263,-156.499l40.581,0l45.263,156.499l-38.938,0l-5.914,-25.834Zm-7.804,-33.841l-13.308,-56.258l-13.226,56.258l26.534,0Z" style="fill:#ebebeb;fill-rule:nonzero;stroke:#000;stroke-width:1px;"/><path d="M406.35,375.323l32.612,12.811c-2.191,11.885 -5.641,21.813 -10.351,29.784c-4.709,7.971 -10.555,13.984 -17.538,18.041c-6.982,4.056 -15.868,6.085 -26.656,6.085c-13.089,0 -23.782,-2.473 -32.079,-7.42c-8.297,-4.946 -15.457,-13.646 -21.481,-26.101c-6.024,-12.454 -9.036,-28.396 -9.036,-47.825c0,-25.905 5.298,-45.815 15.895,-59.728c10.597,-13.913 25.589,-20.87 44.975,-20.87c15.17,0 27.095,3.985 35.775,11.956c8.681,7.971 15.129,20.212 19.346,36.723l-32.859,9.501c-1.15,-4.768 -2.355,-8.255 -3.614,-10.462c-2.081,-3.7 -4.628,-6.547 -7.64,-8.54c-3.012,-1.993 -6.38,-2.989 -10.104,-2.989c-8.434,0 -14.896,4.412 -19.387,13.237c-3.395,6.548 -5.093,16.832 -5.093,30.852c0,17.365 2.027,29.268 6.079,35.709c4.053,6.44 9.748,9.661 17.087,9.661c7.119,0 12.5,-2.598 16.142,-7.793c3.641,-5.195 6.284,-12.739 7.927,-22.632Z" style="fill:#ebebeb;fill-rule:nonzero;stroke:#000;stroke-width:1px;"/></svg>