<?xml version="1.0" encoding="UTF-8" standalone="no"?><!DOCTYPE svg PUBLIC "-//W3C//DTD SVG 1.1//EN" "http://www.w3.org/Graphics/SVG/1.1/DTD/svg11.dtd"><svg width="100%" height="100%" viewBox="0 0 580 580" version="1.1" xmlns="http://www.w3.org/2000/svg" xmlns:xlink="http://www.w3.org/1999/xlink" xml:space="preserve" xmlns:serif="http://www.serif.com/" style="fill-rule:evenodd;clip-rule:evenodd;stroke-linecap:round;stroke-linejoin:round;stroke-miterlimit:1.5;"><ellipse cx="388.197" cy="422.389" rx="292.393" ry="296.493" style="fill:none;stroke:#fff;stroke-width:86.83px;"/><path d="M421.145,91.067l-39.253,-7.36c-49.065,-9.813 -98.131,-22.079 -142.29,9.813l-51.519,34.346l-46.613,39.252l-36.798,36.8c-15.329,13.303 -29.299,28.096 -41.705,44.158l-12.268,24.534c-4.633,7.564 -7.95,15.859 -9.812,24.533c-0.283,8.222 -1.103,16.416 -2.454,24.532c-6.776,21.417 -10.089,43.778 -9.812,66.239c0,7.359 2.453,12.267 2.453,19.626c0,7.36 0,14.719 0,22.079c-2.468,7.989 -4.112,16.209 -4.908,24.533c-0.42,9.877 0.403,19.769 2.455,29.44c8.701,16.841 29.064,24.342 46.612,17.172l29.439,-17.172l41.706,-29.44c13.429,-10.953 28.285,-20.031 44.159,-26.986c18.517,-4.672 37.907,-4.672 56.424,0l29.44,4.906l78.505,0l53.971,-7.359c14.372,-2.279 28.39,-6.402 41.707,-12.266c19.626,-9.813 26.985,-36.8 31.893,-53.973c3.501,-10.847 7.596,-21.493 12.266,-31.893c5.311,-10.491 12.847,-19.701 22.079,-26.985l24.533,-17.174c7.36,-7.359 12.266,-4.906 19.627,0l29.438,7.361c22.015,6.162 45.72,-0.475 61.332,-17.173c7.36,-7.36 7.36,-19.626 9.813,-29.44c4.188,-6.663 6.713,-14.236 7.36,-22.079c0,-12.267 -17.173,-22.08 -24.532,-29.439c-35.836,-32.714 -77.428,-58.501 -122.665,-76.052c-32.816,-10.859 -66.453,-19.062 -100.583,-24.533Z" style="fill:none;stroke:#fff;stroke-width:86.83px;stroke-linecap:butt;stroke-miterlimit:1.41421;"/><ellipse cx="388.197" cy="423.77" rx="292.393" ry="296.493" style="fill:none;stroke:#595757;stroke-width:43.42px;"/><path d="M421.145,91.067l-39.253,-7.36c-49.065,-9.813 -98.131,-22.079 -142.29,9.813l-51.519,34.346l-46.613,39.252l-36.798,36.8c-15.329,13.303 -29.299,28.096 -41.705,44.158l-12.268,24.534c-4.633,7.564 -7.95,15.859 -9.812,24.533c-0.283,8.222 -1.103,16.416 -2.454,24.532c-6.776,21.417 -10.089,43.778 -9.812,66.239c0,7.359 2.453,12.267 2.453,19.626c0,7.36 0,14.719 0,22.079c-2.468,7.989 -4.112,16.209 -4.908,24.533c-0.42,9.877 0.403,19.769 2.455,29.44c8.701,16.841 29.064,24.342 46.612,17.172l29.439,-17.172l41.706,-29.44c13.429,-10.953 28.285,-20.031 44.159,-26.986c18.517,-4.672 37.907,-4.672 56.424,0l29.44,4.906l78.505,0l53.971,-7.359c14.372,-2.279 28.39,-6.402 41.707,-12.266c19.626,-9.813 26.985,-36.8 31.893,-53.973c3.501,-10.847 7.596,-21.493 12.266,-31.893c5.311,-10.491 12.847,-19.701 22.079,-26.985l24.533,-17.174c7.36,-7.359 12.266,-4.906 19.627,0l29.438,7.361c22.015,6.162 45.72,-0.475 61.332,-17.173c7.36,-7.36 7.36,-19.626 9.813,-29.44c4.188,-6.663 6.713,-14.236 7.36,-22.079c0,-12.267 -17.173,-22.08 -24.532,-29.439c-35.836,-32.714 -77.428,-58.501 -122.665,-76.052c-32.816,-10.859 -66.453,-19.062 -100.583,-24.533Z" style="fill:#f7d237;fill-rule:nonzero;"/><path d="M430.807,209.472c0,-33.687 -27.349,-61.036 -61.035,-61.036l-126.007,0c-33.687,0 -61.036,27.349 -61.036,61.036l0,122.071c0,33.687 27.349,61.036 61.036,61.036l126.007,0c33.686,0 61.035,-27.349 61.035,-61.036l0,-122.071Z" style="fill:#fc96ad;"/><path d="M308.667,167.162c41.116,0 74.497,33.381 74.497,74.497c0,41.116 -33.381,74.497 -74.497,74.497c-41.116,0 -74.497,-33.381 -74.497,-74.497c0,-41.116 33.381,-74.497 74.497,-74.497Zm0,19.783c30.198,0 54.714,24.516 54.714,54.714c0,30.197 -24.516,54.714 -54.714,54.714c-30.198,0 -54.714,-24.517 -54.714,-54.714c0,-30.198 24.516,-54.714 54.714,-54.714Z" style="fill:#fff;"/><path d="M293.031,236.858c0.877,-1.937 2.128,-3.743 3.75,-5.308c6.887,-6.648 17.875,-6.453 24.523,0.434c6.647,6.887 6.453,17.875 -0.434,24.523c-0.169,0.163 -0.341,0.322 -0.514,0.476l-38.497,88.464c1.121,0.674 2.172,1.504 3.122,2.488c5.863,6.075 5.692,15.767 -0.383,21.63c-5.602,5.407 -14.28,5.682 -20.195,0.928l-18.531,-8.064c-3.162,-0.504 -6.191,-2 -8.583,-4.478c-5.864,-6.075 -5.692,-15.767 0.382,-21.63c3.783,-3.652 8.969,-4.963 13.759,-3.965l41.564,-95.514l0.037,0.016Z" style="fill:#fde72f;"/></svg>