<?xml version="1.0" encoding="UTF-8" standalone="no"?><!DOCTYPE svg PUBLIC "-//W3C//DTD SVG 1.1//EN" "http://www.w3.org/Graphics/SVG/1.1/DTD/svg11.dtd"><svg width="100%" height="100%" viewBox="0 0 580 580" version="1.1" xmlns="http://www.w3.org/2000/svg" xmlns:xlink="http://www.w3.org/1999/xlink" xml:space="preserve" xmlns:serif="http://www.serif.com/" style="fill-rule:evenodd;clip-rule:evenodd;stroke-linejoin:round;stroke-miterlimit:1.41421;"><g id="g3003"><path id="path3009" d="M294.809,220.574c-6.268,6.345 -20.002,20.475 -25.019,25.483c-6.059,6.009 -10.747,6.525 -16.905,6.525l-18.681,0c0,0 50.451,-50.793 54.963,-55.267c4.864,-4.859 9.324,-6.396 16.362,-6.396l79.526,0l-8.816,-19.419l-104.876,0c-9.787,0 -15.221,2.241 -24.401,11.217c-8.781,8.902 -59.032,59.313 -63.532,63.68c-6.119,6.209 -9.301,6.741 -17.515,6.741l-26.907,0l-65.487,65.988l142.719,0c10.391,0 16.55,-2.132 23.641,-9.341c6.963,-7.351 53.016,-52.983 59.396,-59.192c6.682,-6.744 10.712,-8.03 19.248,-8.03l106.667,0l-14.306,-32.252l-93.123,0c-10.052,0.008 -15.052,2.495 -22.954,10.263m231.585,48.202c-43.277,160.004 -175.743,250.868 -298.605,250.868c-111.464,0 -182.976,-79.136 -177.495,-182.461l82.826,0c-5.677,83.73 54.396,141.957 134.25,138.505c86.701,-3.629 170.361,-70.378 207.92,-156.097l51.104,-50.815" style="fill:none;stroke:#fff;stroke-width:64px;"/><path id="path3011" d="M104.69,260.398c37.567,-85.708 121.238,-152.449 208.209,-156.105c79.913,-3.789 139.927,54.43 134.207,138.516l82.607,0c5.414,-103.36 -66.116,-182.453 -177.53,-182.453c-122.912,0 -255.368,90.81 -298.773,250.793l51.28,-50.751Zm180.457,98.809c6.295,-6.533 19.917,-20.221 25.011,-25.283c6.42,-6.049 11.092,-6.522 17.175,-6.522l18.427,0c0,0 -50.502,50.756 -54.994,55.259c-4.84,4.864 -9.341,6.428 -16.323,6.428l-79.237,0l8.605,19.419l104.713,0c10.169,0 15.662,-2.217 24.521,-11.236c8.789,-8.883 59.345,-59.318 63.54,-63.661c6.084,-6.225 9.25,-6.768 17.441,-6.768l27.336,0l65.437,-65.979l-143.11,0c-10.388,0 -16.531,2.115 -23.579,9.418c-6.956,7.302 -53.117,52.873 -59.396,59.099c-6.701,6.786 -10.712,8.014 -18.903,8.014l-107.082,0l14.309,32.27l93.519,0c9.661,0 14.721,-2.412 22.59,-10.458" style="fill:none;stroke:#fff;stroke-width:64px;"/><path id="path30091" serif:id="path3009" d="M294.809,220.574c-6.268,6.345 -20.002,20.475 -25.019,25.483c-6.059,6.009 -10.747,6.525 -16.905,6.525l-18.681,0c0,0 50.451,-50.793 54.963,-55.267c4.864,-4.859 9.324,-6.396 16.362,-6.396l79.526,0l-8.816,-19.419l-104.876,0c-9.787,0 -15.221,2.241 -24.401,11.217c-8.781,8.902 -59.032,59.313 -63.532,63.68c-6.119,6.209 -9.301,6.741 -17.515,6.741l-26.907,0l-65.487,65.988l142.719,0c10.391,0 16.55,-2.132 23.641,-9.341c6.963,-7.351 53.016,-52.983 59.396,-59.192c6.682,-6.744 10.712,-8.03 19.248,-8.03l106.667,0l-14.306,-32.252l-93.123,0c-10.052,0.008 -15.052,2.495 -22.954,10.263m231.585,48.202c-43.277,160.004 -175.743,250.868 -298.605,250.868c-111.464,0 -182.976,-79.136 -177.495,-182.461l82.826,0c-5.677,83.73 54.396,141.957 134.25,138.505c86.701,-3.629 170.361,-70.378 207.92,-156.097l51.104,-50.815" style="fill:#7ab51d;fill-rule:nonzero;"/><path id="path30111" serif:id="path3011" d="M104.69,260.398c37.567,-85.708 121.238,-152.449 208.209,-156.105c79.913,-3.789 139.927,54.43 134.207,138.516l82.607,0c5.414,-103.36 -66.116,-182.453 -177.53,-182.453c-122.912,0 -255.368,90.81 -298.773,250.793l51.28,-50.751Zm180.457,98.809c6.295,-6.533 19.917,-20.221 25.011,-25.283c6.42,-6.049 11.092,-6.522 17.175,-6.522l18.427,0c0,0 -50.502,50.756 -54.994,55.259c-4.84,4.864 -9.341,6.428 -16.323,6.428l-79.237,0l8.605,19.419l104.713,0c10.169,0 15.662,-2.217 24.521,-11.236c8.789,-8.883 59.345,-59.318 63.54,-63.661c6.084,-6.225 9.25,-6.768 17.441,-6.768l27.336,0l65.437,-65.979l-143.11,0c-10.388,0 -16.531,2.115 -23.579,9.418c-6.956,7.302 -53.117,52.873 -59.396,59.099c-6.701,6.786 -10.712,8.014 -18.903,8.014l-107.082,0l14.309,32.27l93.519,0c9.661,0 14.721,-2.412 22.59,-10.458" style="fill:#006ab2;fill-rule:nonzero;"/></g></svg>