<?xml version="1.0" encoding="UTF-8" standalone="no"?>
<!DOCTYPE svg PUBLIC "-//W3C//DTD SVG 1.1//EN" "http://www.w3.org/Graphics/SVG/1.1/DTD/svg11.dtd">
<svg width="100%" height="100%" viewBox="0 0 292 521" version="1.1" xmlns="http://www.w3.org/2000/svg" xmlns:xlink="http://www.w3.org/1999/xlink" xml:space="preserve" xmlns:serif="http://www.serif.com/" style="fill-rule:evenodd;clip-rule:evenodd;stroke-linejoin:round;stroke-miterlimit:1.41421;">
    <g id="Artboard1" transform="matrix(0.932325,0,0,1.06295,0,-23.3459)">
        <rect x="0" y="21.963" width="313.114" height="490.037" style="fill:none;"/>
        <g transform="matrix(0.93833,0,0,0.823018,42.6669,77.4896)">
            <g id="path3" transform="matrix(10.5312,0,0,10.5312,134.409,162.895)">
                <path d="M6.647,8.841L5.882,8.841C4.297,8.841 3,10.138 3,11.713L3,12.483C3,14.025 4.231,15.285 5.758,15.352L5.758,30.335L5.352,30.335C4.478,30.335 3.768,31.045 3.768,31.919L8.671,31.919C8.671,31.045 7.958,30.335 7.081,30.335L6.769,30.335L6.769,15.353C8.297,15.287 9.52,14.026 9.52,12.483L9.52,11.713C9.519,10.138 8.232,8.841 6.647,8.841Z" style="fill:rgb(149,38,110);fill-rule:nonzero;stroke:white;stroke-width:1.74px;"/>
            </g>
            <path d="M224,160C229.888,160 234.667,155.221 234.667,149.333L234.667,128C234.667,63.296 182.038,10.667 117.334,10.667C52.63,10.667 0,63.296 0,128L0,490.667C0,496.555 4.779,501.334 10.667,501.334C16.555,501.334 21.334,496.555 21.334,490.667L21.334,262.272L205.419,160L224,160ZM21.333,237.867L21.333,160L161.514,160L21.333,237.867Z" style="fill:rgb(0,109,240);fill-rule:nonzero;stroke:white;stroke-width:18.29px;stroke-miterlimit:1.41421;"/>
            <path d="M117.333,437.333L74.667,437.333C57.024,437.333 42.667,451.69 42.667,469.333L42.667,490.666C42.667,496.554 47.446,501.333 53.334,501.333C59.222,501.333 64,496.555 64,490.667L64,480L128,480L128,490.667C128,496.555 132.779,501.334 138.667,501.334C144.555,501.334 149.334,496.555 149.334,490.667L149.334,469.334C149.333,451.691 134.976,437.333 117.333,437.333Z" style="fill:rgb(0,109,240);fill-rule:nonzero;stroke:white;stroke-width:18.29px;stroke-miterlimit:1.41421;"/>
        </g>
        <g transform="matrix(0.93833,0,0,0.823018,42.6669,77.4896)">
            <path d="M224,160C229.888,160 234.667,155.221 234.667,149.333L234.667,128C234.667,63.296 182.038,10.667 117.334,10.667C52.63,10.667 0,63.296 0,128L0,490.667C0,496.555 4.779,501.334 10.667,501.334C16.555,501.334 21.334,496.555 21.334,490.667L21.334,262.272L205.419,160L224,160ZM21.333,237.867L21.333,160L161.514,160L21.333,237.867Z" style="fill:rgb(149,38,110);fill-rule:nonzero;"/>
            <path d="M117.333,437.333L74.667,437.333C57.024,437.333 42.667,451.69 42.667,469.333L42.667,490.666C42.667,496.554 47.446,501.333 53.334,501.333C59.222,501.333 64,496.555 64,490.667L64,480L128,480L128,490.667C128,496.555 132.779,501.334 138.667,501.334C144.555,501.334 149.334,496.555 149.334,490.667L149.334,469.334C149.333,451.691 134.976,437.333 117.333,437.333Z" style="fill:rgb(149,38,110);fill-rule:nonzero;"/>
            <g id="path31" serif:id="path3" transform="matrix(10.5312,0,0,10.5312,134.409,162.895)">
                <path d="M6.647,8.841L5.882,8.841C4.297,8.841 3,10.138 3,11.713L3,12.483C3,14.025 4.231,15.285 5.758,15.352L5.758,30.335L5.352,30.335C4.478,30.335 3.768,31.045 3.768,31.919L8.671,31.919C8.671,31.045 7.958,30.335 7.081,30.335L6.769,30.335L6.769,15.353C8.297,15.287 9.52,14.026 9.52,12.483L9.52,11.713C9.519,10.138 8.232,8.841 6.647,8.841Z" style="fill:rgb(149,38,110);fill-rule:nonzero;"/>
            </g>
        </g>
    </g>
</svg>
