<?xml version="1.0" encoding="UTF-8" standalone="no"?>
<!DOCTYPE svg PUBLIC "-//W3C//DTD SVG 1.1//EN" "http://www.w3.org/Graphics/SVG/1.1/DTD/svg11.dtd">
<svg width="100%" height="100%" viewBox="0 0 180 173" version="1.1" xmlns="http://www.w3.org/2000/svg" xmlns:xlink="http://www.w3.org/1999/xlink" xml:space="preserve" xmlns:serif="http://www.serif.com/" style="fill-rule:evenodd;clip-rule:evenodd;stroke-linejoin:round;stroke-miterlimit:1.41421;">
    <g id="g3003" transform="matrix(1.00276,0,0,1.00276,-0.00019289,-0.602662)">
        <path id="path3009" d="M91.55,60.517C89.206,62.89 84.07,68.174 82.194,70.047C79.928,72.294 78.175,72.487 75.872,72.487L68.886,72.487C68.886,72.487 87.753,53.492 89.44,51.819C91.259,50.002 92.927,49.427 95.559,49.427L125.299,49.427L122.002,42.165L82.782,42.165C79.122,42.165 77.09,43.003 73.657,46.36C70.373,49.689 51.581,68.541 49.898,70.174C47.61,72.496 46.42,72.695 43.348,72.695L33.286,72.695L8.796,97.372L62.168,97.372C66.054,97.372 68.357,96.575 71.009,93.879C73.613,91.13 90.835,74.065 93.221,71.743C95.72,69.221 97.227,68.74 100.419,68.74L140.309,68.74L134.959,56.679L100.134,56.679C96.375,56.682 94.505,57.612 91.55,60.517M178.155,78.543C161.971,138.379 112.433,172.359 66.487,172.359C24.803,172.359 -1.94,142.765 0.11,104.125L31.084,104.125C28.961,135.437 51.426,157.212 81.289,155.921C113.712,154.564 144.998,129.602 159.044,97.546L178.155,78.543" style="fill:rgb(122,181,29);fill-rule:nonzero;stroke:white;stroke-width:11.97px;"/>
        <path id="path3011" d="M20.452,75.41C34.501,43.358 65.791,18.399 98.315,17.032C128.2,15.615 150.643,37.387 148.504,68.832L179.396,68.832C181.421,30.179 154.671,0.601 113.006,0.601C67.041,0.601 17.507,34.561 1.275,94.389L20.452,75.41ZM87.937,112.361C90.291,109.918 95.385,104.799 97.29,102.906C99.691,100.644 101.438,100.467 103.713,100.467L110.604,100.467C110.604,100.467 91.718,119.448 90.038,121.132C88.228,122.951 86.545,123.536 83.934,123.536L54.302,123.536L57.52,130.798L96.679,130.798C100.482,130.798 102.536,129.969 105.849,126.596C109.136,123.274 128.042,104.413 129.611,102.789C131.886,100.461 133.07,100.258 136.133,100.258L146.356,100.258L170.827,75.584L117.309,75.584C113.424,75.584 111.127,76.375 108.491,79.106C105.89,81.837 88.627,98.879 86.279,101.207C83.773,103.745 82.273,104.204 79.21,104.204L39.165,104.204L44.516,116.272L79.489,116.272C83.102,116.272 84.994,115.37 87.937,112.361" style="fill:rgb(0,106,178);fill-rule:nonzero;stroke:white;stroke-width:11.97px;"/>
        <path id="path30091" serif:id="path3009" d="M91.55,60.517C89.206,62.89 84.07,68.174 82.194,70.047C79.928,72.294 78.175,72.487 75.872,72.487L68.886,72.487C68.886,72.487 87.753,53.492 89.44,51.819C91.259,50.002 92.927,49.427 95.559,49.427L125.299,49.427L122.002,42.165L82.782,42.165C79.122,42.165 77.09,43.003 73.657,46.36C70.373,49.689 51.581,68.541 49.898,70.174C47.61,72.496 46.42,72.695 43.348,72.695L33.286,72.695L8.796,97.372L62.168,97.372C66.054,97.372 68.357,96.575 71.009,93.879C73.613,91.13 90.835,74.065 93.221,71.743C95.72,69.221 97.227,68.74 100.419,68.74L140.309,68.74L134.959,56.679L100.134,56.679C96.375,56.682 94.505,57.612 91.55,60.517M178.155,78.543C161.971,138.379 112.433,172.359 66.487,172.359C24.803,172.359 -1.94,142.765 0.11,104.125L31.084,104.125C28.961,135.437 51.426,157.212 81.289,155.921C113.712,154.564 144.998,129.602 159.044,97.546L178.155,78.543" style="fill:rgb(122,181,29);fill-rule:nonzero;"/>
        <path id="path30111" serif:id="path3011" d="M20.452,75.41C34.501,43.358 65.791,18.399 98.315,17.032C128.2,15.615 150.643,37.387 148.504,68.832L179.396,68.832C181.421,30.179 154.671,0.601 113.006,0.601C67.041,0.601 17.507,34.561 1.275,94.389L20.452,75.41ZM87.937,112.361C90.291,109.918 95.385,104.799 97.29,102.906C99.691,100.644 101.438,100.467 103.713,100.467L110.604,100.467C110.604,100.467 91.718,119.448 90.038,121.132C88.228,122.951 86.545,123.536 83.934,123.536L54.302,123.536L57.52,130.798L96.679,130.798C100.482,130.798 102.536,129.969 105.849,126.596C109.136,123.274 128.042,104.413 129.611,102.789C131.886,100.461 133.07,100.258 136.133,100.258L146.356,100.258L170.827,75.584L117.309,75.584C113.424,75.584 111.127,76.375 108.491,79.106C105.89,81.837 88.627,98.879 86.279,101.207C83.773,103.745 82.273,104.204 79.21,104.204L39.165,104.204L44.516,116.272L79.489,116.272C83.102,116.272 84.994,115.37 87.937,112.361" style="fill:rgb(0,106,178);fill-rule:nonzero;"/>
    </g>
</svg>
