<?xml version="1.0" encoding="UTF-8" standalone="no"?><!DOCTYPE svg PUBLIC "-//W3C//DTD SVG 1.1//EN" "http://www.w3.org/Graphics/SVG/1.1/DTD/svg11.dtd"><svg width="100%" height="100%" viewBox="0 0 580 580" version="1.1" xmlns="http://www.w3.org/2000/svg" xmlns:xlink="http://www.w3.org/1999/xlink" xml:space="preserve" xmlns:serif="http://www.serif.com/" style="fill-rule:evenodd;clip-rule:evenodd;stroke-linejoin:round;stroke-miterlimit:1.41421;"><path d="M311.686,258.433l216.234,0l-1.144,-7.592c-17.162,-105.153 -101.617,-186.488 -207.394,-199.489l-7.696,-0.832l0,43.788l6.968,0.832c66.566,9.777 123.459,53.044 150.813,114.513l2.704,6.449l-160.485,0l0,-14.769l0.104,-2.081c0.624,-6.24 4.68,-12.065 10.193,-14.977l1.976,-0.832l37.651,-14.769l0,-43.164l-0.104,-1.56c-0.416,-3.12 -2.704,-6.032 -5.513,-7.28l-1.456,-0.52l-7.384,-1.977c-37.443,-9.048 -76.551,-9.152 -113.994,0l-7.384,1.977l-1.456,0.52c-2.913,1.248 -5.097,4.16 -5.513,7.28l-0.104,1.56l0,43.164l37.651,14.769l1.872,0.832c6.241,3.224 10.401,10.089 10.297,17.058l0,14.769l-160.797,0l2.704,-6.449c27.354,-61.573 84.143,-104.632 150.813,-114.513l6.968,-0.832l0,-43.788l-7.592,0.832c-105.673,13.001 -190.336,94.336 -207.394,199.489l-1.144,7.592l216.13,0l0,31.099l-218.21,0l0.104,7.697l0.416,7.696c8.217,123.563 108.065,220.291 231.835,224.451l7.697,0.104l7.697,-0.104c123.666,-4.16 223.722,-100.888 231.731,-224.451l0.416,-7.696l0.104,-7.697l-218.314,0l0,-31.099Zm169.95,74.367l-1.664,6.76l-1.872,6.657c-24.234,80.398 -97.248,136.667 -181.183,139.579l-6.969,0.104l-6.969,-0.104c-83.935,-2.912 -156.845,-59.077 -181.079,-139.579l-1.976,-6.657l-1.664,-6.76l169.846,0l0,22.985l-0.104,2.081c-1.04,8.112 -6.656,14.561 -14.665,16.641l-93.4,22.362l-1.352,0.416c-3.224,1.248 -5.512,4.16 -6.032,7.593l-0.104,1.456l0,21.009l274.686,0l0,-21.009l-0.104,-1.456c-0.416,-3.329 -2.808,-6.449 -6.032,-7.593l-1.352,-0.416l-93.4,-22.362l-2.08,-0.624c-6.865,-2.392 -11.857,-8.737 -12.585,-16.017l-0.104,-2.081l0,-22.985l170.158,0Z" style="fill:#090980;fill-rule:nonzero;stroke:#fff;stroke-width:64px;"/><path d="M311.686,258.433l216.234,0l-1.144,-7.592c-17.162,-105.153 -101.617,-186.488 -207.394,-199.489l-7.696,-0.832l0,43.788l6.968,0.832c66.566,9.777 123.459,53.044 150.813,114.513l2.704,6.449l-160.485,0l0,-14.769l0.104,-2.081c0.624,-6.24 4.68,-12.065 10.193,-14.977l1.976,-0.832l37.651,-14.769l0,-43.164l-0.104,-1.56c-0.416,-3.12 -2.704,-6.032 -5.513,-7.28l-1.456,-0.52l-7.384,-1.977c-37.443,-9.048 -76.551,-9.152 -113.994,0l-7.384,1.977l-1.456,0.52c-2.913,1.248 -5.097,4.16 -5.513,7.28l-0.104,1.56l0,43.164l37.651,14.769l1.872,0.832c6.241,3.224 10.401,10.089 10.297,17.058l0,14.769l-160.797,0l2.704,-6.449c27.354,-61.573 84.143,-104.632 150.813,-114.513l6.968,-0.832l0,-43.788l-7.592,0.832c-105.673,13.001 -190.336,94.336 -207.394,199.489l-1.144,7.592l216.13,0l0,31.099l-218.21,0l0.104,7.697l0.416,7.696c8.217,123.563 108.065,220.291 231.835,224.451l7.697,0.104l7.697,-0.104c123.666,-4.16 223.722,-100.888 231.731,-224.451l0.416,-7.696l0.104,-7.697l-218.314,0l0,-31.099Zm169.95,74.367l-1.664,6.76l-1.872,6.657c-24.234,80.398 -97.248,136.667 -181.183,139.579l-6.969,0.104l-6.969,-0.104c-83.935,-2.912 -156.845,-59.077 -181.079,-139.579l-1.976,-6.657l-1.664,-6.76l169.846,0l0,22.985l-0.104,2.081c-1.04,8.112 -6.656,14.561 -14.665,16.641l-93.4,22.362l-1.352,0.416c-3.224,1.248 -5.512,4.16 -6.032,7.593l-0.104,1.456l0,21.009l274.686,0l0,-21.009l-0.104,-1.456c-0.416,-3.329 -2.808,-6.449 -6.032,-7.593l-1.352,-0.416l-93.4,-22.362l-2.08,-0.624c-6.865,-2.392 -11.857,-8.737 -12.585,-16.017l-0.104,-2.081l0,-22.985l170.158,0Z" style="fill:#090980;fill-rule:nonzero;"/></svg>