<?xml version="1.0" encoding="UTF-8" standalone="no"?>
<!DOCTYPE svg PUBLIC "-//W3C//DTD SVG 1.1//EN" "http://www.w3.org/Graphics/SVG/1.1/DTD/svg11.dtd">
<svg width="100%" height="100%" viewBox="0 0 580 580" version="1.1" xmlns="http://www.w3.org/2000/svg" xmlns:xlink="http://www.w3.org/1999/xlink" xml:space="preserve" xmlns:serif="http://www.serif.com/" style="fill-rule:evenodd;clip-rule:evenodd;">
    <path id="path4207" d="M460.306,338.517L435.431,365.198C455.184,383.617 459.767,396.75 459.24,404.332C458.712,411.915 453.289,419.947 438.659,428.644C409.398,446.039 349.684,457.522 290.456,457.814C231.227,458.107 171.382,447.211 141.856,429.94C127.094,421.305 121.447,413.183 120.786,405.272C120.125,397.36 124.603,383.901 144.087,364.924L118.638,338.791C94.995,361.818 82.486,384.961 84.436,408.307C86.385,431.652 102.945,449.442 123.44,461.43C164.429,485.407 227.301,494.605 290.636,494.292C353.971,493.98 416.665,484.158 457.298,460.003C477.615,447.926 494.01,430.122 495.628,406.864C497.245,383.605 484.3,360.891 460.306,338.517Z" style="fill:none;fill-rule:nonzero;stroke:white;stroke-opacity:0.8;stroke-width:64px;"/>
    <g transform="matrix(2.07717,0,0,2.07717,-224.627,-65.7531)">
        <path d="M265.3,112C253.4,93.2 248.1,74.3 248.1,74.3C248.1,74.3 242.8,93.2 230.9,112C216.3,141.5 192.9,157 192.9,194.1C192.9,226 216.2,251.9 248.1,251.9C280,251.9 303.3,226 303.3,194.1C303.3,157.1 279.9,141.5 265.3,112Z" style="fill:rgb(145,197,206);fill-rule:nonzero;stroke:white;stroke-width:13.91px;"/>
    </g>
    <g transform="matrix(1.83397,0,0,1.78029,-162.757,-5.22562)">
        <path d="M265.3,112C253.4,93.2 248.1,74.3 248.1,74.3C248.1,74.3 216.2,251.9 248.1,251.9C280,251.9 303.3,226 303.3,194.1C303.3,157.1 279.9,141.5 265.3,112Z" style="fill:rgb(185,228,234);fill-rule:nonzero;"/>
    </g>
    <g transform="matrix(1.6434,0,0,1.78599,-112.692,-6.82664)">
        <path d="M257.501,239.596C282.898,235.171 283.002,237.253 291.729,211.062C300.962,183.353 232.928,243.878 257.501,239.596Z" style="fill:rgb(242,247,247);fill-rule:nonzero;"/>
    </g>
    <path id="path4201" d="M460.306,338.517L435.431,365.198C455.184,383.617 459.767,396.75 459.24,404.332C458.712,411.915 453.289,419.947 438.659,428.644C409.398,446.039 349.684,457.522 290.456,457.814C231.227,458.107 171.382,447.211 141.856,429.94C127.094,421.305 121.447,413.183 120.786,405.272C120.125,397.36 124.603,383.901 144.087,364.924L118.638,338.791C94.995,361.818 82.486,384.961 84.436,408.307C86.385,431.652 102.945,449.442 123.44,461.43C164.429,485.407 227.301,494.605 290.636,494.292C353.971,493.98 416.665,484.158 457.298,460.003C477.615,447.926 494.01,430.122 495.628,406.864C497.245,383.605 484.3,360.891 460.306,338.517Z" style="fill:rgb(102,102,102);"/>
</svg>
