<?xml version="1.0" encoding="UTF-8" standalone="no"?><!DOCTYPE svg PUBLIC "-//W3C//DTD SVG 1.1//EN" "http://www.w3.org/Graphics/SVG/1.1/DTD/svg11.dtd"><svg width="100%" height="100%" viewBox="0 0 580 580" version="1.1" xmlns="http://www.w3.org/2000/svg" xmlns:xlink="http://www.w3.org/1999/xlink" xml:space="preserve" xmlns:serif="http://www.serif.com/" style="fill-rule:evenodd;clip-rule:evenodd;stroke-linejoin:round;stroke-miterlimit:1.41421;"><path d="M329.978,161.692c7.151,-0.713 15.283,-2.057 24.403,-4.024c9.119,-1.962 18.06,-4.286 26.816,-6.973c8.763,-2.681 16.716,-5.362 23.868,-8.043c7.151,-2.681 12.513,-5.273 16.092,-7.776c4.292,-2.859 8.132,-5.095 11.533,-6.706c3.394,-1.611 6.706,-2.413 9.922,-2.413c3.216,0 6.794,0.891 10.724,2.681c3.935,1.789 8.584,4.292 13.946,7.508c9.654,6.081 16.984,10.998 21.989,14.749c5.006,3.757 8.228,7.151 9.654,10.195c1.433,3.038 1.433,6.075 0,9.113c-1.426,3.044 -3.75,6.527 -6.973,10.463c-3.929,4.292 -7.062,8.399 -9.386,12.335c-2.325,3.935 -4.197,7.954 -5.63,12.068c-1.426,4.113 -2.592,8.673 -3.483,13.678c-0.898,5.006 -1.522,10.724 -1.879,17.163c-1.433,15.372 -2.859,28.153 -4.292,38.349c-1.433,10.189 -3.305,19.041 -5.63,26.549c-2.324,7.508 -5.272,14.481 -8.851,20.913c-3.573,6.438 -8.222,13.411 -13.947,20.919c-2.859,3.936 -6.075,6.795 -9.654,8.585c-3.572,1.783 -6.884,2.591 -9.921,2.413c-3.038,-0.178 -5.808,-1.165 -8.311,-2.955c-2.503,-1.783 -4.114,-4.107 -4.827,-6.973c-3.579,-12.87 -16.449,-27.886 -38.617,-45.048c-9.297,-7.152 -13.322,-12.246 -12.067,-15.29c1.248,-3.038 7.24,-3.127 17.964,-0.268c8.941,2.146 15.914,3.757 20.92,4.827c5.005,1.077 9.03,1.433 12.068,1.077c3.037,-0.357 5.183,-1.344 6.431,-2.949c1.255,-1.611 2.599,-3.846 4.025,-6.706c1.79,-3.579 3.579,-8.673 5.362,-15.29c1.79,-6.61 3.401,-14.118 4.827,-22.524c1.433,-8.399 2.592,-17.34 3.49,-26.816c0.891,-9.476 1.337,-18.863 1.337,-28.16c0,-8.222 -0.713,-13.227 -2.139,-15.016c-1.433,-1.79 -5.191,-2.503 -11.266,-2.147c-7.508,0.714 -15.646,1.701 -24.403,2.949c-8.762,1.254 -17.436,2.955 -26.014,5.094c-6.438,1.79 -11.889,2.955 -16.359,3.49c-4.471,0.535 -8.489,0.803 -12.068,0.803c0.356,27.179 0.535,52.206 0.535,75.087c0,22.887 -0.089,44.341 -0.268,64.363c-0.178,20.021 -0.535,39.241 -1.07,57.657c-0.534,18.417 -1.165,36.917 -1.878,55.512c-0.713,18.238 -2.057,33.7 -4.025,46.392c-1.961,12.698 -5.094,24.766 -9.387,36.203c-3.929,10.374 -7.329,15.468 -10.189,15.29c-2.859,-0.178 -5.718,-5.992 -8.578,-17.436c-1.789,-6.789 -3.222,-16.984 -4.292,-30.567c-1.076,-13.59 -1.433,-31.287 -1.076,-53.098c0.363,-29.682 0.541,-53.455 0.541,-71.336l0,-44.514c0,-12.157 -0.089,-22.709 -0.267,-31.643c-0.185,-8.941 -0.452,-19.309 -0.809,-31.109c-0.356,-12.876 -0.802,-23.6 -1.337,-32.185c-0.541,-8.578 -1.255,-15.64 -2.146,-21.187c-0.898,-5.54 -2.057,-10.1 -3.49,-13.672c-1.426,-3.579 -3.216,-6.973 -5.362,-10.189c-3.216,-4.649 -5.273,-8.674 -6.164,-12.068c-0.898,-3.401 0.178,-5.814 3.216,-7.241c3.037,-1.432 8.31,-1.7 15.818,-0.808c7.515,0.898 17.704,3.133 30.574,6.705Zm-199.522,-9.119c28.25,-21.454 47.825,-39.151 58.734,-53.098c10.902,-13.946 15.997,-24.848 15.284,-32.713c-0.714,-10.017 1.878,-16.092 7.775,-18.238c5.904,-2.147 17.252,1.789 34.057,11.8c18.239,10.724 27.804,18.951 28.695,24.67c0.898,5.725 -4.916,10.73 -17.429,15.016c-1.79,0.72 -3.662,1.522 -5.63,2.414c-1.968,0.898 -4.292,2.057 -6.973,3.49c-2.681,1.426 -5.814,3.305 -9.387,5.629c-3.579,2.324 -8.043,5.095 -13.411,8.317c-17.876,11.8 -32.713,21.002 -44.514,27.619c-11.8,6.616 -23.244,12.424 -34.324,17.429c0.713,7.508 1.337,15.825 1.872,24.944c0.541,9.113 1.165,19.933 1.879,32.446c10.01,-1.789 19.308,-4.292 27.892,-7.508c8.578,-3.216 18.952,-8.043 31.109,-14.481c7.508,-3.936 13.94,-6.171 19.308,-6.706c5.362,-0.535 11.622,0.631 18.767,3.49c9.298,3.929 13.679,7.954 13.144,12.068c-0.535,4.107 -6.171,8.132 -16.895,12.067c-9.654,3.573 -18.327,6.432 -26.014,8.578c-7.686,2.146 -15.016,3.847 -21.989,5.095c-6.973,1.254 -13.946,2.146 -20.919,2.687c-6.974,0.535 -14.749,0.803 -23.327,0.803c0.713,11.443 1.337,24.937 1.872,40.495c0.541,15.551 1.166,32.267 1.879,50.143c6.081,-2.859 13.144,-6.343 21.187,-10.457c8.043,-4.113 16.092,-8.132 24.135,-12.067c8.043,-3.936 15.462,-7.598 22.257,-10.992c6.795,-3.4 12.157,-5.992 16.092,-7.782c10.368,-4.648 18.417,-7.597 24.136,-8.845c5.718,-1.255 9.297,-1.433 10.724,-0.541c1.432,0.898 0.987,2.776 -1.338,5.635c-2.324,2.86 -6.17,6.076 -11.532,9.655c-21.811,15.372 -38.885,27.44 -51.22,36.203c-12.335,8.756 -21.989,16.086 -28.962,21.989c-6.973,5.897 -12.424,10.991 -16.36,15.284c-3.936,4.292 -8.406,9.654 -13.411,16.092c-5.006,6.438 -9.922,9.565 -14.749,9.387c-4.827,-0.179 -13.494,-3.312 -26.014,-9.387c-18.589,-8.941 -27.53,-15.914 -26.816,-20.919c0.719,-5.006 13.768,-11.081 39.157,-18.233c0,-7.871 -0.089,-15.111 -0.273,-21.721c-0.179,-6.617 -0.535,-13.323 -1.07,-20.117c-0.535,-6.789 -1.07,-13.94 -1.611,-21.455c-0.535,-7.508 -1.338,-16.264 -2.414,-26.275c-1.783,-21.098 -4.464,-38.26 -8.043,-51.493c-3.572,-13.227 -7.865,-22.881 -12.87,-28.962c-10.011,-12.157 -12.698,-20.2 -8.049,-24.136c4.648,-3.935 19.849,-3.037 45.589,2.681Z" style="fill-rule:nonzero;stroke:#fff;stroke-width:90.36px;"/><path d="M329.978,161.692c7.151,-0.713 15.283,-2.057 24.403,-4.024c9.119,-1.962 18.06,-4.286 26.816,-6.973c8.763,-2.681 16.716,-5.362 23.868,-8.043c7.151,-2.681 12.513,-5.273 16.092,-7.776c4.292,-2.859 8.132,-5.095 11.533,-6.706c3.394,-1.611 6.706,-2.413 9.922,-2.413c3.216,0 6.794,0.891 10.724,2.681c3.935,1.789 8.584,4.292 13.946,7.508c9.654,6.081 16.984,10.998 21.989,14.749c5.006,3.757 8.228,7.151 9.654,10.195c1.433,3.038 1.433,6.075 0,9.113c-1.426,3.044 -3.75,6.527 -6.973,10.463c-3.929,4.292 -7.062,8.399 -9.386,12.335c-2.325,3.935 -4.197,7.954 -5.63,12.068c-1.426,4.113 -2.592,8.673 -3.483,13.678c-0.898,5.006 -1.522,10.724 -1.879,17.163c-1.433,15.372 -2.859,28.153 -4.292,38.349c-1.433,10.189 -3.305,19.041 -5.63,26.549c-2.324,7.508 -5.272,14.481 -8.851,20.913c-3.573,6.438 -8.222,13.411 -13.947,20.919c-2.859,3.936 -6.075,6.795 -9.654,8.585c-3.572,1.783 -6.884,2.591 -9.921,2.413c-3.038,-0.178 -5.808,-1.165 -8.311,-2.955c-2.503,-1.783 -4.114,-4.107 -4.827,-6.973c-3.579,-12.87 -16.449,-27.886 -38.617,-45.048c-9.297,-7.152 -13.322,-12.246 -12.067,-15.29c1.248,-3.038 7.24,-3.127 17.964,-0.268c8.941,2.146 15.914,3.757 20.92,4.827c5.005,1.077 9.03,1.433 12.068,1.077c3.037,-0.357 5.183,-1.344 6.431,-2.949c1.255,-1.611 2.599,-3.846 4.025,-6.706c1.79,-3.579 3.579,-8.673 5.362,-15.29c1.79,-6.61 3.401,-14.118 4.827,-22.524c1.433,-8.399 2.592,-17.34 3.49,-26.816c0.891,-9.476 1.337,-18.863 1.337,-28.16c0,-8.222 -0.713,-13.227 -2.139,-15.016c-1.433,-1.79 -5.191,-2.503 -11.266,-2.147c-7.508,0.714 -15.646,1.701 -24.403,2.949c-8.762,1.254 -17.436,2.955 -26.014,5.094c-6.438,1.79 -11.889,2.955 -16.359,3.49c-4.471,0.535 -8.489,0.803 -12.068,0.803c0.356,27.179 0.535,52.206 0.535,75.087c0,22.887 -0.089,44.341 -0.268,64.363c-0.178,20.021 -0.535,39.241 -1.07,57.657c-0.534,18.417 -1.165,36.917 -1.878,55.512c-0.713,18.238 -2.057,33.7 -4.025,46.392c-1.961,12.698 -5.094,24.766 -9.387,36.203c-3.929,10.374 -7.329,15.468 -10.189,15.29c-2.859,-0.178 -5.718,-5.992 -8.578,-17.436c-1.789,-6.789 -3.222,-16.984 -4.292,-30.567c-1.076,-13.59 -1.433,-31.287 -1.076,-53.098c0.363,-29.682 0.541,-53.455 0.541,-71.336l0,-44.514c0,-12.157 -0.089,-22.709 -0.267,-31.643c-0.185,-8.941 -0.452,-19.309 -0.809,-31.109c-0.356,-12.876 -0.802,-23.6 -1.337,-32.185c-0.541,-8.578 -1.255,-15.64 -2.146,-21.187c-0.898,-5.54 -2.057,-10.1 -3.49,-13.672c-1.426,-3.579 -3.216,-6.973 -5.362,-10.189c-3.216,-4.649 -5.273,-8.674 -6.164,-12.068c-0.898,-3.401 0.178,-5.814 3.216,-7.241c3.037,-1.432 8.31,-1.7 15.818,-0.808c7.515,0.898 17.704,3.133 30.574,6.705Zm-199.522,-9.119c28.25,-21.454 47.825,-39.151 58.734,-53.098c10.902,-13.946 15.997,-24.848 15.284,-32.713c-0.714,-10.017 1.878,-16.092 7.775,-18.238c5.904,-2.147 17.252,1.789 34.057,11.8c18.239,10.724 27.804,18.951 28.695,24.67c0.898,5.725 -4.916,10.73 -17.429,15.016c-1.79,0.72 -3.662,1.522 -5.63,2.414c-1.968,0.898 -4.292,2.057 -6.973,3.49c-2.681,1.426 -5.814,3.305 -9.387,5.629c-3.579,2.324 -8.043,5.095 -13.411,8.317c-17.876,11.8 -32.713,21.002 -44.514,27.619c-11.8,6.616 -23.244,12.424 -34.324,17.429c0.713,7.508 1.337,15.825 1.872,24.944c0.541,9.113 1.165,19.933 1.879,32.446c10.01,-1.789 19.308,-4.292 27.892,-7.508c8.578,-3.216 18.952,-8.043 31.109,-14.481c7.508,-3.936 13.94,-6.171 19.308,-6.706c5.362,-0.535 11.622,0.631 18.767,3.49c9.298,3.929 13.679,7.954 13.144,12.068c-0.535,4.107 -6.171,8.132 -16.895,12.067c-9.654,3.573 -18.327,6.432 -26.014,8.578c-7.686,2.146 -15.016,3.847 -21.989,5.095c-6.973,1.254 -13.946,2.146 -20.919,2.687c-6.974,0.535 -14.749,0.803 -23.327,0.803c0.713,11.443 1.337,24.937 1.872,40.495c0.541,15.551 1.166,32.267 1.879,50.143c6.081,-2.859 13.144,-6.343 21.187,-10.457c8.043,-4.113 16.092,-8.132 24.135,-12.067c8.043,-3.936 15.462,-7.598 22.257,-10.992c6.795,-3.4 12.157,-5.992 16.092,-7.782c10.368,-4.648 18.417,-7.597 24.136,-8.845c5.718,-1.255 9.297,-1.433 10.724,-0.541c1.432,0.898 0.987,2.776 -1.338,5.635c-2.324,2.86 -6.17,6.076 -11.532,9.655c-21.811,15.372 -38.885,27.44 -51.22,36.203c-12.335,8.756 -21.989,16.086 -28.962,21.989c-6.973,5.897 -12.424,10.991 -16.36,15.284c-3.936,4.292 -8.406,9.654 -13.411,16.092c-5.006,6.438 -9.922,9.565 -14.749,9.387c-4.827,-0.179 -13.494,-3.312 -26.014,-9.387c-18.589,-8.941 -27.53,-15.914 -26.816,-20.919c0.719,-5.006 13.768,-11.081 39.157,-18.233c0,-7.871 -0.089,-15.111 -0.273,-21.721c-0.179,-6.617 -0.535,-13.323 -1.07,-20.117c-0.535,-6.789 -1.07,-13.94 -1.611,-21.455c-0.535,-7.508 -1.338,-16.264 -2.414,-26.275c-1.783,-21.098 -4.464,-38.26 -8.043,-51.493c-3.572,-13.227 -7.865,-22.881 -12.87,-28.962c-10.011,-12.157 -12.698,-20.2 -8.049,-24.136c4.648,-3.935 19.849,-3.037 45.589,2.681Z" style="fill:#734a08;fill-rule:nonzero;"/></svg>