<?xml version="1.0" encoding="UTF-8" standalone="no"?>
<!DOCTYPE svg PUBLIC "-//W3C//DTD SVG 1.1//EN" "http://www.w3.org/Graphics/SVG/1.1/DTD/svg11.dtd">
<svg width="100%" height="100%" viewBox="0 0 580 580" version="1.1" xmlns="http://www.w3.org/2000/svg" xmlns:xlink="http://www.w3.org/1999/xlink" xml:space="preserve" xmlns:serif="http://www.serif.com/" style="fill-rule:evenodd;clip-rule:evenodd;stroke-linejoin:round;stroke-miterlimit:1.41421;">
    <g id="path14" transform="matrix(30,0,0,30,91.6129,125.773)">
        <path d="M4,14L7,11L10,14L4,14Z" style="fill-rule:nonzero;stroke:white;stroke-width:2.13px;"/>
    </g>
    <g id="path12" transform="matrix(30,0,0,30,91.4957,34.8557)">
        <path d="M6,0L6,3.271C5.383,3.628 5.001,4.288 5,5C5.001,5.713 5.382,6.374 6,6.73L6.012,17.031L8.017,17.031L8,6.729C8.617,6.372 8.999,5.712 9,5C8.999,4.287 8.618,3.626 8,3.27L8,0L6,0ZM11.006,0L11.006,1.281C12.202,1.992 12.953,3.194 12.953,4.725C12.953,6.255 12.202,7.477 11.006,8.188L11.006,9.486C12.775,8.685 14.004,6.831 14.004,4.725C14.004,2.618 12.774,0.802 11.006,0ZM3,0.004C1.231,0.805 0.004,2.636 0.004,4.742C0.004,6.848 1.231,8.702 3,9.504L3,8.279C1.804,7.569 1.035,6.201 1.035,4.67C1.035,3.139 1.803,1.945 3,1.234L3,0.004ZM4,1.859C2.842,2.288 2,3.409 2,4.742C2,6.076 2.842,7.208 4,7.637L4,6.492C3.403,6.138 3.072,5.472 3.072,4.707C3.072,3.942 3.403,3.366 4,3.012L4,1.859ZM10.006,1.869L10.006,2.975C10.603,3.329 11.023,3.977 11.023,4.742C11.023,5.507 10.603,6.046 10.006,6.4L10.006,7.525C11.164,7.097 11.971,6.076 11.971,4.742C11.971,3.408 11.164,2.298 10.006,1.869Z" style="fill-rule:nonzero;stroke:white;stroke-width:2.13px;"/>
    </g>
    <g id="path121" serif:id="path12" transform="matrix(30,0,0,30,91.4957,34.8557)">
        <path d="M6,0L6,3.271C5.383,3.628 5.001,4.288 5,5C5.001,5.713 5.382,6.374 6,6.73L6.012,17.031L8.017,17.031L8,6.729C8.617,6.372 8.999,5.712 9,5C8.999,4.287 8.618,3.626 8,3.27L8,0L6,0ZM11.006,0L11.006,1.281C12.202,1.992 12.953,3.194 12.953,4.725C12.953,6.255 12.202,7.477 11.006,8.188L11.006,9.486C12.775,8.685 14.004,6.831 14.004,4.725C14.004,2.618 12.774,0.802 11.006,0ZM3,0.004C1.231,0.805 0.004,2.636 0.004,4.742C0.004,6.848 1.231,8.702 3,9.504L3,8.279C1.804,7.569 1.035,6.201 1.035,4.67C1.035,3.139 1.803,1.945 3,1.234L3,0.004ZM4,1.859C2.842,2.288 2,3.409 2,4.742C2,6.076 2.842,7.208 4,7.637L4,6.492C3.403,6.138 3.072,5.472 3.072,4.707C3.072,3.942 3.403,3.366 4,3.012L4,1.859ZM10.006,1.869L10.006,2.975C10.603,3.329 11.023,3.977 11.023,4.742C11.023,5.507 10.603,6.046 10.006,6.4L10.006,7.525C11.164,7.097 11.971,6.076 11.971,4.742C11.971,3.408 11.164,2.298 10.006,1.869Z" style="fill-rule:nonzero;"/>
    </g>
    <g id="path141" serif:id="path14" transform="matrix(30,0,0,30,91.6129,125.773)">
        <path d="M4,14L7,11L10,14L4,14Z" style="fill-rule:nonzero;"/>
    </g>
</svg>
