<?xml version="1.0" encoding="UTF-8" standalone="no"?><!DOCTYPE svg PUBLIC "-//W3C//DTD SVG 1.1//EN" "http://www.w3.org/Graphics/SVG/1.1/DTD/svg11.dtd"><svg width="100%" height="100%" viewBox="0 0 580 580" version="1.1" xmlns="http://www.w3.org/2000/svg" xmlns:xlink="http://www.w3.org/1999/xlink" xml:space="preserve" xmlns:serif="http://www.serif.com/" style="fill-rule:evenodd;clip-rule:evenodd;stroke-linejoin:round;stroke-miterlimit:1.41421;"><path id="path4140" d="M314.253,343.402c-0.07,-15.103 -5.268,-23.92 -25.707,-24.828c-18.748,-0.833 -22.799,26.3 -22.799,26.3c0.035,61.349 0.205,72.918 0.705,146.918c1.601,8.6 11.4,7.7 18,7.5c7.8,-0.6 16,1.3 23.5,-1.1c7.9,-4.8 3.9,-15.2 4.9,-22.7l1.4,-132.09Z" style="fill:none;stroke:#fff;stroke-width:64px;"/><path id="path41401" serif:id="path4140" d="M314.253,343.402c-0.07,-15.103 -5.268,-23.92 -25.707,-24.828c-18.748,-0.833 -22.799,26.3 -22.799,26.3c0.035,61.349 0.205,72.918 0.705,146.918c1.601,8.6 11.4,7.7 18,7.5c7.8,-0.6 16,1.3 23.5,-1.1c7.9,-4.8 3.9,-15.2 4.9,-22.7l1.4,-132.09Z" style="fill:#734a08;"/><circle cx="290" cy="344.569" r="12.764" style="fill:#fff;"/></svg>