<?xml version="1.0" encoding="UTF-8" standalone="no"?><!DOCTYPE svg PUBLIC "-//W3C//DTD SVG 1.1//EN" "http://www.w3.org/Graphics/SVG/1.1/DTD/svg11.dtd"><svg width="100%" height="100%" viewBox="0 0 580 580" version="1.1" xmlns="http://www.w3.org/2000/svg" xmlns:xlink="http://www.w3.org/1999/xlink" xml:space="preserve" xmlns:serif="http://www.serif.com/" style="fill-rule:evenodd;clip-rule:evenodd;stroke-linejoin:round;stroke-miterlimit:1.41421;"><path id="path4140" d="M324.801,276.215c-0.101,-21.671 -7.559,-34.323 -36.887,-35.626c-26.902,-1.195 -32.715,37.738 -32.715,37.738c0.05,88.03 0.294,104.631 1.012,210.813c2.297,12.341 16.358,11.049 25.828,10.762c11.192,-0.861 22.959,1.866 33.72,-1.578c11.336,-6.888 5.597,-21.811 7.031,-32.572l2.009,-189.537l0.002,0Z" style="fill:none;stroke:#fff;stroke-width:91.83px;"/><path id="path41401" serif:id="path4140" d="M324.801,276.215c-0.101,-21.671 -7.559,-34.323 -36.887,-35.626c-26.902,-1.195 -32.715,37.738 -32.715,37.738c0.05,88.03 0.294,104.631 1.012,210.813c2.297,12.341 16.358,11.049 25.828,10.762c11.192,-0.861 22.959,1.866 33.72,-1.578c11.336,-6.888 5.597,-21.811 7.031,-32.572l2.009,-189.537l0.002,0Z" style="fill:#734a08;"/><circle cx="290" cy="277.89" r="18.315" style="fill:#fff;"/></svg>