<?xml version="1.0" encoding="UTF-8" standalone="no"?><!DOCTYPE svg PUBLIC "-//W3C//DTD SVG 1.1//EN" "http://www.w3.org/Graphics/SVG/1.1/DTD/svg11.dtd"><svg width="100%" height="100%" viewBox="0 0 580 580" version="1.1" xmlns="http://www.w3.org/2000/svg" xmlns:xlink="http://www.w3.org/1999/xlink" xml:space="preserve" xmlns:serif="http://www.serif.com/" style="fill-rule:evenodd;clip-rule:evenodd;stroke-linecap:round;stroke-linejoin:round;stroke-miterlimit:1.5;"><ellipse cx="388.197" cy="422.389" rx="292.393" ry="296.493" style="fill:none;stroke:#fff;stroke-width:86.83px;"/><path d="M421.145,91.067l-39.253,-7.36c-49.065,-9.813 -98.131,-22.079 -142.29,9.813l-51.519,34.346l-46.613,39.252l-36.798,36.8c-15.329,13.303 -29.299,28.096 -41.705,44.158l-12.268,24.534c-4.633,7.564 -7.95,15.859 -9.812,24.533c-0.283,8.222 -1.103,16.416 -2.454,24.532c-6.776,21.417 -10.089,43.778 -9.812,66.239c0,7.359 2.453,12.267 2.453,19.626c0,7.36 0,14.719 0,22.079c-2.468,7.989 -4.112,16.209 -4.908,24.533c-0.42,9.877 0.403,19.769 2.455,29.44c8.701,16.841 29.064,24.342 46.612,17.172l29.439,-17.172l41.706,-29.44c13.429,-10.953 28.285,-20.031 44.159,-26.986c18.517,-4.672 37.907,-4.672 56.424,0l29.44,4.906l78.505,0l53.971,-7.359c14.372,-2.279 28.39,-6.402 41.707,-12.266c19.626,-9.813 26.985,-36.8 31.893,-53.973c3.501,-10.847 7.596,-21.493 12.266,-31.893c5.311,-10.491 12.847,-19.701 22.079,-26.985l24.533,-17.174c7.36,-7.359 12.266,-4.906 19.627,0l29.438,7.361c22.015,6.162 45.72,-0.475 61.332,-17.173c7.36,-7.36 7.36,-19.626 9.813,-29.44c4.188,-6.663 6.713,-14.236 7.36,-22.079c0,-12.267 -17.173,-22.08 -24.532,-29.439c-35.836,-32.714 -77.428,-58.501 -122.665,-76.052c-32.816,-10.859 -66.453,-19.062 -100.583,-24.533Z" style="fill:none;stroke:#fff;stroke-width:86.83px;stroke-linecap:butt;stroke-miterlimit:1.41421;"/><ellipse cx="388.197" cy="423.77" rx="292.393" ry="296.493" style="fill:none;stroke:#595757;stroke-width:43.42px;"/><path d="M421.145,91.067l-39.253,-7.36c-49.065,-9.813 -98.131,-22.079 -142.29,9.813l-51.519,34.346l-46.613,39.252l-36.798,36.8c-15.329,13.303 -29.299,28.096 -41.705,44.158l-12.268,24.534c-4.633,7.564 -7.95,15.859 -9.812,24.533c-0.283,8.222 -1.103,16.416 -2.454,24.532c-6.776,21.417 -10.089,43.778 -9.812,66.239c0,7.359 2.453,12.267 2.453,19.626c0,7.36 0,14.719 0,22.079c-2.468,7.989 -4.112,16.209 -4.908,24.533c-0.42,9.877 0.403,19.769 2.455,29.44c8.701,16.841 29.064,24.342 46.612,17.172l29.439,-17.172l41.706,-29.44c13.429,-10.953 28.285,-20.031 44.159,-26.986c18.517,-4.672 37.907,-4.672 56.424,0l29.44,4.906l78.505,0l53.971,-7.359c14.372,-2.279 28.39,-6.402 41.707,-12.266c19.626,-9.813 26.985,-36.8 31.893,-53.973c3.501,-10.847 7.596,-21.493 12.266,-31.893c5.311,-10.491 12.847,-19.701 22.079,-26.985l24.533,-17.174c7.36,-7.359 12.266,-4.906 19.627,0l29.438,7.361c22.015,6.162 45.72,-0.475 61.332,-17.173c7.36,-7.36 7.36,-19.626 9.813,-29.44c4.188,-6.663 6.713,-14.236 7.36,-22.079c0,-12.267 -17.173,-22.08 -24.532,-29.439c-35.836,-32.714 -77.428,-58.501 -122.665,-76.052c-32.816,-10.859 -66.453,-19.062 -100.583,-24.533Z" style="fill:#f7d237;fill-rule:nonzero;"/><path d="M182.431,184.102c3.999,-6.497 11.495,-9.995 18.741,-12.245c-2.998,2.749 -5.747,5.997 -7.745,9.246c-2.001,2.748 -3,5.748 -3.25,8.497c-1.499,6.497 0.501,12.744 3.749,18.74c-2.5,-0.249 -4.998,-0.748 -7.247,-1.748c-7.996,-3.248 -8.247,-15.744 -4.248,-22.49Zm56.724,-3.748c-1.499,-1.25 -3.499,-2.249 -5.248,-2.998c0,-2.249 -0.499,-4.249 -1.249,-5.997c0.499,0.249 1.249,0.498 1.749,0.748c3.249,2 4.748,4.998 4.748,8.247Zm-20.741,-4.499c-1.748,-0.499 -3.498,-0.999 -5.497,-0.999c1.249,-0.5 2.248,-0.999 3.498,-1.499c2.749,-0.75 6.748,-0.5 8.247,2.249c-1.999,-0.25 -3.999,0 -6.248,0.249Zm0.999,11.245l0,2.5l-0.498,1.499c-0.501,1.998 -1.75,4.247 -3.249,6.497c-1.749,0 -3.25,0 -4.749,-0.25c-1.998,0 -4.498,-0.501 -6.746,-1.249c0.5,-2.25 1.999,-4.499 4.997,-6.748c2.5,-1.748 5.248,-3.248 8.246,-3.997c1,0.499 1.501,1.248 1.999,1.748Zm-19.24,30.236c1.249,1.749 2.499,2.999 3.748,4.498c3.998,4.248 10.995,-1.749 6.747,-5.997l-0.501,-0.749c2,-0.75 3.999,-1.499 5.998,-2.498c4.498,-2 9.245,-4.749 13.244,-8.497c12.244,-4.748 22.24,-15.493 17.492,-30.736c-5.997,-18.742 -35.733,-14.494 -48.727,-10.245c-10.496,3.249 -21.491,9.745 -25.488,20.99c-3.999,11.995 -0.5,24.989 9.994,30.986c5.249,2.749 11.495,3.248 17.493,2.248Z" style="fill:#b0c81c;fill-rule:nonzero;stroke:#000;stroke-width:2.83px;stroke-linecap:butt;stroke-miterlimit:1.41421;"/><path d="M413.325,206.592c-7.997,-3.248 -8.247,-15.744 -4.249,-22.49c3.998,-6.497 11.745,-9.995 18.991,-12.245c-3.249,2.749 -5.997,5.997 -7.996,9.246c-1.75,2.748 -2.999,5.748 -2.999,8.497c-1.748,6.497 0.25,12.994 3.499,18.74c-2.499,-0.249 -4.998,-0.748 -7.246,-1.748Zm52.475,-26.238c-1.5,-1.25 -3.499,-2.249 -5.248,-2.998c0,-2.249 -0.249,-4.249 -1.249,-5.997c0.5,0.249 1.249,0.498 1.749,0.748c3.248,2 4.748,4.998 4.748,8.247Zm-20.74,-4.499c-1.501,-0.748 -3.498,-0.999 -5.498,-0.999c1.25,-0.5 2.498,-0.999 3.499,-1.499c2.749,-0.75 6.746,-0.75 8.245,2.249c-1.999,-0.25 -3.997,0 -6.246,0.249Zm0.75,11.245c0.5,0.999 0.5,1.749 0.5,2.5l-0.751,1.499c-0.499,1.998 -1.749,4.498 -3.499,6.497c-1.499,0 -2.998,0 -4.497,-0.25c-1.749,0 -4.498,-0.501 -6.747,-1.249c0.499,-2.25 2,-4.499 4.998,-6.748c2.249,-1.748 5.247,-3.248 8.495,-3.997c0.751,0.499 1.25,1.248 1.501,1.748Zm10.245,16.993c12.244,-4.748 22.489,-15.493 17.491,-30.736c-5.997,-18.742 -35.483,-14.494 -48.728,-10.245c-10.245,3.498 -21.489,9.745 -25.486,20.99c-3.999,11.995 -0.501,25.238 10.245,30.986c5.247,2.749 11.244,3.248 17.242,2.248c1.499,1.5 2.748,2.999 3.997,4.498c3.999,4.248 10.746,-1.749 6.747,-5.997l-0.75,-0.749c2,-0.75 3.999,-1.499 5.997,-2.498c4.499,-2 9.246,-4.749 13.245,-8.497Z" style="fill:#b0c81c;fill-rule:nonzero;stroke:#000;stroke-width:2.83px;stroke-linecap:butt;stroke-miterlimit:1.41421;"/><path d="M416.573,261.316l-0.75,0c-3.999,0 -9.495,3.749 -10.245,9.496c-0.25,0.999 0,0.5 -0.25,1.499c-5.747,41.98 -31.986,72.717 -69.968,85.96c-33.734,11.745 -74.965,7.496 -103.451,-15.743c-22.741,-18.49 -29.487,-48.226 -25.239,-77.214c0.999,-6.246 -6.748,-8.995 -10.996,-7.747c-3.497,0.751 -5.497,2.5 -6.996,4.999c-1.249,2.748 -1.999,5.497 -2.499,8.246c-6.248,41.231 12.244,78.214 46.729,97.206c34.235,19.24 76.714,21.738 113.696,9.744c43.231,-14.243 76.465,-49.727 80.713,-98.703l0,-1.75c0.501,-10.995 -4.746,-15.993 -10.744,-15.993Z" style="fill:#b0c81c;fill-rule:nonzero;stroke:#000;stroke-width:2.83px;stroke-linecap:butt;stroke-miterlimit:1.41421;"/></svg>