<?xml version="1.0" encoding="UTF-8" standalone="no"?>
<svg xmlns="http://www.w3.org/2000/svg" version="1.0" width="580" height="580">
 <metadata id="metadata2975"/>
 <g id="g4284" transform="matrix(0.95600756,0,0,0.952487,13.888283,25.514087)">
  <path d="m 95.009766,229.4375 c -25.676473,25.67574 -50.332328,51.35257 -76.007813,77.0293 11.479669,-0.24345 41.318359,-0.0312 41.318359,-0.0312 l 0,214.46679 c 8.84e-4,8.83619 7.163812,15.99912 16,16 145.247328,0.0149 294.625858,0.2209 425.056638,0 8.83619,-8.8e-4 15.99912,-7.16381 16,-16 l 0,-214.45117 c 14.72333,0.208 27.46239,-0.26176 41.31836,0.0156 -25.67549,-25.67673 -50.33133,-51.35356 -76.00781,-77.0293 -129.2259,-1.5e-4 -258.45187,2.4e-4 -387.677734,0 z m 5.500004,88.89844 61.96289,0 0,61.96289 -61.96289,0 0,-61.96289 z m 105.67187,0 61.96289,0 0,61.96289 -61.96289,0 0,-61.96289 z m 105.67383,0 61.96289,0 0,61.96289 -61.96289,0 0,-61.96289 z m 105.67187,0 61.96289,0 0,61.96289 -61.96289,0 0,-61.96289 z m -317.01757,102.95508 61.96289,0 0,61.96289 -61.96289,0 0,-61.96289 z m 105.67187,0 61.96289,0 0,61.96289 -61.96289,0 0,-61.96289 z m 105.67383,0 61.96289,0 0,61.96289 -61.96289,0 0,-61.96289 z m 105.67187,0 61.96289,0 0,61.96289 -61.96289,0 0,-61.96289 z" id="path4268" shape-rendering="auto" mix-blend-mode="normal" color-interpolation-filters="linearRGB" isolation="auto" white-space="normal" opacity="0.8" fill="none" solid-opacity="1" image-rendering="auto" solid-color="#000000" stroke="#ffffff" color="#000000" stroke-linejoin="round" stroke-width="67.1" color-rendering="auto" color-interpolation="sRGB"/>
  <path id="path4259" d="m 95.009766,229.4375 c -25.676473,25.67574 -50.332328,51.35257 -76.007813,77.0293 11.479669,-0.24345 41.318359,-0.0312 41.318359,-0.0312 l 0,214.46679 c 8.84e-4,8.83619 7.163812,15.99912 16,16 145.247328,0.0149 294.625858,0.2209 425.056638,0 8.83619,-8.8e-4 15.99912,-7.16381 16,-16 l 0,-214.45117 c 14.72333,0.208 27.46239,-0.26176 41.31836,0.0156 -25.67549,-25.67673 -50.33133,-51.35356 -76.00781,-77.0293 -129.2259,-1.5e-4 -258.45187,2.4e-4 -387.677734,0 z m 5.500004,88.89844 61.96289,0 0,61.96289 -61.96289,0 0,-61.96289 z m 105.67187,0 61.96289,0 0,61.96289 -61.96289,0 0,-61.96289 z m 105.67383,0 61.96289,0 0,61.96289 -61.96289,0 0,-61.96289 z m 105.67187,0 61.96289,0 0,61.96289 -61.96289,0 0,-61.96289 z m -317.01757,102.95508 61.96289,0 0,61.96289 -61.96289,0 0,-61.96289 z m 105.67187,0 61.96289,0 0,61.96289 -61.96289,0 0,-61.96289 z m 105.67383,0 61.96289,0 0,61.96289 -61.96289,0 0,-61.96289 z m 105.67187,0 61.96289,0 0,61.96289 -61.96289,0 0,-61.96289 z" shape-rendering="auto" mix-blend-mode="normal" color-interpolation-filters="linearRGB" isolation="auto" white-space="normal" fill="#0092da" solid-opacity="1" image-rendering="auto" solid-color="#000000" color="#000000" color-rendering="auto" color-interpolation="sRGB"/>
 </g>
 <g id="g4148" transform="translate(-146.62111,-96.65839)">
  <path d="m 269.50594,231.57431 c 8,37.5 45.9,68 85,62 24.7,-2.4 47.9,-17 61,-38 11.7,-5.5 26.3,3.4 37,-5.5 8.4,-5.3 14.3,-22 24.8,-18.9 5.9,4 10,14.8 18.4,13 8.6,-4 15.7,-22.6 24,-7.9 4.2,5.2 12.7,13 18.6,5.2 7.1,-11.5 17,-15 24.5,-1.8 5.4,7 12.8,5.5 19.5,-1.2 8.5,-8.9 18.6,-17.6 23.8,-28.9 -0.6,-11.6 -8.6,-16.6 -17.6,-24.6 -15,-15 -28,-11 -42,-11 -44,-1 -91,1 -131,-1 -18,-26 -39,-40 -70,-39.4 -48,-0.8 -88,51 -76,98 z m 48,-37 c 17.3,1.6 24.9,29 8.6,38 -13.7,8.7 -35,-2.8 -31.6,-19.9 2.8,-13 12.6,-19 23,-18 z" id="path4139" mix-blend-mode="normal" solid-color="#000000" opacity="0.8" color-interpolation-filters="linearRGB" color="#000000" image-rendering="auto" color-rendering="auto" stroke-width="64" isolation="auto" color-interpolation="sRGB" solid-opacity="1" fill="none" stroke-linejoin="round" stroke="#ffffff" shape-rendering="auto"/>
  <path id="path2307" d="m 269.50594,231.57431 c 8,37.5 45.9,68 85,62 24.7,-2.4 47.9,-17 61,-38 11.7,-5.5 26.3,3.4 37,-5.5 8.4,-5.3 14.3,-22 24.8,-18.9 5.9,4 10,14.8 18.4,13 8.6,-4 15.7,-22.6 24,-7.9 4.2,5.2 12.7,13 18.6,5.2 7.1,-11.5 17,-15 24.5,-1.8 5.4,7 12.8,5.5 19.5,-1.2 8.5,-8.9 18.6,-17.6 23.8,-28.9 -0.6,-11.6 -8.6,-16.6 -17.6,-24.6 -15,-15 -28,-11 -42,-11 -44,-1 -91,1 -131,-1 -18,-26 -39,-40 -70,-39.4 -48,-0.8 -88,51 -76,98 z m 48,-37 c 17.3,1.6 24.9,29 8.6,38 -13.7,8.7 -35,-2.8 -31.6,-19.9 2.8,-13 12.6,-19 23,-18 z" fill="#0092da"/>
 </g>
</svg>
