<?xml version="1.0" encoding="UTF-8" standalone="no"?><!DOCTYPE svg PUBLIC "-//W3C//DTD SVG 1.1//EN" "http://www.w3.org/Graphics/SVG/1.1/DTD/svg11.dtd"><svg width="100%" height="100%" viewBox="0 0 580 580" version="1.1" xmlns="http://www.w3.org/2000/svg" xmlns:xlink="http://www.w3.org/1999/xlink" xml:space="preserve" xmlns:serif="http://www.serif.com/" style="fill-rule:evenodd;clip-rule:evenodd;stroke-linecap:round;stroke-linejoin:round;stroke-miterlimit:1.5;"><ellipse cx="388.197" cy="422.389" rx="292.393" ry="296.493" style="fill:none;stroke:#fff;stroke-width:86.83px;"/><path d="M421.145,91.067l-39.253,-7.36c-49.065,-9.813 -98.131,-22.079 -142.29,9.813l-51.519,34.346l-46.613,39.252l-36.798,36.8c-15.329,13.303 -29.299,28.096 -41.705,44.158l-12.268,24.534c-4.633,7.564 -7.95,15.859 -9.812,24.533c-0.283,8.222 -1.103,16.416 -2.454,24.532c-6.776,21.417 -10.089,43.778 -9.812,66.239c0,7.359 2.453,12.267 2.453,19.626c0,7.36 0,14.719 0,22.079c-2.468,7.989 -4.112,16.209 -4.908,24.533c-0.42,9.877 0.403,19.769 2.455,29.44c8.701,16.841 29.064,24.342 46.612,17.172l29.439,-17.172l41.706,-29.44c13.429,-10.953 28.285,-20.031 44.159,-26.986c18.517,-4.672 37.907,-4.672 56.424,0l29.44,4.906l78.505,0l53.971,-7.359c14.372,-2.279 28.39,-6.402 41.707,-12.266c19.626,-9.813 26.985,-36.8 31.893,-53.973c3.501,-10.847 7.596,-21.493 12.266,-31.893c5.311,-10.491 12.847,-19.701 22.079,-26.985l24.533,-17.174c7.36,-7.359 12.266,-4.906 19.627,0l29.438,7.361c22.015,6.162 45.72,-0.475 61.332,-17.173c7.36,-7.36 7.36,-19.626 9.813,-29.44c4.188,-6.663 6.713,-14.236 7.36,-22.079c0,-12.267 -17.173,-22.08 -24.532,-29.439c-35.836,-32.714 -77.428,-58.501 -122.665,-76.052c-32.816,-10.859 -66.453,-19.062 -100.583,-24.533Z" style="fill:none;stroke:#fff;stroke-width:86.83px;stroke-linecap:butt;stroke-miterlimit:1.41421;"/><ellipse cx="388.197" cy="423.77" rx="292.393" ry="296.493" style="fill:none;stroke:#595757;stroke-width:43.42px;"/><path d="M421.145,91.067l-39.253,-7.36c-49.065,-9.813 -98.131,-22.079 -142.29,9.813l-51.519,34.346l-46.613,39.252l-36.798,36.8c-15.329,13.303 -29.299,28.096 -41.705,44.158l-12.268,24.534c-4.633,7.564 -7.95,15.859 -9.812,24.533c-0.283,8.222 -1.103,16.416 -2.454,24.532c-6.776,21.417 -10.089,43.778 -9.812,66.239c0,7.359 2.453,12.267 2.453,19.626c0,7.36 0,14.719 0,22.079c-2.468,7.989 -4.112,16.209 -4.908,24.533c-0.42,9.877 0.403,19.769 2.455,29.44c8.701,16.841 29.064,24.342 46.612,17.172l29.439,-17.172l41.706,-29.44c13.429,-10.953 28.285,-20.031 44.159,-26.986c18.517,-4.672 37.907,-4.672 56.424,0l29.44,4.906l78.505,0l53.971,-7.359c14.372,-2.279 28.39,-6.402 41.707,-12.266c19.626,-9.813 26.985,-36.8 31.893,-53.973c3.501,-10.847 7.596,-21.493 12.266,-31.893c5.311,-10.491 12.847,-19.701 22.079,-26.985l24.533,-17.174c7.36,-7.359 12.266,-4.906 19.627,0l29.438,7.361c22.015,6.162 45.72,-0.475 61.332,-17.173c7.36,-7.36 7.36,-19.626 9.813,-29.44c4.188,-6.663 6.713,-14.236 7.36,-22.079c0,-12.267 -17.173,-22.08 -24.532,-29.439c-35.836,-32.714 -77.428,-58.501 -122.665,-76.052c-32.816,-10.859 -66.453,-19.062 -100.583,-24.533Z" style="fill:#a09dac;fill-rule:nonzero;"/><path d="M246.484,317.213c1.344,-1.02 2.495,-4.138 1.373,-5.762c-1.973,-2.852 -8.066,-8.655 -13.207,-11.35c-6.679,-3.503 -18.315,-8.413 -26.873,-9.666c-8.102,-1.187 -17.701,0.097 -24.472,2.148c-6.088,1.845 -11.526,5.797 -16.154,10.162c-5.411,5.102 -12.614,12.553 -16.308,20.451c-3.734,7.982 -6.171,19.85 -6.097,27.443c0.062,6.42 3.451,12.632 6.54,18.117c3.089,5.486 7.002,10.895 11.993,14.798c4.992,3.902 11.416,7.472 17.955,8.616c9.732,1.702 30.344,2.952 40.437,1.594c7.384,-0.993 14.158,-5.428 20.118,-9.742c5.96,-4.313 11.378,-10.296 15.642,-16.138c4.199,-5.753 7.046,-16.708 9.943,-18.912c2.484,-1.89 4.773,4.062 7.438,5.687c2.719,1.658 5.615,3.885 8.876,4.259c4.48,0.513 13.179,-0.03 18.008,-1.178c4.008,-0.953 7.763,-3.114 10.963,-5.709c4.229,-3.432 14.414,-14.878 14.414,-14.878l14.781,-16.183l21.018,-22.611l18.756,-23.339l8.409,7.874l11.895,5.551l9.927,2.944l9.921,-2.628l12.553,-10.483l2.299,8.271c0,0 2.524,9.533 0.635,11.166c-1.889,1.633 -7.959,-1.154 -11.969,-1.367c-5.674,-0.3 -17.162,-0.776 -22.071,-0.435c-2.591,0.18 -7.386,2.481 -7.386,2.481l-11.729,6.571l-11.601,12.199l-5.92,13.38l-1.364,14.595l5.501,19.04l9.877,11.004l9.319,6.637l15.152,6.081l26.17,0.056l11.419,-3.566l16.919,-16.567l5.31,-9.951l2.156,-14.212l0.463,-18.769l-4.973,-19.397l-3.944,-17.608l-3.738,-19.653l-2.58,-15.799l-0.419,-14.182l-4.3,-2.965l-6.669,1.016l-4.718,5.936l-5.171,7.302l-4.087,7.957l-1.825,9.294l-6.063,7.199l-10.948,-0.508l-5.845,-11.529l0.167,-13.286l3.446,-10.006l3.723,-5.291l6.324,-4.843l9.797,-1.408l-3.426,-3.29l-7.809,-2.001l0.219,-13.197l-0.268,-11.141l-3.644,-1.511l-2.716,6.978l-4.702,9.544l-8.344,9.311l-5.679,2.869l-10.39,2.999l-11.269,1.594l-10.996,0.902l-4.128,4.684l2.231,4.3l15.328,0.907l15.851,0.485l-1.255,4.526l-6.775,7.774l-7.525,7.882l-5.192,8.752l-23.26,28.011l-17.066,20.098l-18.523,16.289l-8.522,4.745l-15.49,-0.459l-2.702,-5.557l-2.141,-11.734l3.126,-10.508l1.809,-12.133l0.713,-4.221l-6.473,2.431l-5.381,8.807l-4.628,10.559l-7.193,14.845l-8.2,9.88l-5.385,11.141l-11.953,14.723l-16.093,7.13l-20.337,0.95l-14.371,-6.888l-4.424,-6.254l-6.783,-13.256l1.547,-15.763l4.827,-13.183l8.678,-6.914l6.611,-6.013l15.278,-0.748l9.774,0.691l7.631,2.979l6.224,4.795l7.299,3.636c0,0 5.347,0.665 6.691,-0.354Zm146.697,-4.091l10.147,-4.606l5.543,-0.306l13.108,1.234l13.084,4.542l13.628,8.475l2.72,10.501l0.791,11.736l-4.208,14.378l-10.807,11.286l-14.115,6.575l-26.519,-2.758l-13.203,-11.659l-2.558,-12.459l0.541,-18.79l5.322,-12.035l6.526,-6.114Zm-131.395,-51.094l6.007,-1.256l10.741,0.033l6.604,3.187l6.2,5.558l2.095,5.492l-2.427,11.07l-6.596,0.681l-11.376,-2.322l-9.832,-5.789l-4.258,-7.905l2.842,-8.749Z" style="fill:#9eff9b;"/><path d="M252.065,232.072c0.013,-3.002 1.251,-7.13 3.182,-9.102c1.931,-1.972 8.404,-2.73 8.404,-2.73l20.794,0.576l14.333,3.75l18.216,6.102l10.932,8.367l5.974,16.373l-2.755,15.993l-12.182,21.968l-34.398,36.561l-2.044,-16.595l5.568,-15.285l5.786,-15.424l7.766,-13.103l1.754,-14.304l-20.898,-2.184l-17.099,-4.065l-10.228,-7.989c0,0 -3.118,-5.907 -3.105,-8.909Zm17.955,-57.82c2.083,-2.8 6.316,-6.508 10.064,-5.644c10.917,2.517 11.254,11.694 13.408,16.799c3.373,7.994 7.344,9.177 7.344,9.177c0,0 4.954,5.688 8.065,7.738c3.567,2.35 8.831,4.381 13.341,6.365c4.73,2.081 9.967,4.403 15.042,6.122c5.041,1.708 10.123,3.562 15.408,4.192c5.755,0.685 13.906,-0.287 19.126,-0.079c4.085,0.164 12.176,0.216 12.194,1.33c0.017,1.114 -7.744,4.629 -12.091,5.354c-7.11,1.187 -21.331,1.781 -30.564,1.765c-8.303,-0.015 -16.753,0.023 -24.838,-1.865c-8.565,-2 -19.678,-6.348 -26.554,-10.136c-5.651,-3.113 -10.971,-7.598 -14.701,-12.592c-3.73,-4.994 -6.805,-12.617 -7.679,-17.371c-0.688,-3.743 0.352,-8.355 2.435,-11.155Zm60.83,-29.06c12.084,0.032 21.871,9.068 21.842,20.165c-0.03,11.098 -9.865,20.082 -21.949,20.05c-12.084,-0.032 -21.872,-9.068 -21.842,-20.166c0.029,-11.097 9.864,-20.081 21.949,-20.049Z" style="fill:#9be6ff;"/></svg>