<?xml version="1.0" encoding="UTF-8" standalone="no"?><!DOCTYPE svg PUBLIC "-//W3C//DTD SVG 1.1//EN" "http://www.w3.org/Graphics/SVG/1.1/DTD/svg11.dtd"><svg width="100%" height="100%" viewBox="0 0 580 580" version="1.1" xmlns="http://www.w3.org/2000/svg" xmlns:xlink="http://www.w3.org/1999/xlink" xml:space="preserve" xmlns:serif="http://www.serif.com/" style="fill-rule:evenodd;clip-rule:evenodd;stroke-linejoin:round;stroke-miterlimit:1.41421;"><circle cx="292.35" cy="141.736" r="32.128" style="fill:none;stroke:#fff;stroke-width:64.01px;"/><path d="M384.611,218.511l44.167,-54.115c4.874,-5.973 14.628,-6.08 21.783,-0.238l2.29,1.867c7.157,5.842 9.006,15.419 4.133,21.39c0,0 -52.465,64.494 -53.68,65.202c-6.15,6.456 -11.794,9.378 -19.318,5.836l-51.742,-24.352l0,37.891l-84.635,0l0,-53.92l-75.487,-100.888c-8.71,-11.64 -9.773,-25.564 -2.379,-31.094l2.366,-1.772c7.398,-5.536 20.453,-0.584 29.163,11.059l67.988,90.866l47.526,0l67.825,32.268Z" style="fill:none;stroke:#fff;stroke-width:64.01px;"/><path d="M150.257,191.807c13.164,24.896 75.26,83.821 75.26,83.821c3.006,5.765 8.099,9.056 11.374,7.347c3.278,-1.707 3.495,-7.766 0.49,-13.531c0,0 -62.52,-59.601 -75.747,-84.752c-13.613,-25.881 -27.695,-113.642 -27.695,-113.642c-3.005,-5.768 -8.099,-9.057 -11.375,-7.348c-3.277,1.707 -2.606,6.878 -0.486,13.532c0,0 14.391,88.497 28.179,114.573Z" style="fill:none;fill-rule:nonzero;stroke:#fff;stroke-width:64.01px;"/><path d="M334.988,319.053l19.301,71.025l51.893,67.822c5.365,7.009 2.567,18.165 -6.25,24.914l-2.82,2.159c-8.817,6.745 -20.314,6.532 -25.681,-0.483l-53.942,-70.499c-1.086,-1.421 -1.822,-3.016 -2.257,-4.705c-1,-1.161 -1.742,-2.487 -2.145,-3.97l-11.077,-40.763c-4.261,0.587 -9.147,0.966 -14.346,1.066l-5.33,0.102c-15.859,0.304 -32.84,-6.271 -34.004,-7.067l-31.388,-21.48l-8.741,57.368c-1.224,8.035 -11.115,13.195 -22.091,11.524l-3.513,-0.535c-10.975,-1.672 -18.882,-9.541 -17.657,-17.581l12.308,-80.79c0.312,-2.046 4.464,-13.109 6.955,-16.752l2.006,-2.931c6.269,-9.162 16.51,-13.062 22.873,-8.706l38.523,26.365l0,-17.115l84.635,0l2.748,31.032Z" style="fill:none;stroke:#fff;stroke-width:64.01px;"/><circle cx="292.35" cy="141.736" r="32.128" style="fill:#734a08;"/><path d="M384.611,218.511l44.167,-54.115c4.874,-5.973 14.628,-6.08 21.783,-0.238l2.29,1.867c7.157,5.842 9.006,15.419 4.133,21.39c0,0 -52.465,64.494 -53.68,65.202c-6.15,6.456 -11.794,9.378 -19.318,5.836l-51.742,-24.352l0,37.891l-84.635,0l0,-53.92l-75.487,-100.888c-8.71,-11.64 -9.773,-25.564 -2.379,-31.094l2.366,-1.772c7.398,-5.536 20.453,-0.584 29.163,11.059l67.988,90.866l47.526,0l67.825,32.268Z" style="fill:#734a08;"/><path d="M150.257,191.807c13.164,24.896 75.26,83.821 75.26,83.821c3.006,5.765 8.099,9.056 11.374,7.347c3.278,-1.707 3.495,-7.766 0.49,-13.531c0,0 -62.52,-59.601 -75.747,-84.752c-13.613,-25.881 -27.695,-113.642 -27.695,-113.642c-3.005,-5.768 -8.099,-9.057 -11.375,-7.348c-3.277,1.707 -2.606,6.878 -0.486,13.532c0,0 14.391,88.497 28.179,114.573Z" style="fill:#734a08;fill-rule:nonzero;"/><path d="M334.988,319.053l19.301,71.025l51.893,67.822c5.365,7.009 2.567,18.165 -6.25,24.914l-2.82,2.159c-8.817,6.745 -20.314,6.532 -25.681,-0.483l-53.942,-70.499c-1.086,-1.421 -1.822,-3.016 -2.257,-4.705c-1,-1.161 -1.742,-2.487 -2.145,-3.97l-11.077,-40.763c-4.261,0.587 -9.147,0.966 -14.346,1.066l-5.33,0.102c-15.859,0.304 -32.84,-6.271 -34.004,-7.067l-31.388,-21.48l-8.741,57.368c-1.224,8.035 -11.115,13.195 -22.091,11.524l-3.513,-0.535c-10.975,-1.672 -18.882,-9.541 -17.657,-17.581l12.308,-80.79c0.312,-2.046 4.464,-13.109 6.955,-16.752l2.006,-2.931c6.269,-9.162 16.51,-13.062 22.873,-8.706l38.523,26.365l0,-17.115l84.635,0l2.748,31.032Z" style="fill:#734a08;"/></svg>