<?xml version="1.0" encoding="UTF-8" standalone="no"?>
<!DOCTYPE svg PUBLIC "-//W3C//DTD SVG 1.1//EN" "http://www.w3.org/Graphics/SVG/1.1/DTD/svg11.dtd">
<svg width="100%" height="100%" viewBox="0 0 580 580" version="1.1" xmlns="http://www.w3.org/2000/svg" xmlns:xlink="http://www.w3.org/1999/xlink" xml:space="preserve" xmlns:serif="http://www.serif.com/" style="fill-rule:evenodd;clip-rule:evenodd;stroke-linejoin:round;stroke-miterlimit:1.41421;">
    <g transform="matrix(1.39385,0,0,1.39385,26.9572,12.7354)">
        <circle cx="190.403" cy="92.55" r="23.05" style="fill:none;stroke:white;stroke-width:45.92px;"/>
    </g>
    <g transform="matrix(1.39385,0,0,1.39385,26.9572,12.7354)">
        <path d="M256.594,147.631L288.281,108.807C291.778,104.522 298.776,104.445 303.909,108.636L305.552,109.976C310.687,114.167 312.013,121.038 308.517,125.322C308.517,125.322 270.877,171.592 270.005,172.1C265.593,176.732 261.544,178.828 256.146,176.287L219.024,158.816L219.024,186L158.304,186L158.304,147.316L104.147,74.935C97.898,66.584 97.135,56.595 102.44,52.627L104.137,51.356C109.445,47.384 118.811,50.937 125.06,59.29L173.837,124.481L207.934,124.481L256.594,147.631Z" style="fill:none;stroke:white;stroke-width:45.92px;"/>
    </g>
    <g transform="matrix(1.39385,0,0,1.39385,26.9572,12.7354)">
        <path d="M159.503,356.801C159.503,359.451 161.651,361.6 164.302,361.6C166.953,361.6 169.102,359.452 169.102,356.801L169.102,265.6C169.102,262.949 166.954,260.8 164.302,260.8C161.652,260.8 159.503,262.948 159.503,265.6L159.503,356.801Z" style="fill:none;fill-rule:nonzero;stroke:white;stroke-width:45.92px;"/>
    </g>
    <g transform="matrix(1.39385,0,0,1.39385,26.9572,12.7354)">
        <path d="M88.46,128.473C97.904,146.334 142.454,188.609 142.454,188.609C144.611,192.745 148.265,195.106 150.614,193.88C152.966,192.655 153.122,188.308 150.966,184.172C150.966,184.172 106.112,141.412 96.622,123.368C86.856,104.8 76.753,41.837 76.753,41.837C74.597,37.699 70.942,35.339 68.592,36.565C66.241,37.79 66.722,41.5 68.243,46.274C68.243,46.274 78.568,109.765 88.46,128.473Z" style="fill:none;fill-rule:nonzero;stroke:white;stroke-width:45.92px;"/>
    </g>
    <g transform="matrix(1.39385,0,0,1.39385,26.9572,12.7354)">
        <path d="M220.993,219.764L234.84,270.72L272.07,319.378C275.919,324.406 273.912,332.41 267.586,337.252L265.563,338.801C259.237,343.64 250.989,343.487 247.138,338.454L208.438,287.876C207.659,286.856 207.131,285.712 206.819,284.5C206.102,283.667 205.569,282.716 205.28,281.652L197.333,252.407C194.276,252.828 190.771,253.1 187.041,253.172L183.217,253.245C171.839,253.463 159.656,248.746 158.821,248.175L136.302,232.764L130.031,273.922C129.153,279.687 122.057,283.389 114.182,282.19L111.662,281.806C103.788,280.607 98.115,274.961 98.994,269.193L107.824,211.231C108.048,209.763 111.027,201.826 112.814,199.213L114.253,197.11C118.751,190.537 126.098,187.739 130.663,190.864L158.301,209.779L158.301,197.5L219.021,197.5L220.993,219.764Z" style="fill:none;stroke:white;stroke-width:45.92px;"/>
    </g>
    <g transform="matrix(1.39385,0,0,1.39385,26.9572,12.7354)">
        <circle cx="190.403" cy="92.55" r="23.05" style="fill:rgb(115,74,8);"/>
    </g>
    <g transform="matrix(1.39385,0,0,1.39385,26.9572,12.7354)">
        <path d="M256.594,147.631L288.281,108.807C291.778,104.522 298.776,104.445 303.909,108.636L305.552,109.976C310.687,114.167 312.013,121.038 308.517,125.322C308.517,125.322 270.877,171.592 270.005,172.1C265.593,176.732 261.544,178.828 256.146,176.287L219.024,158.816L219.024,186L158.304,186L158.304,147.316L104.147,74.935C97.898,66.584 97.135,56.595 102.44,52.627L104.137,51.356C109.445,47.384 118.811,50.937 125.06,59.29L173.837,124.481L207.934,124.481L256.594,147.631Z" style="fill:rgb(115,74,8);"/>
    </g>
    <g transform="matrix(1.39385,0,0,1.39385,26.9572,12.7354)">
        <path d="M159.503,356.801C159.503,359.451 161.651,361.6 164.302,361.6C166.953,361.6 169.102,359.452 169.102,356.801L169.102,265.6C169.102,262.949 166.954,260.8 164.302,260.8C161.652,260.8 159.503,262.948 159.503,265.6L159.503,356.801Z" style="fill:rgb(115,74,8);fill-rule:nonzero;"/>
    </g>
    <g transform="matrix(1.39385,0,0,1.39385,26.9572,12.7354)">
        <path d="M88.46,128.473C97.904,146.334 142.454,188.609 142.454,188.609C144.611,192.745 148.265,195.106 150.614,193.88C152.966,192.655 153.122,188.308 150.966,184.172C150.966,184.172 106.112,141.412 96.622,123.368C86.856,104.8 76.753,41.837 76.753,41.837C74.597,37.699 70.942,35.339 68.592,36.565C66.241,37.79 66.722,41.5 68.243,46.274C68.243,46.274 78.568,109.765 88.46,128.473Z" style="fill:rgb(115,74,8);fill-rule:nonzero;"/>
    </g>
    <g transform="matrix(1.39385,0,0,1.39385,26.9572,12.7354)">
        <path d="M220.993,219.764L234.84,270.72L272.07,319.378C275.919,324.406 273.912,332.41 267.586,337.252L265.563,338.801C259.237,343.64 250.989,343.487 247.138,338.454L208.438,287.876C207.659,286.856 207.131,285.712 206.819,284.5C206.102,283.667 205.569,282.716 205.28,281.652L197.333,252.407C194.276,252.828 190.771,253.1 187.041,253.172L183.217,253.245C171.839,253.463 159.656,248.746 158.821,248.175L136.302,232.764L130.031,273.922C129.153,279.687 122.057,283.389 114.182,282.19L111.662,281.806C103.788,280.607 98.115,274.961 98.994,269.193L107.824,211.231C108.048,209.763 111.027,201.826 112.814,199.213L114.253,197.11C118.751,190.537 126.098,187.739 130.663,190.864L158.301,209.779L158.301,197.5L219.021,197.5L220.993,219.764Z" style="fill:rgb(115,74,8);"/>
    </g>
</svg>
