<?xml version="1.0" encoding="UTF-8" standalone="no"?><!DOCTYPE svg PUBLIC "-//W3C//DTD SVG 1.1//EN" "http://www.w3.org/Graphics/SVG/1.1/DTD/svg11.dtd"><svg width="100%" height="100%" viewBox="0 0 580 580" version="1.1" xmlns="http://www.w3.org/2000/svg" xmlns:xlink="http://www.w3.org/1999/xlink" xml:space="preserve" xmlns:serif="http://www.serif.com/" style="fill-rule:evenodd;clip-rule:evenodd;stroke-linejoin:round;stroke-miterlimit:1.41421;"><path id="path3255" d="M369.351,277.683l30.472,156.012l-122.309,0l-19.525,-99.586l0.067,0.033l41.503,-23.619l-249.559,0l4.128,-8.206l80.096,0l79.995,-156.012l104.053,0l-31.791,62.229l-94.765,60.943l301.197,0l-4.111,8.206l-119.451,0Zm160.649,-127.284l-135.134,90.4l-125.271,0l135.185,-90.4l125.22,0Zm-309.115,186.586l-49.371,96.71l-104.053,0l49.387,-96.71l104.037,0Z" style="fill:#005296;stroke:#fff;stroke-width:64px;"/><path id="path32551" serif:id="path3255" d="M369.351,277.683l30.472,156.012l-122.309,0l-19.525,-99.586l0.067,0.033l41.503,-23.619l-249.559,0l4.128,-8.206l80.096,0l79.995,-156.012l104.053,0l-31.791,62.229l-94.765,60.943l301.197,0l-4.111,8.206l-119.451,0Zm160.649,-127.284l-135.134,90.4l-125.271,0l135.185,-90.4l125.22,0Zm-309.115,186.586l-49.371,96.71l-104.053,0l49.387,-96.71l104.037,0Z" style="fill:#005296;"/></svg>