<?xml version="1.0" encoding="UTF-8" standalone="no"?>
<!DOCTYPE svg PUBLIC "-//W3C//DTD SVG 1.1//EN" "http://www.w3.org/Graphics/SVG/1.1/DTD/svg11.dtd">
<svg width="100%" height="100%" viewBox="0 0 462 461" version="1.1" xmlns="http://www.w3.org/2000/svg" xmlns:xlink="http://www.w3.org/1999/xlink" xml:space="preserve" xmlns:serif="http://www.serif.com/" style="fill-rule:evenodd;clip-rule:evenodd;stroke-linejoin:round;stroke-miterlimit:1.41421;">
    <g id="Layer-1" serif:id="Layer 1" transform="matrix(3.27035,0,0,3.27035,-1064.54,-355.86)">
        <g transform="matrix(1.0297,0,0,2.28339,270.039,-80.2978)">
            <rect x="53.873" y="92.687" width="137.195" height="42.001" style="fill:white;"/>
        </g>
        <g id="path9" transform="matrix(0.941232,0,0,0.941232,23.2807,39.329)">
            <path d="M359.308,163.735C360.336,162.012 359.042,161.849 358.26,161.8C344.698,161.465 333.451,169.662 325.691,176.408C325.28,176.76 325.648,177.241 326.083,176.951C334.954,170.886 341.655,169.603 352.464,168.364C355.295,168.029 358.234,165.53 359.308,163.735" style="fill:rgb(219,84,38);fill-rule:nonzero;"/>
        </g>
        <g id="path11" transform="matrix(0.941232,0,0,0.941232,23.2807,39.329)">
            <path d="M362.886,150.92C363.794,149.136 362.462,149.073 361.703,149.073C348.15,149.689 336.766,158.674 329.512,165.948C329.131,166.329 329.544,166.804 329.918,166.463C337.55,159.424 345.247,157.764 355.956,155.789C358.75,155.265 361.936,152.792 362.886,150.92" style="fill:rgb(219,84,38);fill-rule:nonzero;"/>
        </g>
        <g id="path13" transform="matrix(0.941232,0,0,0.941232,23.2807,39.329)">
            <path d="M365.806,138.491C366.658,136.673 365.33,136.653 364.566,136.673C351.041,137.769 339.562,147.147 332.566,154.672C332.206,155.079 332.606,155.494 332.999,155.174C340.773,148.779 347.993,146.022 358.63,143.675C361.405,143.048 364.955,140.386 365.806,138.491" style="fill:rgb(219,84,38);fill-rule:nonzero;"/>
        </g>
        <g id="path15" transform="matrix(0.941232,0,0,0.941232,23.2807,39.329)">
            <path d="M353.632,129.047C354.336,126.9 351.834,127.504 350.749,128.149C346.369,131.028 342.648,134.907 335.741,142.796C335.374,143.217 335.792,143.586 336.185,143.271C342.193,138.454 346.39,137.165 349.138,135.356C351.516,133.791 352.976,131.005 353.632,129.047" style="fill:rgb(219,84,38);fill-rule:nonzero;"/>
        </g>
        <g id="path17" transform="matrix(0.941232,0,0,0.941232,23.2807,39.329)">
            <path d="M407.438,178.875C399.309,175.14 390.693,170.71 381.762,168.564C381.303,168.453 381.189,167.932 381.962,167.906C387.315,167.714 401.942,170.041 413.106,173.322C426.817,177.352 438.725,184.56 443.306,185.427C443.849,185.539 443.678,185.897 443.306,185.968C432.256,189.375 418.058,183.756 407.438,178.875" style="fill:rgb(147,136,116);fill-rule:nonzero;"/>
        </g>
        <g id="path19" transform="matrix(0.941232,0,0,0.941232,23.2807,39.329)">
            <path d="M412.305,165.009C404.003,161.7 393.841,158.03 384.796,156.353C384.338,156.258 384.195,155.752 384.967,155.694C390.292,155.214 407.724,156.991 419.03,159.682C432.943,162.997 445.395,169.638 450.031,170.276C450.575,170.348 450.433,170.701 450.09,170.817C439.412,174.576 423.154,169.326 412.305,165.009" style="fill:rgb(147,136,116);fill-rule:nonzero;"/>
        </g>
        <g id="path21" transform="matrix(0.941232,0,0,0.941232,23.2807,39.329)">
            <path d="M418.058,151.461C409.498,148.824 397.161,145.458 388.03,144.502C387.544,144.433 387.371,143.952 388.145,143.829C393.411,142.919 411.503,143.944 422.982,145.722C437.094,147.923 451.979,154.862 456.645,155.136C457.189,155.168 457.073,155.531 456.731,155.666C446.453,160.581 429.222,154.913 418.058,151.461" style="fill:rgb(147,136,116);fill-rule:nonzero;"/>
        </g>
        <g id="path23" transform="matrix(0.941232,0,0,0.941232,23.2807,39.329)">
            <path d="M432.628,139.659C424.069,137.025 413.564,134.878 399.309,133.802C398.822,133.768 398.621,133.23 399.395,133.141C409.642,131.933 422.982,131.85 434.46,133.645C448.572,135.84 461.739,140.022 466.405,140.286C466.949,140.326 466.835,140.689 466.491,140.829C457.989,146.139 443.792,143.108 432.628,139.659" style="fill:rgb(147,136,116);fill-rule:nonzero;"/>
        </g>
        <g id="path25" transform="matrix(0.941232,0,0,0.941232,23.2807,39.329)">
            <path d="M356.718,124.988C356.408,125.163 356.039,124.716 356.408,124.465C361.869,120.594 394.442,97.88 435.49,119.842C435.834,120.019 435.691,120.529 435.262,120.44C413.478,115.931 377.032,113.999 356.718,124.988" style="fill:rgb(219,84,38);fill-rule:nonzero;"/>
        </g>
    </g>
</svg>
