<?xml version="1.0" encoding="UTF-8" standalone="no"?>
<!DOCTYPE svg PUBLIC "-//W3C//DTD SVG 1.1//EN" "http://www.w3.org/Graphics/SVG/1.1/DTD/svg11.dtd">
<svg width="100%" height="100%" viewBox="0 0 580 580" version="1.1" xmlns="http://www.w3.org/2000/svg" xmlns:xlink="http://www.w3.org/1999/xlink" xml:space="preserve" xmlns:serif="http://www.serif.com/" style="fill-rule:evenodd;clip-rule:evenodd;stroke-linejoin:round;stroke-miterlimit:2;">
    <g id="g3253" transform="matrix(11.582,0,0,-11.582,345.033,277.517)">
        <path id="path3255" d="M0,0L1.801,-9.221L-5.428,-9.221L-6.582,-3.335L-6.578,-3.337L-4.125,-1.941L-18.875,-1.941L-18.631,-1.456L-13.897,-1.456L-9.169,7.765L-3.019,7.765L-4.898,4.087L-10.499,0.485L7.303,0.485L7.06,0L0,0ZM9.495,7.523L1.508,2.18L-5.896,2.18L2.094,7.523L9.495,7.523ZM-8.775,-3.505L-11.693,-9.221L-17.843,-9.221L-14.924,-3.505L-8.775,-3.505Z" style="fill:none;stroke:white;stroke-width:2.85px;"/>
        <path id="path32551" serif:id="path3255" d="M0,0L1.801,-9.221L-5.428,-9.221L-6.582,-3.335L-6.578,-3.337L-4.125,-1.941L-18.875,-1.941L-18.631,-1.456L-13.897,-1.456L-9.169,7.765L-3.019,7.765L-4.898,4.087L-10.499,0.485L7.303,0.485L7.06,0L0,0ZM9.495,7.523L1.508,2.18L-5.896,2.18L2.094,7.523L9.495,7.523ZM-8.775,-3.505L-11.693,-9.221L-17.843,-9.221L-14.924,-3.505L-8.775,-3.505Z" style="fill:rgb(0,82,150);"/>
    </g>
    <g id="g3257" transform="matrix(11.582,0,0,-11.582,552.541,279.999)">
        <path id="path3259" d="M0,0C-0.113,-0.229 -0.232,-0.459 -0.359,-0.69C-4.995,-9.129 -17.283,-15.994 -27.712,-15.973C-37.592,-15.953 -42.353,-9.759 -38.886,-1.933C-41.518,-8.402 -37.45,-13.492 -29.3,-13.492C-20.982,-13.492 -10.173,-7.961 -6.556,0L0,0Z" style="fill:none;stroke:white;stroke-width:2.76px;"/>
        <path id="path32591" serif:id="path3259" d="M0,0C-0.113,-0.229 -0.232,-0.459 -0.359,-0.69C-4.995,-9.129 -17.283,-15.994 -27.712,-15.973C-37.592,-15.953 -42.353,-9.759 -38.886,-1.933C-41.518,-8.402 -37.45,-13.492 -29.3,-13.492C-20.982,-13.492 -10.173,-7.961 -6.556,0L0,0Z" style="fill:rgb(0,148,222);"/>
    </g>
    <g id="g3261" transform="matrix(11.582,0,0,-11.582,27.4588,300.001)">
        <path id="path3263" d="M0,0C4.652,9.414 17.663,15.993 27.712,15.973C37.592,15.953 42.352,9.759 38.886,1.933C41.518,8.402 37.45,13.491 29.3,13.491C20.982,13.491 10.173,7.961 6.556,0L0,0Z" style="fill:none;stroke:white;stroke-width:2.76px;"/>
        <path id="path32631" serif:id="path3263" d="M0,0C4.652,9.414 17.663,15.993 27.712,15.973C37.592,15.953 42.352,9.759 38.886,1.933C41.518,8.402 37.45,13.491 29.3,13.491C20.982,13.491 10.173,7.961 6.556,0L0,0Z" style="fill:rgb(0,148,222);"/>
    </g>
</svg>
