<?xml version="1.0" encoding="UTF-8" standalone="no"?><!DOCTYPE svg PUBLIC "-//W3C//DTD SVG 1.1//EN" "http://www.w3.org/Graphics/SVG/1.1/DTD/svg11.dtd"><svg width="100%" height="100%" viewBox="0 0 580 580" version="1.1" xmlns="http://www.w3.org/2000/svg" xmlns:xlink="http://www.w3.org/1999/xlink" xml:space="preserve" xmlns:serif="http://www.serif.com/" style="fill-rule:evenodd;clip-rule:evenodd;stroke-linejoin:round;stroke-miterlimit:1.41421;"><g id="Layer-1" serif:id="Layer 1"><path id="path9" d="M164.831,341.065c3.493,-5.854 -0.904,-6.408 -3.561,-6.575c-46.081,-1.138 -84.296,26.714 -110.662,49.635c-1.397,1.196 -0.146,2.83 1.332,1.845c30.141,-20.607 52.91,-24.967 89.636,-29.177c9.619,-1.138 19.606,-9.629 23.255,-15.728" style="fill:#db5426;fill-rule:nonzero;stroke:#fff;stroke-width:64px;"/><path id="path11" d="M176.988,297.523c3.085,-6.062 -1.441,-6.276 -4.02,-6.276c-46.05,2.093 -84.73,32.622 -109.377,57.337c-1.295,1.295 0.108,2.909 1.379,1.75c25.932,-23.917 52.085,-29.557 88.471,-36.268c9.494,-1.78 20.319,-10.183 23.547,-16.543" style="fill:#db5426;fill-rule:nonzero;stroke:#fff;stroke-width:64px;"/><path id="path13" d="M186.909,255.292c2.895,-6.177 -1.617,-6.245 -4.213,-6.177c-45.955,3.724 -84.958,35.588 -108.729,61.156c-1.223,1.383 0.136,2.793 1.472,1.706c26.414,-21.729 50.946,-31.097 87.088,-39.071c9.429,-2.131 21.491,-11.175 24.382,-17.614" style="fill:#db5426;fill-rule:nonzero;stroke:#fff;stroke-width:64px;"/><path id="path15" d="M145.545,223.203c2.392,-7.295 -6.109,-5.243 -9.796,-3.051c-14.882,9.782 -27.525,22.962 -50.994,49.767c-1.247,1.431 0.174,2.684 1.509,1.614c20.414,-16.367 34.674,-20.747 44.011,-26.893c8.08,-5.318 13.041,-14.784 15.27,-21.437" style="fill:#db5426;fill-rule:nonzero;stroke:#fff;stroke-width:64px;"/><path id="path17" d="M328.366,392.507c-27.621,-12.69 -56.896,-27.742 -87.242,-35.034c-1.559,-0.377 -1.947,-2.147 0.68,-2.236c18.188,-0.652 67.887,7.255 105.82,18.403c46.587,13.693 87.048,38.184 102.613,41.13c1.845,0.38 1.264,1.597 0,1.838c-37.545,11.576 -85.787,-7.516 -121.871,-24.101" style="fill:#938874;fill-rule:nonzero;stroke:#fff;stroke-width:64px;"/><path id="path19" d="M344.903,345.394c-28.209,-11.243 -62.737,-23.713 -93.47,-29.411c-1.556,-0.323 -2.042,-2.042 0.581,-2.239c18.093,-1.631 77.323,4.407 115.739,13.55c47.273,11.264 89.582,33.828 105.334,35.996c1.848,0.245 1.366,1.444 0.2,1.838c-36.281,12.772 -91.522,-5.066 -128.384,-19.734" style="fill:#938874;fill-rule:nonzero;stroke:#fff;stroke-width:64px;"/><path id="path21" d="M364.45,299.361c-29.085,-8.96 -71.003,-20.397 -102.028,-23.645c-1.652,-0.235 -2.24,-1.869 0.39,-2.287c17.893,-3.092 79.366,0.391 118.369,6.432c47.949,7.479 98.525,31.056 114.379,31.987c1.848,0.108 1.454,1.342 0.292,1.801c-34.922,16.7 -93.469,-2.559 -131.402,-14.288" style="fill:#938874;fill-rule:nonzero;stroke:#fff;stroke-width:64px;"/><path id="path23" d="M413.956,259.26c-29.082,-8.949 -64.776,-16.244 -113.211,-19.9c-1.655,-0.116 -2.338,-1.944 0.292,-2.246c34.817,-4.105 80.144,-4.387 119.143,1.712c47.95,7.458 92.688,21.668 108.542,22.565c1.849,0.136 1.461,1.369 0.292,1.845c-28.888,18.042 -77.126,7.743 -115.058,-3.976" style="fill:#938874;fill-rule:nonzero;stroke:#fff;stroke-width:64px;"/><path id="path25" d="M156.031,209.412c-1.054,0.594 -2.308,-0.925 -1.054,-1.777c18.555,-13.153 129.231,-90.33 268.703,-15.708c1.169,0.601 0.683,2.334 -0.775,2.032c-74.017,-15.321 -197.852,-21.886 -266.874,15.453" style="fill:#db5426;fill-rule:nonzero;stroke:#fff;stroke-width:64px;"/><path id="path91" serif:id="path9" d="M164.831,341.065c3.493,-5.854 -0.904,-6.408 -3.561,-6.575c-46.081,-1.138 -84.296,26.714 -110.662,49.635c-1.397,1.196 -0.146,2.83 1.332,1.845c30.141,-20.607 52.91,-24.967 89.636,-29.177c9.619,-1.138 19.606,-9.629 23.255,-15.728" style="fill:#db5426;fill-rule:nonzero;stroke:#000;stroke-width:8.83px;"/><path id="path111" serif:id="path11" d="M176.988,297.523c3.085,-6.062 -1.441,-6.276 -4.02,-6.276c-46.05,2.093 -84.73,32.622 -109.377,57.337c-1.295,1.295 0.108,2.909 1.379,1.75c25.932,-23.917 52.085,-29.557 88.471,-36.268c9.494,-1.78 20.319,-10.183 23.547,-16.543" style="fill:#db5426;fill-rule:nonzero;stroke:#000;stroke-width:8.83px;"/><path id="path131" serif:id="path13" d="M186.909,255.292c2.895,-6.177 -1.617,-6.245 -4.213,-6.177c-45.955,3.724 -84.958,35.588 -108.729,61.156c-1.223,1.383 0.136,2.793 1.472,1.706c26.414,-21.729 50.946,-31.097 87.088,-39.071c9.429,-2.131 21.491,-11.175 24.382,-17.614" style="fill:#db5426;fill-rule:nonzero;stroke:#000;stroke-width:8.83px;"/><path id="path151" serif:id="path15" d="M145.545,223.203c2.392,-7.295 -6.109,-5.243 -9.796,-3.051c-14.882,9.782 -27.525,22.962 -50.994,49.767c-1.247,1.431 0.174,2.684 1.509,1.614c20.414,-16.367 34.674,-20.747 44.011,-26.893c8.08,-5.318 13.041,-14.784 15.27,-21.437" style="fill:#db5426;fill-rule:nonzero;stroke:#000;stroke-width:8.83px;"/><path id="path171" serif:id="path17" d="M328.366,392.507c-27.621,-12.69 -56.896,-27.742 -87.242,-35.034c-1.559,-0.377 -1.947,-2.147 0.68,-2.236c18.188,-0.652 67.887,7.255 105.82,18.403c46.587,13.693 87.048,38.184 102.613,41.13c1.845,0.38 1.264,1.597 0,1.838c-37.545,11.576 -85.787,-7.516 -121.871,-24.101" style="fill:#938874;fill-rule:nonzero;stroke:#000;stroke-width:8.83px;"/><path id="path191" serif:id="path19" d="M344.903,345.394c-28.209,-11.243 -62.737,-23.713 -93.47,-29.411c-1.556,-0.323 -2.042,-2.042 0.581,-2.239c18.093,-1.631 77.323,4.407 115.739,13.55c47.273,11.264 89.582,33.828 105.334,35.996c1.848,0.245 1.366,1.444 0.2,1.838c-36.281,12.772 -91.522,-5.066 -128.384,-19.734" style="fill:#938874;fill-rule:nonzero;stroke:#000;stroke-width:8.83px;"/><path id="path211" serif:id="path21" d="M364.45,299.361c-29.085,-8.96 -71.003,-20.397 -102.028,-23.645c-1.652,-0.235 -2.24,-1.869 0.39,-2.287c17.893,-3.092 79.366,0.391 118.369,6.432c47.949,7.479 98.525,31.056 114.379,31.987c1.848,0.108 1.454,1.342 0.292,1.801c-34.922,16.7 -93.469,-2.559 -131.402,-14.288" style="fill:#938874;fill-rule:nonzero;stroke:#000;stroke-width:8.83px;"/><path id="path231" serif:id="path23" d="M413.956,259.26c-29.082,-8.949 -64.776,-16.244 -113.211,-19.9c-1.655,-0.116 -2.338,-1.944 0.292,-2.246c34.817,-4.105 80.144,-4.387 119.143,1.712c47.95,7.458 92.688,21.668 108.542,22.565c1.849,0.136 1.461,1.369 0.292,1.845c-28.888,18.042 -77.126,7.743 -115.058,-3.976" style="fill:#938874;fill-rule:nonzero;stroke:#000;stroke-width:8.83px;"/><path id="path251" serif:id="path25" d="M156.031,209.412c-1.054,0.594 -2.308,-0.925 -1.054,-1.777c18.555,-13.153 129.231,-90.33 268.703,-15.708c1.169,0.601 0.683,2.334 -0.775,2.032c-74.017,-15.321 -197.852,-21.886 -266.874,15.453" style="fill:#db5426;fill-rule:nonzero;stroke:#000;stroke-width:8.83px;"/></g></svg>