<?xml version="1.0" encoding="UTF-8" standalone="no"?>
<!DOCTYPE svg PUBLIC "-//W3C//DTD SVG 1.1//EN" "http://www.w3.org/Graphics/SVG/1.1/DTD/svg11.dtd">
<svg width="100%" height="100%" viewBox="0 0 180 173" version="1.1" xmlns="http://www.w3.org/2000/svg" xmlns:xlink="http://www.w3.org/1999/xlink" xml:space="preserve" xmlns:serif="http://www.serif.com/" style="fill-rule:evenodd;clip-rule:evenodd;stroke-linejoin:round;stroke-miterlimit:1.41421;">
    <g id="g3003" transform="matrix(1.00276,0,0,1.00276,-0.00019289,-0.602662)">
        <g transform="matrix(0.556609,0,0,0.580863,9.42583,47.4018)">
            <path d="M288.069,17.444C290.22,21.824 285.73,23.019 281.945,21.703C267.049,16.523 230.32,15.068 213.712,30.992C209.646,34.89 207.034,44.69 213.241,49.826C219.437,54.953 206.919,54.631 203.61,53.122C184.732,44.518 185.785,35.449 173.174,26.025C155.645,12.926 137.152,13.055 127.649,15.559C122.244,16.983 118.618,13.375 125.723,9.395C152.884,-5.823 184.86,5.35 195.134,21.402C196.326,23.264 198.73,23.36 200.442,21.573C209.859,11.75 238.282,0 264.865,0C274.71,0 281.817,4.708 288.069,17.444Z" style="fill:rgb(147,135,187);stroke:white;stroke-width:28.05px;"/>
            <path d="M49.12,133.642L1.22,133.642C-2.759,133.642 2.904,124.602 19.627,113.694C89.059,68.405 167.652,56.847 211.989,66.415C218.225,67.761 214.267,69.303 211.957,69.433C193.679,70.46 114.829,67.892 53.958,131.076C52.067,133.036 50.833,133.642 49.12,133.642Z" style="fill:rgb(114,100,166);stroke:white;stroke-width:28.05px;"/>
            <path d="M163.884,135.869L120.135,135.869C109.006,135.869 152.583,84.758 211.399,75.982C216.018,75.293 215.837,76.681 212.683,78.68C192.564,91.436 167.907,104.278 167.907,133.302C167.908,136.024 165.597,135.869 163.884,135.869Z" style="fill:rgb(114,100,166);stroke:white;stroke-width:28.05px;"/>
        </g>
        <g transform="matrix(0.556609,0,0,0.580863,9.42583,47.4018)">
            <path d="M288.069,17.444C290.22,21.824 285.73,23.019 281.945,21.703C267.049,16.523 230.32,15.068 213.712,30.992C209.646,34.89 207.034,44.69 213.241,49.826C219.437,54.953 206.919,54.631 203.61,53.122C184.732,44.518 185.785,35.449 173.174,26.025C155.645,12.926 137.152,13.055 127.649,15.559C122.244,16.983 118.618,13.375 125.723,9.395C152.884,-5.823 184.86,5.35 195.134,21.402C196.326,23.264 198.73,23.36 200.442,21.573C209.859,11.75 238.282,0 264.865,0C274.71,0 281.817,4.708 288.069,17.444Z" style="fill:rgb(147,135,187);"/>
            <path d="M49.12,133.642L1.22,133.642C-2.759,133.642 2.904,124.602 19.627,113.694C89.059,68.405 167.652,56.847 211.989,66.415C218.225,67.761 214.267,69.303 211.957,69.433C193.679,70.46 114.829,67.892 53.958,131.076C52.067,133.036 50.833,133.642 49.12,133.642Z" style="fill:rgb(114,100,166);"/>
            <path d="M163.884,135.869L120.135,135.869C109.006,135.869 152.583,84.758 211.399,75.982C216.018,75.293 215.837,76.681 212.683,78.68C192.564,91.436 167.907,104.278 167.907,133.302C167.908,136.024 165.597,135.869 163.884,135.869Z" style="fill:rgb(114,100,166);"/>
        </g>
    </g>
</svg>
