<?xml version="1.0" encoding="UTF-8" standalone="no"?>
<!DOCTYPE svg PUBLIC "-//W3C//DTD SVG 1.1//EN" "http://www.w3.org/Graphics/SVG/1.1/DTD/svg11.dtd">
<svg width="100%" height="100%" viewBox="0 0 580 580" version="1.1" xmlns="http://www.w3.org/2000/svg" xmlns:xlink="http://www.w3.org/1999/xlink" xml:space="preserve" xmlns:serif="http://www.serif.com/" style="fill-rule:evenodd;clip-rule:evenodd;stroke-linejoin:round;stroke-miterlimit:2;">
    <g transform="matrix(1.05833,0,0,-1.05833,215.473,674.24)">
        <path d="M-184.7,321.8L-158.6,353C-148.4,365.1 -133.4,372.1 -117.7,372.1L-100.6,372.1C-84.8,372.1 -69.8,379.1 -59.7,391.2L-7.5,453.5C2.7,465.6 17.7,472.6 33.5,472.6L209.2,472.6L183,441.3C172.9,429.2 157.9,422.2 142,422.2L125,422.2C109.2,422.2 94.3,415.2 84.1,403.1L31.8,340.8C21.8,328.8 6.7,321.8 -9,321.8L-184.7,321.8Z" style="fill:none;fill-rule:nonzero;stroke:white;stroke-width:60.47px;"/>
    </g>
    <g transform="matrix(1.05833,0,0,-1.05833,220.582,678.652)">
        <path d="M-73.2,225.5L-47.1,256.7C-36.9,268.8 -22,275.8 -6.2,275.8L10.9,275.8C26.7,275.8 41.7,282.8 51.8,294.9L104.1,357.2C114.3,369.3 129.2,376.3 145,376.3L320.7,376.3L294.6,345.1C284.4,333 269.4,326 253.6,326L236.5,326C220.7,326 205.8,319 195.6,306.9L143.3,244.6C133.2,232.5 118.2,225.5 102.4,225.5L-73.2,225.5Z" style="fill:none;fill-rule:nonzero;stroke:white;stroke-width:60.47px;"/>
    </g>
    <g transform="matrix(1.05833,0,0,-1.05833,215.473,674.24)">
        <path d="M-184.7,321.8L-158.6,353C-148.4,365.1 -133.4,372.1 -117.7,372.1L-100.6,372.1C-84.8,372.1 -69.8,379.1 -59.7,391.2L-7.5,453.5C2.7,465.6 17.7,472.6 33.5,472.6L209.2,472.6L183,441.3C172.9,429.2 157.9,422.2 142,422.2L125,422.2C109.2,422.2 94.3,415.2 84.1,403.1L31.8,340.8C21.8,328.8 6.7,321.8 -9,321.8L-184.7,321.8Z" style="fill:rgb(56,176,53);fill-rule:nonzero;stroke:white;stroke-width:0.94px;"/>
    </g>
    <g transform="matrix(1.05833,0,0,-1.05833,220.582,678.652)">
        <path d="M-73.2,225.5L-47.1,256.7C-36.9,268.8 -22,275.8 -6.2,275.8L10.9,275.8C26.7,275.8 41.7,282.8 51.8,294.9L104.1,357.2C114.3,369.3 129.2,376.3 145,376.3L320.7,376.3L294.6,345.1C284.4,333 269.4,326 253.6,326L236.5,326C220.7,326 205.8,319 195.6,306.9L143.3,244.6C133.2,232.5 118.2,225.5 102.4,225.5L-73.2,225.5Z" style="fill:rgb(0,122,176);fill-rule:nonzero;"/>
    </g>
</svg>
