<?xml version="1.0" encoding="UTF-8" standalone="no"?>
<!DOCTYPE svg PUBLIC "-//W3C//DTD SVG 1.1//EN" "http://www.w3.org/Graphics/SVG/1.1/DTD/svg11.dtd">
<svg width="100%" height="100%" viewBox="0 0 580 580" version="1.1" xmlns="http://www.w3.org/2000/svg" xmlns:xlink="http://www.w3.org/1999/xlink" xml:space="preserve" xmlns:serif="http://www.serif.com/" style="fill-rule:evenodd;clip-rule:evenodd;stroke-linejoin:round;stroke-miterlimit:1.41421;">
    <g id="mast" transform="matrix(27.7317,0,0,28.0271,95.8779,150.624)">
        <path d="M7,1C6.402,1 6,1.469 6,2L6,9L3.113,14L4.268,14L6,11L6,14L8,14L8,11L9.732,14L10.887,14L8,9L8,2C8,1.504 7.598,1 7,1Z" style="fill-rule:nonzero;stroke:white;stroke-width:2.3px;"/>
    </g>
    <g id="mast1" serif:id="mast" transform="matrix(27.7317,0,0,28.0271,95.8779,150.624)">
        <path d="M7,1C6.402,1 6,1.469 6,2L6,9L3.113,14L4.268,14L6,11L6,14L8,14L8,11L9.732,14L10.887,14L8,9L8,2C8,1.504 7.598,1 7,1Z" style="fill-rule:nonzero;"/>
    </g>
</svg>
