<?xml version="1.0" encoding="UTF-8" standalone="no"?><!DOCTYPE svg PUBLIC "-//W3C//DTD SVG 1.1//EN" "http://www.w3.org/Graphics/SVG/1.1/DTD/svg11.dtd"><svg width="100%" height="100%" viewBox="0 0 580 580" version="1.1" xmlns="http://www.w3.org/2000/svg" xmlns:xlink="http://www.w3.org/1999/xlink" xml:space="preserve" xmlns:serif="http://www.serif.com/" style="fill-rule:evenodd;clip-rule:evenodd;stroke-linecap:round;stroke-linejoin:round;stroke-miterlimit:1.5;"><ellipse cx="338.841" cy="390.363" rx="215.511" ry="218.533" style="fill:none;stroke:#fff;stroke-width:64px;"/><path d="M363.126,146.159l-28.932,-5.425c-36.164,-7.233 -72.328,-16.274 -104.876,7.233l-37.973,25.315l-34.356,28.931l-27.123,27.124c-11.298,9.805 -21.595,20.708 -30.739,32.547l-9.042,18.083c-3.415,5.575 -5.86,11.689 -7.232,18.082c-0.209,6.06 -0.813,12.1 -1.809,18.082c-4.994,15.785 -7.436,32.267 -7.232,48.822c0,5.424 1.808,9.041 1.808,14.465c0,5.425 0,10.849 0,16.274c-1.819,5.888 -3.031,11.947 -3.617,18.082c-0.31,7.28 0.297,14.571 1.809,21.699c6.413,12.413 21.422,17.942 34.356,12.657l21.698,-12.657l30.74,-21.699c9.898,-8.073 20.848,-14.764 32.548,-19.89c13.648,-3.444 27.94,-3.444 41.588,0l21.699,3.616l57.863,0l39.78,-5.424c10.593,-1.68 20.925,-4.719 30.74,-9.041c14.466,-7.233 19.89,-27.124 23.507,-39.781c2.581,-7.995 5.599,-15.842 9.041,-23.507c3.915,-7.733 9.469,-14.521 16.274,-19.89l18.082,-12.658c5.425,-5.424 9.041,-3.616 14.466,0l21.698,5.425c16.226,4.542 33.698,-0.35 45.205,-12.657c5.425,-5.425 5.425,-14.466 7.233,-21.699c3.087,-4.911 4.948,-10.493 5.425,-16.274c0,-9.041 -12.658,-16.274 -18.082,-21.698c-26.413,-24.112 -57.069,-43.119 -90.411,-56.055c-24.188,-8.004 -48.98,-14.05 -74.136,-18.082Z" style="fill:none;stroke:#fff;stroke-width:64px;stroke-linecap:butt;stroke-miterlimit:1.41421;"/><ellipse cx="338.841" cy="391.381" rx="215.511" ry="218.533" style="fill:none;stroke:#595757;stroke-width:32px;"/><path d="M363.126,146.159l-28.932,-5.425c-36.164,-7.233 -72.328,-16.274 -104.876,7.233l-37.973,25.315l-34.356,28.931l-27.123,27.124c-11.298,9.805 -21.595,20.708 -30.739,32.547l-9.042,18.083c-3.415,5.575 -5.86,11.689 -7.232,18.082c-0.209,6.06 -0.813,12.1 -1.809,18.082c-4.994,15.785 -7.436,32.267 -7.232,48.822c0,5.424 1.808,9.041 1.808,14.465c0,5.425 0,10.849 0,16.274c-1.819,5.888 -3.031,11.947 -3.617,18.082c-0.31,7.28 0.297,14.571 1.809,21.699c6.413,12.413 21.422,17.942 34.356,12.657l21.698,-12.657l30.74,-21.699c9.898,-8.073 20.848,-14.764 32.548,-19.89c13.648,-3.444 27.94,-3.444 41.588,0l21.699,3.616l57.863,0l39.78,-5.424c10.593,-1.68 20.925,-4.719 30.74,-9.041c14.466,-7.233 19.89,-27.124 23.507,-39.781c2.581,-7.995 5.599,-15.842 9.041,-23.507c3.915,-7.733 9.469,-14.521 16.274,-19.89l18.082,-12.658c5.425,-5.424 9.041,-3.616 14.466,0l21.698,5.425c16.226,4.542 33.698,-0.35 45.205,-12.657c5.425,-5.425 5.425,-14.466 7.233,-21.699c3.087,-4.911 4.948,-10.493 5.425,-16.274c0,-9.041 -12.658,-16.274 -18.082,-21.698c-26.413,-24.112 -57.069,-43.119 -90.411,-56.055c-24.188,-8.004 -48.98,-14.05 -74.136,-18.082Z" style="fill:#f7d237;fill-rule:nonzero;"/><path d="M190.72,227.72c2.825,-4.59 8.121,-7.061 13.24,-8.651c-2.118,1.942 -4.06,4.237 -5.472,6.532c-1.413,1.942 -2.119,4.061 -2.296,6.003c-1.059,4.59 0.354,9.004 2.649,13.24c-1.766,-0.176 -3.531,-0.529 -5.12,-1.235c-5.649,-2.295 -5.826,-11.123 -3.001,-15.889Zm40.074,-2.648c-1.059,-0.883 -2.472,-1.589 -3.707,-2.118c0,-1.589 -0.353,-3.002 -0.883,-4.237c0.353,0.176 0.883,0.352 1.236,0.529c2.295,1.413 3.354,3.531 3.354,5.826Zm-14.653,-3.178c-1.235,-0.353 -2.471,-0.706 -3.883,-0.706c0.882,-0.353 1.588,-0.706 2.471,-1.059c1.942,-0.53 4.767,-0.353 5.826,1.589c-1.412,-0.177 -2.825,0 -4.414,0.176Zm0.706,7.944l0,1.766l-0.352,1.059c-0.354,1.412 -1.236,3.001 -2.295,4.59c-1.236,0 -2.296,0 -3.355,-0.176c-1.412,0 -3.178,-0.354 -4.766,-0.883c0.353,-1.589 1.412,-3.178 3.53,-4.767c1.766,-1.235 3.708,-2.295 5.826,-2.824c0.706,0.353 1.06,0.882 1.412,1.235Zm-13.593,21.361c0.883,1.236 1.766,2.119 2.648,3.178c2.825,3.001 7.768,-1.236 4.767,-4.237l-0.354,-0.529c1.413,-0.53 2.825,-1.059 4.237,-1.765c3.178,-1.413 6.532,-3.355 9.357,-6.003c8.65,-3.354 15.712,-10.945 12.358,-21.714c-4.237,-13.241 -25.245,-10.24 -34.425,-7.238c-7.415,2.295 -15.183,6.885 -18.007,14.829c-2.825,8.474 -0.353,17.654 7.061,21.891c3.708,1.942 8.121,2.295 12.358,1.588Z" style="fill:#b0c81c;fill-rule:nonzero;stroke:#000;stroke-width:2px;stroke-linecap:butt;stroke-miterlimit:1.41421;"/><path d="M353.842,243.609c-5.65,-2.295 -5.826,-11.123 -3.002,-15.889c2.825,-4.59 8.298,-7.061 13.417,-8.651c-2.295,1.942 -4.237,4.237 -5.649,6.532c-1.236,1.942 -2.119,4.061 -2.119,6.003c-1.235,4.59 0.177,9.18 2.472,13.24c-1.765,-0.176 -3.531,-0.529 -5.119,-1.235Zm37.073,-18.537c-1.06,-0.883 -2.472,-1.589 -3.708,-2.118c0,-1.589 -0.176,-3.002 -0.882,-4.237c0.353,0.176 0.882,0.352 1.235,0.529c2.295,1.413 3.355,3.531 3.355,5.826Zm-14.653,-3.178c-1.06,-0.529 -2.471,-0.706 -3.884,-0.706c0.883,-0.353 1.765,-0.706 2.472,-1.059c1.942,-0.53 4.766,-0.53 5.825,1.589c-1.412,-0.177 -2.824,0 -4.413,0.176Zm0.53,7.944c0.353,0.706 0.353,1.236 0.353,1.766l-0.53,1.059c-0.353,1.412 -1.236,3.178 -2.472,4.59c-1.059,0 -2.118,0 -3.177,-0.176c-1.236,0 -3.178,-0.354 -4.767,-0.883c0.353,-1.589 1.413,-3.178 3.531,-4.767c1.589,-1.235 3.707,-2.295 6.002,-2.824c0.53,0.353 0.883,0.882 1.06,1.235Zm7.238,12.005c8.65,-3.354 15.888,-10.945 12.357,-21.714c-4.237,-13.241 -25.068,-10.24 -34.425,-7.238c-7.238,2.471 -15.182,6.885 -18.006,14.829c-2.825,8.474 -0.354,17.83 7.238,21.891c3.707,1.942 7.944,2.295 12.181,1.588c1.059,1.06 1.942,2.119 2.824,3.178c2.825,3.001 7.592,-1.236 4.767,-4.237l-0.53,-0.529c1.413,-0.53 2.825,-1.059 4.237,-1.765c3.178,-1.413 6.532,-3.355 9.357,-6.003Z" style="fill:#b0c81c;fill-rule:nonzero;stroke:#000;stroke-width:2px;stroke-linecap:butt;stroke-miterlimit:1.41421;"/><path d="M356.137,282.27l-0.53,0c-2.825,0 -6.708,2.649 -7.238,6.709c-0.177,0.706 0,0.353 -0.177,1.059c-4.06,29.658 -22.597,51.373 -49.431,60.729c-23.832,8.298 -52.961,5.296 -73.086,-11.122c-16.066,-13.063 -20.832,-34.071 -17.831,-54.55c0.706,-4.413 -4.767,-6.355 -7.768,-5.473c-2.471,0.53 -3.884,1.766 -4.943,3.531c-0.882,1.942 -1.412,3.884 -1.765,5.826c-4.414,29.129 8.65,55.257 33.013,68.674c24.186,13.593 54.197,15.358 80.324,6.884c30.542,-10.062 54.021,-35.131 57.022,-69.732l0,-1.236c0.354,-7.768 -3.353,-11.299 -7.59,-11.299Z" style="fill:#b0c81c;fill-rule:nonzero;stroke:#000;stroke-width:2px;stroke-linecap:butt;stroke-miterlimit:1.41421;"/></svg>